solid Chandelier1ArrangedForPrint
facet normal -0.14011017428502107 -0.7043814124317241 -0.6958562817726879
  outer loop
    vertex -0.507995908295246 17.565641679861542 0.07554846691414385
    vertex -5.892337432294658 18.688798822322767 0.035006414822032594
    vertex -0.4980183900768941 17.615802051234063 0.035006414822032705
  endloop
endfacet
facet normal -0.10020010141161506 -0.5037399269416292 -0.858024490141129
  outer loop
    vertex -5.892337432294658 18.688798822322767 0.035006414822032594
    vertex -0.507995908295246 17.565641679861542 0.07554846691414385
    vertex -5.9023149505130075 18.638638450950243 0.07554846691414374
  endloop
endfacet
facet normal 0.0534615572155081 0.26876939790007043 0.9617197474589604
  outer loop
    vertex -5.853922017637876 18.881926153533193 0.4899424742220534
    vertex -0.47219844066284966 17.745607702607984 0.4994813856834387
    vertex -0.4596029754201129 17.80892938244449 0.4899424742220534
  endloop
endfacet
facet normal 0.0030796962446017553 0.015482678554238169 0.9998753933044994
  outer loop
    vertex -0.47219844066284966 17.745607702607984 0.4994813856834387
    vertex -5.853922017637876 18.881926153533193 0.4899424742220534
    vertex -5.866517482880611 18.818604473696684 0.4994813856834387
  endloop
endfacet
facet normal -0.1357548260879745 -0.6824855984387529 0.7181810601216947
  outer loop
    vertex -0.5069070712459839 17.571115633359785 0.42905780238773394
    vertex -5.90913547546159 18.6043493565192 0.37791473124386343
    vertex -0.5148164332438288 17.5313525854305 0.37791473124386343
  endloop
endfacet
facet normal -0.16739227407935503 -0.8415377901558981 0.5136087755462029
  outer loop
    vertex -5.90913547546159 18.6043493565192 0.37791473124386343
    vertex -0.5069070712459839 17.571115633359785 0.42905780238773394
    vertex -5.901226113463747 18.644112404448485 0.42905780238773394
  endloop
endfacet
facet normal 0.14011017428502479 0.7043814124317431 0.695856281772668
  outer loop
    vertex -5.8322598633704965 18.990829157166107 0.423476607800482
    vertex -0.4303503721430115 17.955992150146958 0.371079191796888
    vertex -5.824669414360774 19.02898892123566 0.371079191796888
  endloop
endfacet
facet normal 0.17047197032391515 0.8570204687099277 0.4862666177583017
  outer loop
    vertex -0.4303503721430115 17.955992150146958 0.371079191796888
    vertex -5.8322598633704965 18.990829157166107 0.423476607800482
    vertex -0.43794082115273447 17.917832386077407 0.423476607800482
  endloop
endfacet
facet normal 0.003079696244599911 0.0154826785542289 0.9998753933044996
  outer loop
    vertex -5.866517482880611 18.818604473696684 0.4994813856834387
    vertex -0.4729683647239903 17.741737032969475 0.4990250747146222
    vertex -0.47219844066284966 17.745607702607984 0.4994813856834387
  endloop
endfacet
facet normal -0.02240787482106185 -0.11265199402253695 0.9933818074581143
  outer loop
    vertex -0.4729683647239903 17.741737032969475 0.4990250747146222
    vertex -5.866517482880611 18.818604473696684 0.4994813856834387
    vertex -5.8672874069417515 18.814733804058175 0.4990250747146222
  endloop
endfacet
facet normal 0.16739227407935503 0.8415377901558988 -0.5136087755462019
  outer loop
    vertex -5.825439338421914 19.02511825159715 0.12111034347076233
    vertex -0.4390296582019957 17.912358432579165 0.06996727232689193
    vertex -5.833348700419759 18.985355203667865 0.06996727232689182
  endloop
endfacet
facet normal 0.13575482608797843 0.6824855984387729 -0.7181810601216749
  outer loop
    vertex -0.4390296582019957 17.912358432579165 0.06996727232689193
    vertex -5.825439338421914 19.02511825159715 0.12111034347076233
    vertex -0.431120296204151 17.95212148050845 0.12111034347076244
  endloop
endfacet
facet normal 0.14011017428502479 0.7043814124317431 0.695856281772668
  outer loop
    vertex -5.8322598633704965 18.990829157166107 0.423476607800482
    vertex -0.4479183393710855 17.867672014704887 0.46401865989259317
    vertex -0.43794082115273447 17.917832386077407 0.423476607800482
  endloop
endfacet
facet normal 0.1002001014116197 0.5037399269416525 0.8580244901411147
  outer loop
    vertex -0.4479183393710855 17.867672014704887 0.46401865989259317
    vertex -5.8322598633704965 18.990829157166107 0.423476607800482
    vertex -5.8422373815888475 18.940668785793587 0.46401865989259317
  endloop
endfacet
facet normal -0.047512040936018685 -0.2388591597491474 0.9698911834685504
  outer loop
    vertex -5.879165417175757 18.755019014120894 0.4919853332244518
    vertex -0.49668484248503 17.622506247707275 0.4679651604323608
    vertex -0.4848463749579934 17.682022243032193 0.4919853332244518
  endloop
endfacet
facet normal -0.09486591104416013 -0.4769231410488054 0.8738104923001914
  outer loop
    vertex -0.49668484248503 17.622506247707275 0.4679651604323608
    vertex -5.879165417175757 18.755019014120894 0.4919853332244518
    vertex -5.891003884702792 18.695503018795975 0.4679651604323608
  endloop
endfacet
facet normal 0.18921638330348364 0.9512549963388288 0.24353868733727715
  outer loop
    vertex -5.819983311115881 19.052547553142883 0.3103972091916324
    vertex -0.4242908834638915 17.986455256885584 0.24951253735731294
    vertex -5.818609925681654 19.059452027974285 0.24951253735731294
  endloop
endfacet
facet normal 0.19379917670195737 0.9742942545752292 0.11485897706031623
  outer loop
    vertex -0.4242908834638915 17.986455256885584 0.24951253735731294
    vertex -5.819983311115881 19.052547553142883 0.3103972091916324
    vertex -0.4256642688981191 17.979550782054183 0.3103972091916324
  endloop
endfacet
facet normal 0.0948659110441616 0.47692314104881317 -0.873810492300187
  outer loop
    vertex -0.44925188696294954 17.86096781823168 0.031059914282265066
    vertex -5.833348700419759 18.985355203667865 0.06996727232689182
    vertex -0.4390296582019957 17.912358432579165 0.06996727232689193
  endloop
endfacet
facet normal 0.1357548260879785 0.6824855984387734 -0.7181810601216744
  outer loop
    vertex -5.833348700419759 18.985355203667865 0.06996727232689182
    vertex -0.44925188696294954 17.86096781823168 0.031059914282265066
    vertex -5.843570929180712 18.933964589320375 0.031059914282264955
  endloop
endfacet
facet normal -0.100200101411615 -0.5037399269416288 -0.8580244901411292
  outer loop
    vertex -0.4980183900768941 17.615802051234063 0.035006414822032705
    vertex -5.880652796245628 18.74754145458316 0.009082600492572368
    vertex -0.48633375402786677 17.67454468349446 0.009082600492572479
  endloop
endfacet
facet normal -0.05346155721550638 -0.26876939790006193 -0.961719747458963
  outer loop
    vertex -5.880652796245628 18.74754145458316 0.009082600492572368
    vertex -0.4980183900768941 17.615802051234063 0.035006414822032705
    vertex -5.892337432294658 18.688798822322767 0.035006414822032594
  endloop
endfacet
facet normal -0.980785280403231 0.19509032201612572 -5.480347415024764e-16
  outer loop
    vertex -5.820381853136494 19.050543947103392 0.18100381193334314
    vertex -5.818609925681654 19.059452027974285 0.24951253735731294
    vertex -5.8185209038278085 19.059899571055787 0.24556603681754507
  endloop
endfacet
facet normal -0.980785280403231 0.19509032201612572 -5.480347415024764e-16
  outer loop
    vertex -5.818609925681654 19.059452027974285 0.24951253735731294
    vertex -5.820381853136494 19.050543947103392 0.18100381193334314
    vertex -5.819983311115881 19.052547553142883 0.3103972091916324
  endloop
endfacet
facet normal -0.980785280403231 0.19509032201612572 -5.480347415024764e-16
  outer loop
    vertex -5.819983311115881 19.052547553142883 0.3103972091916324
    vertex -5.820381853136494 19.050543947103392 0.18100381193334314
    vertex -5.824669414360774 19.02898892123566 0.371079191796888
  endloop
endfacet
facet normal -0.980785280403231 0.19509032201612572 -5.480347415024764e-16
  outer loop
    vertex -5.824669414360774 19.02898892123566 0.371079191796888
    vertex -5.820381853136494 19.050543947103392 0.18100381193334314
    vertex -5.825439338421914 19.02511825159715 0.12111034347076233
  endloop
endfacet
facet normal -0.980785280403231 0.19509032201612572 -5.480347415024764e-16
  outer loop
    vertex -5.824669414360774 19.02898892123566 0.371079191796888
    vertex -5.825439338421914 19.02511825159715 0.12111034347076233
    vertex -5.8322598633704965 18.990829157166107 0.423476607800482
  endloop
endfacet
facet normal -0.980785280403231 0.19509032201612572 -5.480347415024764e-16
  outer loop
    vertex -5.8322598633704965 18.990829157166107 0.423476607800482
    vertex -5.825439338421914 19.02511825159715 0.12111034347076233
    vertex -5.833348700419759 18.985355203667865 0.06996727232689182
  endloop
endfacet
facet normal -0.980785280403231 0.19509032201612572 -5.480347415024764e-16
  outer loop
    vertex -5.8322598633704965 18.990829157166107 0.423476607800482
    vertex -5.833348700419759 18.985355203667865 0.06996727232689182
    vertex -5.8422373815888475 18.940668785793587 0.46401865989259317
  endloop
endfacet
facet normal -0.980785280403231 0.19509032201612572 -5.480347415024764e-16
  outer loop
    vertex -5.8422373815888475 18.940668785793587 0.46401865989259317
    vertex -5.833348700419759 18.985355203667865 0.06996727232689182
    vertex -5.843570929180712 18.933964589320375 0.031059914282264955
  endloop
endfacet
facet normal -0.980785280403231 0.19509032201612572 -5.480347415024764e-16
  outer loop
    vertex -5.8422373815888475 18.940668785793587 0.46401865989259317
    vertex -5.843570929180712 18.933964589320375 0.031059914282264955
    vertex -5.853922017637876 18.881926153533193 0.4899424742220534
  endloop
endfacet
facet normal -0.980785280403231 0.19509032201612572 -5.480347415024764e-16
  outer loop
    vertex -5.853922017637876 18.881926153533193 0.4899424742220534
    vertex -5.843570929180712 18.933964589320375 0.031059914282264955
    vertex -5.855409396707749 18.874448593995456 0.007039741490173945
  endloop
endfacet
facet normal -0.980785280403231 0.19509032201612572 -5.480347415024764e-16
  outer loop
    vertex -5.853922017637876 18.881926153533193 0.4899424742220534
    vertex -5.855409396707749 18.874448593995456 0.007039741490173945
    vertex -5.866517482880611 18.818604473696684 0.4994813856834387
  endloop
endfacet
facet normal -0.980785280403231 0.19509032201612572 -5.480347415024764e-16
  outer loop
    vertex -5.866517482880611 18.818604473696684 0.4994813856834387
    vertex -5.855409396707749 18.874448593995456 0.007039741490173945
    vertex -5.867287406941752 18.814733804058175 3.552713678800501e-15
  endloop
endfacet
facet normal -0.980785280403231 0.19509032201612572 -5.480347415024764e-16
  outer loop
    vertex -5.866517482880611 18.818604473696684 0.4994813856834387
    vertex -5.867287406941752 18.814733804058175 3.552713678800501e-15
    vertex -5.8672874069417515 18.814733804058175 0.4990250747146222
  endloop
endfacet
facet normal -0.980785280403231 0.19509032201612572 -5.480347415024764e-16
  outer loop
    vertex -5.8672874069417515 18.814733804058175 0.4990250747146222
    vertex -5.867287406941752 18.814733804058175 3.552713678800501e-15
    vertex -5.868057331002893 18.81086313441967 -0.0004563109688129341
  endloop
endfacet
facet normal -0.980785280403231 0.19509032201612572 -5.480347415024764e-16
  outer loop
    vertex -5.8672874069417515 18.814733804058175 0.4990250747146222
    vertex -5.868057331002893 18.81086313441967 -0.0004563109688129341
    vertex -5.879165417175757 18.755019014120894 0.4919853332244518
  endloop
endfacet
facet normal -0.980785280403231 0.19509032201612572 -5.480347415024764e-16
  outer loop
    vertex -5.879165417175757 18.755019014120894 0.4919853332244518
    vertex -5.868057331002893 18.81086313441967 -0.0004563109688129341
    vertex -5.880652796245628 18.74754145458316 0.009082600492572368
  endloop
endfacet
facet normal -0.980785280403231 0.19509032201612572 -5.480347415024764e-16
  outer loop
    vertex -5.879165417175757 18.755019014120894 0.4919853332244518
    vertex -5.880652796245628 18.74754145458316 0.009082600492572368
    vertex -5.891003884702792 18.695503018795975 0.4679651604323608
  endloop
endfacet
facet normal -0.980785280403231 0.19509032201612572 -5.480347415024764e-16
  outer loop
    vertex -5.891003884702792 18.695503018795975 0.4679651604323608
    vertex -5.880652796245628 18.74754145458316 0.009082600492572368
    vertex -5.892337432294658 18.688798822322767 0.035006414822032594
  endloop
endfacet
facet normal -0.980785280403231 0.19509032201612572 -5.480347415024764e-16
  outer loop
    vertex -5.891003884702792 18.695503018795975 0.4679651604323608
    vertex -5.892337432294658 18.688798822322767 0.035006414822032594
    vertex -5.901226113463747 18.644112404448485 0.42905780238773394
  endloop
endfacet
facet normal -0.980785280403231 0.19509032201612572 -5.480347415024764e-16
  outer loop
    vertex -5.901226113463747 18.644112404448485 0.42905780238773394
    vertex -5.892337432294658 18.688798822322767 0.035006414822032594
    vertex -5.9023149505130075 18.638638450950243 0.07554846691414374
  endloop
endfacet
facet normal -0.980785280403231 0.19509032201612572 -5.480347415024764e-16
  outer loop
    vertex -5.901226113463747 18.644112404448485 0.42905780238773394
    vertex -5.9023149505130075 18.638638450950243 0.07554846691414374
    vertex -5.90913547546159 18.6043493565192 0.37791473124386343
  endloop
endfacet
facet normal -0.980785280403231 0.19509032201612572 -5.480347415024764e-16
  outer loop
    vertex -5.90913547546159 18.6043493565192 0.37791473124386343
    vertex -5.9023149505130075 18.638638450950243 0.07554846691414374
    vertex -5.909905399522731 18.600478686880695 0.1279458829177379
  endloop
endfacet
facet normal -0.980785280403231 0.19509032201612572 -5.480347415024764e-16
  outer loop
    vertex -5.90913547546159 18.6043493565192 0.37791473124386343
    vertex -5.909905399522731 18.600478686880695 0.1279458829177379
    vertex -5.914192960747012 18.57892366101296 0.31802126278128273
  endloop
endfacet
facet normal -0.980785280403231 0.19509032201612572 -5.480347415024764e-16
  outer loop
    vertex -5.914192960747012 18.57892366101296 0.31802126278128273
    vertex -5.909905399522731 18.600478686880695 0.1279458829177379
    vertex -5.914591502767622 18.576920054973467 0.1886278655229935
  endloop
endfacet
facet normal -0.980785280403231 0.19509032201612572 -5.480347415024764e-16
  outer loop
    vertex -5.914192960747012 18.57892366101296 0.31802126278128273
    vertex -5.914591502767622 18.576920054973467 0.1886278655229935
    vertex -5.9160539100556955 18.569568037060563 0.25345903789708035
  endloop
endfacet
facet normal -0.980785280403231 0.19509032201612572 -5.480347415024764e-16
  outer loop
    vertex -5.9160539100556955 18.569568037060563 0.25345903789708035
    vertex -5.914591502767622 18.576920054973467 0.1886278655229935
    vertex -5.9159648882018505 18.570015580142066 0.24951253735731294
  endloop
endfacet
facet normal 0.1937991767019573 0.9742942545752297 0.11485897706031116
  outer loop
    vertex -5.818609925681654 19.059452027974285 0.24951253735731294
    vertex -0.4242018616100455 17.986902799967087 0.2455660368175453
    vertex -5.8185209038278085 19.059899571055787 0.24556603681754507
  endloop
endfacet
facet normal 0.19506601245577754 0.9806630679904472 -0.0157860021590735
  outer loop
    vertex -0.4242018616100455 17.986902799967087 0.2455660368175453
    vertex -5.818609925681654 19.059452027974285 0.24951253735731294
    vertex -0.4242908834638915 17.986455256885584 0.24951253735731294
  endloop
endfacet
facet normal -0.05346155721550628 -0.26876939790006144 -0.9617197474589632
  outer loop
    vertex -0.48633375402786677 17.67454468349446 0.009082600492572479
    vertex -5.868057331002893 18.81086313441967 -0.0004563109688129341
    vertex -0.4737382887851299 17.737866363330966 -0.0004563109688129341
  endloop
endfacet
facet normal -0.003079696244560449 -0.015482678554030502 -0.9998753933045027
  outer loop
    vertex -5.868057331002893 18.81086313441967 -0.0004563109688129341
    vertex -0.48633375402786677 17.67454468349446 0.009082600492572479
    vertex -5.880652796245628 18.74754145458316 0.009082600492572368
  endloop
endfacet
facet normal -0.14011017428502107 -0.7043814124317241 -0.6958562817726879
  outer loop
    vertex -0.507995908295246 17.565641679861542 0.07554846691414385
    vertex -5.909905399522731 18.600478686880695 0.1279458829177379
    vertex -5.9023149505130075 18.638638450950243 0.07554846691414374
  endloop
endfacet
facet normal -0.17047197032391495 -0.8570204687099263 -0.4862666177583041
  outer loop
    vertex -5.909905399522731 18.600478686880695 0.1279458829177379
    vertex -0.507995908295246 17.565641679861542 0.07554846691414385
    vertex -0.515586357304969 17.527481915791995 0.1279458829177379
  endloop
endfacet
facet normal 0.10020010141161972 0.5037399269416526 0.8580244901411146
  outer loop
    vertex -5.8422373815888475 18.940668785793587 0.46401865989259317
    vertex -0.4596029754201129 17.80892938244449 0.4899424742220534
    vertex -0.4479183393710855 17.867672014704887 0.46401865989259317
  endloop
endfacet
facet normal 0.053461557215507965 0.26876939790006976 0.9617197474589606
  outer loop
    vertex -0.4596029754201129 17.80892938244449 0.4899424742220534
    vertex -5.8422373815888475 18.940668785793587 0.46401865989259317
    vertex -5.853922017637876 18.881926153533193 0.4899424742220534
  endloop
endfacet
facet normal 0.02240787482114034 0.11265199402293166 -0.9933818074580677
  outer loop
    vertex -0.4729683647239904 17.741737032969475 3.6637359812630166e-15
    vertex -5.855409396707749 18.874448593995456 0.007039741490173945
    vertex -0.4610903544899862 17.801451822906756 0.007039741490174056
  endloop
endfacet
facet normal 0.047512040936013585 0.23885915974912203 -0.9698911834685571
  outer loop
    vertex -5.855409396707749 18.874448593995456 0.007039741490173945
    vertex -0.4729683647239904 17.741737032969475 3.6637359812630166e-15
    vertex -0.4737382887851299 17.737866363330966 -0.0004563109688129341
  endloop
endfacet
facet normal 0.047512040936013585 0.23885915974912203 -0.9698911834685571
  outer loop
    vertex -5.855409396707749 18.874448593995456 0.007039741490173945
    vertex -0.4737382887851299 17.737866363330966 -0.0004563109688129341
    vertex -5.867287406941752 18.814733804058175 3.552713678800501e-15
  endloop
endfacet
facet normal 0.02240787482114034 0.11265199402293166 -0.9933818074580677
  outer loop
    vertex -5.867287406941752 18.814733804058175 3.552713678800501e-15
    vertex -0.4737382887851299 17.737866363330966 -0.0004563109688129341
    vertex -5.868057331002893 18.81086313441967 -0.0004563109688129341
  endloop
endfacet
facet normal -0.02240787482114241 -0.11265199402294204 0.9933818074580666
  outer loop
    vertex -5.8672874069417515 18.814733804058175 0.4990250747146222
    vertex -0.4848463749579934 17.682022243032193 0.4919853332244518
    vertex -0.4729683647239903 17.741737032969475 0.4990250747146222
  endloop
endfacet
facet normal -0.04751204093601861 -0.23885915974914704 0.9698911834685506
  outer loop
    vertex -0.4848463749579934 17.682022243032193 0.4919853332244518
    vertex -5.8672874069417515 18.814733804058175 0.4990250747146222
    vertex -5.879165417175757 18.755019014120894 0.4919853332244518
  endloop
endfacet
facet normal 0.19506601245577757 0.9806630679904472 -0.01578600215907242
  outer loop
    vertex -5.8185209038278085 19.059899571055787 0.24556603681754507
    vertex -0.4260628109187304 17.97754717601469 0.18100381193334314
    vertex -5.820381853136494 19.050543947103392 0.18100381193334314
  endloop
endfacet
facet normal 0.1876222152210378 0.9432405721808623 -0.2740349016958794
  outer loop
    vertex -0.4260628109187304 17.97754717601469 0.18100381193334314
    vertex -5.8185209038278085 19.059899571055787 0.24556603681754507
    vertex -0.4242018616100455 17.986902799967087 0.2455660368175453
  endloop
endfacet
facet normal 0.18762221522103778 0.9432405721808623 -0.2740349016958791
  outer loop
    vertex -5.820381853136494 19.050543947103392 0.18100381193334314
    vertex -0.431120296204151 17.95212148050845 0.12111034347076244
    vertex -5.825439338421914 19.02511825159715 0.12111034347076233
  endloop
endfacet
facet normal 0.16739227407935497 0.8415377901558984 -0.5136087755462024
  outer loop
    vertex -0.431120296204151 17.95212148050845 0.12111034347076244
    vertex -5.820381853136494 19.050543947103392 0.18100381193334314
    vertex -0.4260628109187304 17.97754717601469 0.18100381193334314
  endloop
endfacet
facet normal -0.19379917670195748 -0.9742942545752297 -0.1148589770603118
  outer loop
    vertex -0.5216458459840891 17.497018809053365 0.24951253735731294
    vertex -5.914591502767622 18.576920054973467 0.1886278655229935
    vertex -0.5202724605498613 17.503923283884767 0.1886278655229935
  endloop
endfacet
facet normal -0.1892163833034837 -0.9512549963388288 -0.2435386873372772
  outer loop
    vertex -5.914591502767622 18.576920054973467 0.1886278655229935
    vertex -0.5216458459840891 17.497018809053365 0.24951253735731294
    vertex -5.9159648882018505 18.570015580142066 0.24951253735731294
  endloop
endfacet
facet normal -0.09486591104416013 -0.47692314104880534 0.8738104923001916
  outer loop
    vertex -5.891003884702792 18.695503018795975 0.4679651604323608
    vertex -0.5069070712459839 17.571115633359785 0.42905780238773394
    vertex -0.49668484248503 17.622506247707275 0.4679651604323608
  endloop
endfacet
facet normal -0.1357548260879745 -0.6824855984387529 0.7181810601216947
  outer loop
    vertex -0.5069070712459839 17.571115633359785 0.42905780238773394
    vertex -5.891003884702792 18.695503018795975 0.4679651604323608
    vertex -5.901226113463747 18.644112404448485 0.42905780238773394
  endloop
endfacet
facet normal -0.1892163833034837 -0.9512549963388287 -0.24353868733727757
  outer loop
    vertex -0.5202724605498613 17.503923283884767 0.1886278655229935
    vertex -5.909905399522731 18.600478686880695 0.1279458829177379
    vertex -0.515586357304969 17.527481915791995 0.1279458829177379
  endloop
endfacet
facet normal -0.17047197032391495 -0.8570204687099263 -0.4862666177583041
  outer loop
    vertex -5.909905399522731 18.600478686880695 0.1279458829177379
    vertex -0.5202724605498613 17.503923283884767 0.1886278655229935
    vertex -5.914591502767622 18.576920054973467 0.1886278655229935
  endloop
endfacet
facet normal -0.16739227407935509 -0.8415377901558985 0.5136087755462024
  outer loop
    vertex -0.5148164332438288 17.5313525854305 0.37791473124386343
    vertex -5.914192960747012 18.57892366101296 0.31802126278128273
    vertex -0.5198739185292491 17.505926889924257 0.31802126278128273
  endloop
endfacet
facet normal -0.18762221522103803 -0.9432405721808629 0.27403490169587713
  outer loop
    vertex -5.914192960747012 18.57892366101296 0.31802126278128273
    vertex -0.5148164332438288 17.5313525854305 0.37791473124386343
    vertex -5.90913547546159 18.6043493565192 0.37791473124386343
  endloop
endfacet
facet normal -0.19506601245577765 -0.9806630679904469 0.015786002159085707
  outer loop
    vertex -0.5217348678379349 17.496571265971863 0.25345903789708035
    vertex -5.9159648882018505 18.570015580142066 0.24951253735731294
    vertex -0.5216458459840891 17.497018809053365 0.24951253735731294
  endloop
endfacet
facet normal -0.1937991767019581 -0.9742942545752327 -0.11485897706028435
  outer loop
    vertex -5.9159648882018505 18.570015580142066 0.24951253735731294
    vertex -0.5217348678379349 17.496571265971863 0.25345903789708035
    vertex -5.9160539100556955 18.569568037060563 0.25345903789708035
  endloop
endfacet
facet normal 0.04751204093601375 0.2388591597491228 -0.9698911834685569
  outer loop
    vertex -0.4610903544899862 17.801451822906756 0.007039741490174056
    vertex -5.843570929180712 18.933964589320375 0.031059914282264955
    vertex -0.44925188696294954 17.86096781823168 0.031059914282265066
  endloop
endfacet
facet normal 0.09486591104416159 0.476923141048813 -0.873810492300187
  outer loop
    vertex -5.843570929180712 18.933964589320375 0.031059914282264955
    vertex -0.4610903544899862 17.801451822906756 0.007039741490174056
    vertex -5.855409396707749 18.874448593995456 0.007039741490173945
  endloop
endfacet
facet normal -0.18762221522103809 -0.9432405721808629 0.2740349016958773
  outer loop
    vertex -0.5198739185292491 17.505926889924257 0.31802126278128273
    vertex -5.9160539100556955 18.569568037060563 0.25345903789708035
    vertex -0.5217348678379349 17.496571265971863 0.25345903789708035
  endloop
endfacet
facet normal -0.19506601245577773 -0.9806630679904471 0.015786002159075316
  outer loop
    vertex -5.9160539100556955 18.569568037060563 0.25345903789708035
    vertex -0.5198739185292491 17.505926889924257 0.31802126278128273
    vertex -5.914192960747012 18.57892366101296 0.31802126278128273
  endloop
endfacet
facet normal 0.1704719703239151 0.8570204687099274 0.4862666177583019
  outer loop
    vertex -5.824669414360774 19.02898892123566 0.371079191796888
    vertex -0.4256642688981191 17.979550782054183 0.3103972091916324
    vertex -5.819983311115881 19.052547553142883 0.3103972091916324
  endloop
endfacet
facet normal 0.18921638330348364 0.9512549963388288 0.24353868733727688
  outer loop
    vertex -0.4256642688981191 17.979550782054183 0.3103972091916324
    vertex -5.824669414360774 19.02898892123566 0.371079191796888
    vertex -0.4303503721430115 17.955992150146958 0.371079191796888
  endloop
endfacet
facet normal 0.9807852804032305 -0.195090322016128 -1.3649555108139968e-16
  outer loop
    vertex -0.4242908834638915 17.986455256885584 0.24951253735731294
    vertex -0.4260628109187304 17.97754717601469 0.18100381193334314
    vertex -0.4242018616100455 17.986902799967087 0.2455660368175453
  endloop
endfacet
facet normal 0.9807852804032305 -0.195090322016128 -1.3649555108139968e-16
  outer loop
    vertex -0.4260628109187304 17.97754717601469 0.18100381193334314
    vertex -0.4242908834638915 17.986455256885584 0.24951253735731294
    vertex -0.4256642688981191 17.979550782054183 0.3103972091916324
  endloop
endfacet
facet normal 0.9807852804032305 -0.195090322016128 -1.3649555108139968e-16
  outer loop
    vertex -0.4260628109187304 17.97754717601469 0.18100381193334314
    vertex -0.4256642688981191 17.979550782054183 0.3103972091916324
    vertex -0.4303503721430115 17.955992150146958 0.371079191796888
  endloop
endfacet
facet normal 0.9807852804032305 -0.195090322016128 -1.3649555108139968e-16
  outer loop
    vertex -0.4260628109187304 17.97754717601469 0.18100381193334314
    vertex -0.4303503721430115 17.955992150146958 0.371079191796888
    vertex -0.431120296204151 17.95212148050845 0.12111034347076244
  endloop
endfacet
facet normal 0.9807852804032305 -0.195090322016128 -1.3649555108139968e-16
  outer loop
    vertex -0.431120296204151 17.95212148050845 0.12111034347076244
    vertex -0.4303503721430115 17.955992150146958 0.371079191796888
    vertex -0.43794082115273447 17.917832386077407 0.423476607800482
  endloop
endfacet
facet normal 0.9807852804032305 -0.195090322016128 -1.3649555108139968e-16
  outer loop
    vertex -0.431120296204151 17.95212148050845 0.12111034347076244
    vertex -0.43794082115273447 17.917832386077407 0.423476607800482
    vertex -0.4390296582019957 17.912358432579165 0.06996727232689193
  endloop
endfacet
facet normal 0.9807852804032305 -0.195090322016128 -1.3649555108139968e-16
  outer loop
    vertex -0.4390296582019957 17.912358432579165 0.06996727232689193
    vertex -0.43794082115273447 17.917832386077407 0.423476607800482
    vertex -0.4479183393710855 17.867672014704887 0.46401865989259317
  endloop
endfacet
facet normal 0.9807852804032305 -0.195090322016128 -1.3649555108139968e-16
  outer loop
    vertex -0.4390296582019957 17.912358432579165 0.06996727232689193
    vertex -0.4479183393710855 17.867672014704887 0.46401865989259317
    vertex -0.44925188696294954 17.86096781823168 0.031059914282265066
  endloop
endfacet
facet normal 0.9807852804032305 -0.195090322016128 -1.3649555108139968e-16
  outer loop
    vertex -0.44925188696294954 17.86096781823168 0.031059914282265066
    vertex -0.4479183393710855 17.867672014704887 0.46401865989259317
    vertex -0.4596029754201129 17.80892938244449 0.4899424742220534
  endloop
endfacet
facet normal 0.9807852804032305 -0.195090322016128 -1.3649555108139968e-16
  outer loop
    vertex -0.44925188696294954 17.86096781823168 0.031059914282265066
    vertex -0.4596029754201129 17.80892938244449 0.4899424742220534
    vertex -0.4610903544899862 17.801451822906756 0.007039741490174056
  endloop
endfacet
facet normal 0.9807852804032305 -0.195090322016128 -1.3649555108139968e-16
  outer loop
    vertex -0.4610903544899862 17.801451822906756 0.007039741490174056
    vertex -0.4596029754201129 17.80892938244449 0.4899424742220534
    vertex -0.47219844066284966 17.745607702607984 0.4994813856834387
  endloop
endfacet
facet normal 0.9807852804032305 -0.195090322016128 -1.3649555108139968e-16
  outer loop
    vertex -0.4610903544899862 17.801451822906756 0.007039741490174056
    vertex -0.47219844066284966 17.745607702607984 0.4994813856834387
    vertex -0.4729683647239904 17.741737032969475 3.6637359812630166e-15
  endloop
endfacet
facet normal 0.9807852804032305 -0.195090322016128 -1.3649555108139968e-16
  outer loop
    vertex -0.4729683647239904 17.741737032969475 3.6637359812630166e-15
    vertex -0.47219844066284966 17.745607702607984 0.4994813856834387
    vertex -0.4729683647239903 17.741737032969475 0.4990250747146222
  endloop
endfacet
facet normal 0.9807852804032305 -0.195090322016128 -1.3649555108139968e-16
  outer loop
    vertex -0.4729683647239904 17.741737032969475 3.6637359812630166e-15
    vertex -0.4729683647239903 17.741737032969475 0.4990250747146222
    vertex -0.4848463749579934 17.682022243032193 0.4919853332244518
  endloop
endfacet
facet normal 0.9807852804032305 -0.195090322016128 -1.3649555108139968e-16
  outer loop
    vertex -0.4729683647239904 17.741737032969475 3.6637359812630166e-15
    vertex -0.4848463749579934 17.682022243032193 0.4919853332244518
    vertex -0.4737382887851299 17.737866363330966 -0.0004563109688129341
  endloop
endfacet
facet normal 0.9807852804032305 -0.195090322016128 -1.3649555108139968e-16
  outer loop
    vertex -0.4737382887851299 17.737866363330966 -0.0004563109688129341
    vertex -0.4848463749579934 17.682022243032193 0.4919853332244518
    vertex -0.48633375402786677 17.67454468349446 0.009082600492572479
  endloop
endfacet
facet normal 0.9807852804032305 -0.195090322016128 -1.3649555108139968e-16
  outer loop
    vertex -0.48633375402786677 17.67454468349446 0.009082600492572479
    vertex -0.4848463749579934 17.682022243032193 0.4919853332244518
    vertex -0.49668484248503 17.622506247707275 0.4679651604323608
  endloop
endfacet
facet normal 0.9807852804032305 -0.195090322016128 -1.3649555108139968e-16
  outer loop
    vertex -0.48633375402786677 17.67454468349446 0.009082600492572479
    vertex -0.49668484248503 17.622506247707275 0.4679651604323608
    vertex -0.4980183900768941 17.615802051234063 0.035006414822032705
  endloop
endfacet
facet normal 0.9807852804032305 -0.195090322016128 -1.3649555108139968e-16
  outer loop
    vertex -0.4980183900768941 17.615802051234063 0.035006414822032705
    vertex -0.49668484248503 17.622506247707275 0.4679651604323608
    vertex -0.5069070712459839 17.571115633359785 0.42905780238773394
  endloop
endfacet
facet normal 0.9807852804032305 -0.195090322016128 -1.3649555108139968e-16
  outer loop
    vertex -0.4980183900768941 17.615802051234063 0.035006414822032705
    vertex -0.5069070712459839 17.571115633359785 0.42905780238773394
    vertex -0.507995908295246 17.565641679861542 0.07554846691414385
  endloop
endfacet
facet normal 0.9807852804032305 -0.195090322016128 -1.3649555108139968e-16
  outer loop
    vertex -0.507995908295246 17.565641679861542 0.07554846691414385
    vertex -0.5069070712459839 17.571115633359785 0.42905780238773394
    vertex -0.5148164332438288 17.5313525854305 0.37791473124386343
  endloop
endfacet
facet normal 0.9807852804032305 -0.195090322016128 -1.3649555108139968e-16
  outer loop
    vertex -0.507995908295246 17.565641679861542 0.07554846691414385
    vertex -0.5148164332438288 17.5313525854305 0.37791473124386343
    vertex -0.515586357304969 17.527481915791995 0.1279458829177379
  endloop
endfacet
facet normal 0.9807852804032305 -0.195090322016128 -1.3649555108139968e-16
  outer loop
    vertex -0.515586357304969 17.527481915791995 0.1279458829177379
    vertex -0.5148164332438288 17.5313525854305 0.37791473124386343
    vertex -0.5198739185292491 17.505926889924257 0.31802126278128273
  endloop
endfacet
facet normal 0.9807852804032305 -0.195090322016128 -1.3649555108139968e-16
  outer loop
    vertex -0.515586357304969 17.527481915791995 0.1279458829177379
    vertex -0.5198739185292491 17.505926889924257 0.31802126278128273
    vertex -0.5202724605498613 17.503923283884767 0.1886278655229935
  endloop
endfacet
facet normal 0.9807852804032305 -0.195090322016128 -1.3649555108139968e-16
  outer loop
    vertex -0.5202724605498613 17.503923283884767 0.1886278655229935
    vertex -0.5198739185292491 17.505926889924257 0.31802126278128273
    vertex -0.5216458459840891 17.497018809053365 0.24951253735731294
  endloop
endfacet
facet normal 0.9807852804032305 -0.195090322016128 -1.3649555108139968e-16
  outer loop
    vertex -0.5216458459840891 17.497018809053365 0.24951253735731294
    vertex -0.5198739185292491 17.505926889924257 0.31802126278128273
    vertex -0.5217348678379349 17.496571265971863 0.25345903789708035
  endloop
endfacet
endsolid Chandelier1ArrangedForPrint
