solid "Chandelier1StrandEnd-x1"
  facet normal -0.806725680828 1.15634489505e-016 0.590926110744
    outer loop
      vertex -16.0618667603 2.64628079094e-006 15.3612155914
      vertex -19.4903469086 3.17500543594 10.6806945801
      vertex -19.4903469086 2.64628079094e-006 10.6806945801
    endloop
  endfacet
  facet normal -0.806725680828 1.1563447627e-016 0.590926110744
    outer loop
      vertex -19.4903469086 3.17500543594 10.6806945801
      vertex -16.0618667603 2.64628079094e-006 15.3612155914
      vertex -16.0618667603 3.17500591278 15.3612155914
    endloop
  endfacet
  facet normal 0.932180941105 0 -0.361992657185
    outer loop
      vertex 21.5905952454 3.17500424385 -5.27226305008
      vertex 19.4903488159 6.59704767259e-007 -10.6806869507
      vertex 19.4903488159 3.17500400543 -10.6806869507
    endloop
  endfacet
  facet normal 0.932180941105 0 -0.361992657185
    outer loop
      vertex 19.4903488159 6.59704767259e-007 -10.6806869507
      vertex 21.5905952454 3.17500424385 -5.27226305008
      vertex 21.5905952454 1.32189677515e-006 -5.27226305008
    endloop
  endfacet
  facet normal 0.626295387745 0 -0.779585838318
    outer loop
      vertex 16.0618667603 6.59704767259e-007 -15.3612089157
      vertex 11.5387964249 3.17500376701 -18.9949054718
      vertex 16.0618667603 3.17500376701 -15.3612089157
    endloop
  endfacet
  facet normal 0.626295387745 0 -0.779585838318
    outer loop
      vertex 11.5387964249 3.17500376701 -18.9949054718
      vertex 16.0618667603 6.59704767259e-007 -15.3612089157
      vertex 11.5387964249 -2.48722287211e-009 -18.9949054718
    endloop
  endfacet
  facet normal -0.994108080864 0 0.108393162489
    outer loop
      vertex -21.590593338 1.98408883989e-006 5.27227067947
      vertex -22.2194766998 3.17500472069 -0.495421886444
      vertex -22.2194766998 1.32189677515e-006 -0.495421886444
    endloop
  endfacet
  facet normal -0.994108080864 0 0.108393162489
    outer loop
      vertex -22.2194766998 3.17500472069 -0.495421886444
      vertex -21.590593338 1.98408883989e-006 5.27227067947
      vertex -21.590593338 3.17500495911 5.27227067947
    endloop
  endfacet
  facet normal -0.626295387745 0 0.779585838318
    outer loop
      vertex -16.0618667603 2.64628079094e-006 15.3612155914
      vertex -11.5387964249 3.17500591278 18.9949131012
      vertex -16.0618667603 3.17500591278 15.3612155914
    endloop
  endfacet
  facet normal -0.626295387745 0 0.779585838318
    outer loop
      vertex -11.5387964249 3.17500591278 18.9949131012
      vertex -16.0618667603 2.64628079094e-006 15.3612155914
      vertex -11.5387964249 3.30847274199e-006 18.9949131012
    endloop
  endfacet
  facet normal -0.590924918652 0 -0.806726515293
    outer loop
      vertex -10.6806821823 -2.48722287211e-009 -19.4903411865
      vertex -15.3612194061 3.17500376701 -16.0618610382
      vertex -10.6806821823 3.17500376701 -19.4903411865
    endloop
  endfacet
  facet normal -0.590924918652 -0 -0.806726515293
    outer loop
      vertex -15.3612194061 3.17500376701 -16.0618610382
      vertex -10.6806821823 -2.48722287211e-009 -19.4903411865
      vertex -15.3612194061 6.59704767259e-007 -16.0618610382
    endloop
  endfacet
  facet normal 0.779585778713 -1.15634661558e-016 0.626295506954
    outer loop
      vertex 15.3612194061 3.17500591278 16.0618686676
      vertex 18.9949150085 2.64628079094e-006 11.5388002396
      vertex 18.9949150085 3.17500567436 11.5388002396
    endloop
  endfacet
  facet normal 0.779585778713 0 0.626295506954
    outer loop
      vertex 18.9949150085 2.64628079094e-006 11.5388002396
      vertex 15.3612194061 3.17500591278 16.0618686676
      vertex 15.3612194061 2.64628079094e-006 16.0618686676
    endloop
  endfacet
  facet normal 0.152594223619 0 -0.988288938999
    outer loop
      vertex 6.2293753624 -2.48722287211e-009 -21.3341388702
      vertex 0.495432198048 3.17500305176 -22.2194728851
      vertex 6.2293753624 3.17500305176 -21.3341388702
    endloop
  endfacet
  facet normal 0.152594223619 0 -0.988288938999
    outer loop
      vertex 0.495432198048 3.17500305176 -22.2194728851
      vertex 6.2293753624 -2.48722287211e-009 -21.3341388702
      vertex 0.495432198048 -2.48722287211e-009 -22.2194728851
    endloop
  endfacet
  facet normal -0.988288879395 5.78173903361e-017 -0.152594566345
    outer loop
      vertex -22.2194766998 1.32189677515e-006 -0.495421886444
      vertex -21.3341388702 3.17500424385 -6.22936916351
      vertex -21.3341388702 1.32189677515e-006 -6.22936916351
    endloop
  endfacet
  facet normal -0.988288879395 5.78173837186e-017 -0.152594566345
    outer loop
      vertex -21.3341388702 3.17500424385 -6.22936916351
      vertex -22.2194766998 1.32189677515e-006 -0.495421886444
      vertex -22.2194766998 3.17500472069 -0.495421886444
    endloop
  endfacet
  facet normal -0.15259423852 0 0.988288938999
    outer loop
      vertex -6.22937440872 3.30847274199e-006 21.3341464996
      vertex -0.495431810617 3.17500638962 22.2194805145
      vertex -6.22937440872 3.17500638962 21.3341464996
    endloop
  endfacet
  facet normal -0.15259423852 0 0.988288938999
    outer loop
      vertex -0.495431810617 3.17500638962 22.2194805145
      vertex -6.22937440872 3.30847274199e-006 21.3341464996
      vertex -0.495431810617 3.30847274199e-006 22.2194805145
    endloop
  endfacet
  facet normal -0.108392469585 0 -0.994108200073
    outer loop
      vertex 0.495432198048 -2.48722287211e-009 -22.2194728851
      vertex -5.27227306366 3.17500305176 -21.5905914307
      vertex 0.495432198048 3.17500305176 -22.2194728851
    endloop
  endfacet
  facet normal -0.108392469585 -0 -0.994108200073
    outer loop
      vertex -5.27227306366 3.17500305176 -21.5905914307
      vertex 0.495432198048 -2.48722287211e-009 -22.2194728851
      vertex -5.27227306366 -2.48722287211e-009 -21.5905914307
    endloop
  endfacet
  facet normal 0.806725502014 0 -0.590926408768
    outer loop
      vertex 19.4903488159 3.17500400543 -10.6806869507
      vertex 16.0618667603 6.59704767259e-007 -15.3612089157
      vertex 16.0618667603 3.17500376701 -15.3612089157
    endloop
  endfacet
  facet normal 0.806725502014 0 -0.590926408768
    outer loop
      vertex 16.0618667603 6.59704767259e-007 -15.3612089157
      vertex 19.4903488159 3.17500400543 -10.6806869507
      vertex 19.4903488159 6.59704767259e-007 -10.6806869507
    endloop
  endfacet
  facet normal -0.779585659504 1.15634674793e-016 -0.626295626163
    outer loop
      vertex -18.9949150085 6.59704767259e-007 -11.5387926102
      vertex -15.3612194061 3.17500376701 -16.0618610382
      vertex -15.3612194061 6.59704767259e-007 -16.0618610382
    endloop
  endfacet
  facet normal -0.779585659504 1.15634674793e-016 -0.626295626163
    outer loop
      vertex -15.3612194061 3.17500376701 -16.0618610382
      vertex -18.9949150085 6.59704767259e-007 -11.5387926102
      vertex -18.9949150085 3.17500376701 -11.5387926102
    endloop
  endfacet
  facet normal 0.108392477036 -0 0.994108200073
    outer loop
      vertex -0.495431810617 3.30847274199e-006 22.2194805145
      vertex 5.2722735405 3.17500638962 21.5905990601
      vertex -0.495431810617 3.17500638962 22.2194805145
    endloop
  endfacet
  facet normal 0.108392477036 0 0.994108200073
    outer loop
      vertex 5.2722735405 3.17500638962 21.5905990601
      vertex -0.495431810617 3.30847274199e-006 22.2194805145
      vertex 5.2722735405 3.30847274199e-006 21.5905990601
    endloop
  endfacet
  facet normal 0.361994117498 -0 0.932180404663
    outer loop
      vertex 5.2722735405 3.30847274199e-006 21.5905990601
      vertex 10.6806821823 3.17500591278 19.4903488159
      vertex 5.2722735405 3.17500638962 21.5905990601
    endloop
  endfacet
  facet normal 0.361994117498 0 0.932180404663
    outer loop
      vertex 10.6806821823 3.17500591278 19.4903488159
      vertex 5.2722735405 3.30847274199e-006 21.5905990601
      vertex 10.6806821823 3.30847274199e-006 19.4903488159
    endloop
  endfacet
  facet normal 0.403184473515 0 -0.915118694305
    outer loop
      vertex 11.5387964249 -2.48722287211e-009 -18.9949054718
      vertex 6.2293753624 3.17500305176 -21.3341388702
      vertex 11.5387964249 3.17500376701 -18.9949054718
    endloop
  endfacet
  facet normal 0.403184473515 0 -0.915118694305
    outer loop
      vertex 6.2293753624 3.17500305176 -21.3341388702
      vertex 11.5387964249 -2.48722287211e-009 -18.9949054718
      vertex 6.2293753624 -2.48722287211e-009 -21.3341388702
    endloop
  endfacet
  facet normal 0.590924918652 -0 0.806726515293
    outer loop
      vertex 10.6806821823 3.30847274199e-006 19.4903488159
      vertex 15.3612194061 3.17500591278 16.0618686676
      vertex 10.6806821823 3.17500591278 19.4903488159
    endloop
  endfacet
  facet normal 0.590924918652 0 0.806726515293
    outer loop
      vertex 15.3612194061 3.17500591278 16.0618686676
      vertex 10.6806821823 3.30847274199e-006 19.4903488159
      vertex 15.3612194061 2.64628079094e-006 16.0618686676
    endloop
  endfacet
  facet normal -0.403184354305 0 0.91511875391
    outer loop
      vertex -11.5387964249 3.30847274199e-006 18.9949131012
      vertex -6.22937440872 3.17500638962 21.3341464996
      vertex -11.5387964249 3.17500591278 18.9949131012
    endloop
  endfacet
  facet normal -0.403184354305 0 0.91511875391
    outer loop
      vertex -6.22937440872 3.17500638962 21.3341464996
      vertex -11.5387964249 3.30847274199e-006 18.9949131012
      vertex -6.22937440872 3.30847274199e-006 21.3341464996
    endloop
  endfacet
  facet normal 0.915119290352 0 0.40318313241
    outer loop
      vertex 18.9949150085 3.17500567436 11.5388002396
      vertex 21.3341407776 1.98408883989e-006 6.22937631607
      vertex 21.3341407776 3.17500495911 6.22937631607
    endloop
  endfacet
  facet normal 0.915119290352 0 0.40318313241
    outer loop
      vertex 21.3341407776 1.98408883989e-006 6.22937631607
      vertex 18.9949150085 3.17500567436 11.5388002396
      vertex 18.9949150085 2.64628079094e-006 11.5388002396
    endloop
  endfacet
  facet normal 0.988288879395 5.78173969535e-017 0.152594566345
    outer loop
      vertex 21.3341407776 3.17500495911 6.22937631607
      vertex 22.2194766998 1.98408883989e-006 0.495429247618
      vertex 22.2194766998 3.17500472069 0.495429247618
    endloop
  endfacet
  facet normal 0.988288879395 5.78173903361e-017 0.152594566345
    outer loop
      vertex 22.2194766998 1.98408883989e-006 0.495429247618
      vertex 21.3341407776 3.17500495911 6.22937631607
      vertex 21.3341407776 1.98408883989e-006 6.22937631607
    endloop
  endfacet
  facet normal -0.361994147301 0 -0.932180345058
    outer loop
      vertex -5.27227306366 -2.48722287211e-009 -21.5905914307
      vertex -10.6806821823 3.17500376701 -19.4903411865
      vertex -5.27227306366 3.17500305176 -21.5905914307
    endloop
  endfacet
  facet normal -0.361994147301 -0 -0.932180345058
    outer loop
      vertex -10.6806821823 3.17500376701 -19.4903411865
      vertex -5.27227306366 -2.48722287211e-009 -21.5905914307
      vertex -10.6806821823 -2.48722287211e-009 -19.4903411865
    endloop
  endfacet
  facet normal 1.28242638731e-009 1 -5.75451117868e-008
    outer loop
      vertex -21.590593338 3.17500495911 5.27227067947
      vertex -21.3341388702 3.17500424385 -6.22936916351
      vertex -22.2194766998 3.17500472069 -0.495421886444
    endloop
  endfacet
  facet normal -8.87636897318e-009 1 -5.77716221528e-008
    outer loop
      vertex -21.3341388702 3.17500424385 -6.22936916351
      vertex -21.590593338 3.17500495911 5.27227067947
      vertex -19.4903469086 3.17500543594 10.6806945801
    endloop
  endfacet
  facet normal 1.20048923691e-007 1 -7.18290209534e-008
    outer loop
      vertex -21.3341388702 3.17500424385 -6.22936916351
      vertex -19.4903469086 3.17500543594 10.6806945801
      vertex -18.9949150085 3.17500376701 -11.5387926102
    endloop
  endfacet
  facet normal -8.87291875529e-008 1 -7.64841772138e-008
    outer loop
      vertex -18.9949150085 3.17500376701 -11.5387926102
      vertex -19.4903469086 3.17500543594 10.6806945801
      vertex -16.0618667603 3.17500591278 15.3612155914
    endloop
  endfacet
  facet normal -9.44304048289e-008 1 -7.58625446906e-008
    outer loop
      vertex -18.9949150085 3.17500376701 -11.5387926102
      vertex -16.0618667603 3.17500591278 15.3612155914
      vertex -15.3612194061 3.17500376701 -16.0618610382
    endloop
  endfacet
  facet normal 5.82113841574e-008 1 -7.24590520917e-008
    outer loop
      vertex -15.3612194061 3.17500376701 -16.0618610382
      vertex -16.0618667603 3.17500591278 15.3612155914
      vertex -11.5387964249 3.17500591278 18.9949131012
    endloop
  endfacet
  facet normal -4.48451373813e-008 1 -6.12222592622e-008
    outer loop
      vertex -15.3612194061 3.17500376701 -16.0618610382
      vertex -11.5387964249 3.17500591278 18.9949131012
      vertex -10.6806821823 3.17500376701 -19.4903411865
    endloop
  endfacet
  facet normal -3.54786990897e-008 1 -6.10134165413e-008
    outer loop
      vertex -10.6806821823 3.17500376701 -19.4903411865
      vertex -11.5387964249 3.17500591278 18.9949131012
      vertex -6.22937440872 3.17500638962 21.3341464996
    endloop
  endfacet
  facet normal 1.22999253449e-007 1 -7.82930982268e-008
    outer loop
      vertex -10.6806821823 3.17500376701 -19.4903411865
      vertex -6.22937440872 3.17500638962 21.3341464996
      vertex -6.34999990463 3.17500472069 -6.90641445544e-006
    endloop
  endfacet
  facet normal 6.15864109932e-007 1 -8.10798042039e-008
    outer loop
      vertex -6.34999990463 3.17500472069 -6.90641445544e-006
      vertex -6.22937440872 3.17500638962 21.3341464996
      vertex -6.13362884521 3.17500472069 1.64350068569
    endloop
  endfacet
  facet normal 1.29715616026e-008 1 -8.40113685285e-008
    outer loop
      vertex -6.13362884521 3.17500472069 1.64350068569
      vertex -6.22937440872 3.17500638962 21.3341464996
      vertex -0.495431810617 3.17500638962 22.2194805145
    endloop
  endfacet
  facet normal -9.68177232608e-007 1 1.84841439932e-007
    outer loop
      vertex -6.13362884521 3.17500472069 1.64350068569
      vertex -0.495431810617 3.17500638962 22.2194805145
      vertex -5.49926137924 3.17500495911 3.17499709129
    endloop
  endfacet
  facet normal 1.37822766533e-007 1 -1.05753755975e-007
    outer loop
      vertex -5.49926137924 3.17500495911 3.17499709129
      vertex -0.495431810617 3.17500638962 22.2194805145
      vertex -4.49012804031 3.17500495911 4.49014234543
    endloop
  endfacet
  facet normal 6.92995811846e-008 1 -9.03144155018e-008
    outer loop
      vertex -4.49012804031 3.17500495911 4.49014234543
      vertex -0.495431810617 3.17500638962 22.2194805145
      vertex -3.17500019073 3.17500495911 5.49925947189
    endloop
  endfacet
  facet normal 3.51421149958e-008 1 -8.48403658438e-008
    outer loop
      vertex -3.17500019073 3.17500495911 5.49925947189
      vertex -0.495431810617 3.17500638962 22.2194805145
      vertex -1.64350068569 3.17500495911 6.13362884521
    endloop
  endfacet
  facet normal 1.09421369743e-008 1 -8.31131856671e-008
    outer loop
      vertex -1.64350068569 3.17500495911 6.13362884521
      vertex -0.495431810617 3.17500638962 22.2194805145
      vertex 1.68624609387e-007 3.17500495911 6.35000133514
    endloop
  endfacet
  facet normal -9.13056386054e-009 1 -8.37398346221e-008
    outer loop
      vertex 1.68624609387e-007 3.17500495911 6.35000133514
      vertex -0.495431810617 3.17500638962 22.2194805145
      vertex 5.2722735405 3.17500638962 21.5905990601
    endloop
  endfacet
  facet normal -1.09421316452e-008 1 -8.311315014e-008
    outer loop
      vertex 1.68624609387e-007 3.17500495911 6.35000133514
      vertex 5.2722735405 3.17500638962 21.5905990601
      vertex 1.64350116253 3.17500495911 6.13362884521
    endloop
  endfacet
  facet normal -3.23453619444e-008 1 -7.80883979701e-008
    outer loop
      vertex 1.64350116253 3.17500495911 6.13362884521
      vertex 5.2722735405 3.17500638962 21.5905990601
      vertex 3.17499995232 3.17500495911 5.49925947189
    endloop
  endfacet
  facet normal -5.74115510688e-008 1 -7.48213793145e-008
    outer loop
      vertex 3.17499995232 3.17500495911 5.49925947189
      vertex 5.2722735405 3.17500638962 21.5905990601
      vertex 4.49012804031 3.17500495911 4.49014234543
    endloop
  endfacet
  facet normal -9.52546344024e-008 1 -7.30905043156e-008
    outer loop
      vertex 4.49012804031 3.17500495911 4.49014234543
      vertex 5.2722735405 3.17500638962 21.5905990601
      vertex 5.49926137924 3.17500495911 3.17499709129
    endloop
  endfacet
  facet normal 3.34515171119e-008 1 -7.15040897603e-008
    outer loop
      vertex 5.49926137924 3.17500495911 3.17499709129
      vertex 5.2722735405 3.17500638962 21.5905990601
      vertex 10.6806821823 3.17500591278 19.4903488159
    endloop
  endfacet
  facet normal 2.12232535546e-007 1 -1.28281286038e-007
    outer loop
      vertex 5.49926137924 3.17500495911 3.17499709129
      vertex 10.6806821823 3.17500591278 19.4903488159
      vertex 6.13362979889 3.17500472069 1.64350068569
    endloop
  endfacet
  facet normal -1.92033766666e-007 1 -2.52815723911e-008
    outer loop
      vertex 6.13362979889 3.17500472069 1.64350068569
      vertex 10.6806821823 3.17500591278 19.4903488159
      vertex 6.35000038147 3.17500472069 -6.90641445544e-006
    endloop
  endfacet
  facet normal 9.44935223401e-008 1 -7.19592279097e-008
    outer loop
      vertex -6.34999990463 3.17500472069 -6.90641445544e-006
      vertex -5.27227306366 3.17500305176 -21.5905914307
      vertex -10.6806821823 3.17500376701 -19.4903411865
    endloop
  endfacet
  facet normal -9.38078756008e-007 1 -1.23501635585e-007
    outer loop
      vertex -5.27227306366 3.17500305176 -21.5905914307
      vertex -6.34999990463 3.17500472069 -6.90641445544e-006
      vertex -6.13362884521 3.17500472069 -1.64349329472
    endloop
  endfacet
  facet normal 3.58992252814e-007 1 -6.74915199284e-008
    outer loop
      vertex -5.27227306366 3.17500305176 -21.5905914307
      vertex -6.13362884521 3.17500472069 -1.64349329472
      vertex -5.49926137924 3.17500424385 -3.17498970032
    endloop
  endfacet
  facet normal -9.52546344024e-008 1 -7.30905043156e-008
    outer loop
      vertex -5.27227306366 3.17500305176 -21.5905914307
      vertex -5.49926137924 3.17500424385 -3.17498970032
      vertex -4.49012804031 3.17500424385 -4.49013471603
    endloop
  endfacet
  facet normal -8.40255243162e-009 1 -7.70629711155e-008
    outer loop
      vertex -5.27227306366 3.17500305176 -21.5905914307
      vertex -4.49012804031 3.17500424385 -4.49013471603
      vertex 0.495432198048 3.17500305176 -22.2194728851
    endloop
  endfacet
  facet normal -7.3089097441e-008 1 -9.52530854192e-008
    outer loop
      vertex 0.495432198048 3.17500305176 -22.2194728851
      vertex -4.49012804031 3.17500424385 -4.49013471603
      vertex -3.17500019073 3.17500424385 -5.4992518425
    endloop
  endfacet
  facet normal -3.60910306085e-008 1 -8.71312479944e-008
    outer loop
      vertex 0.495432198048 3.17500305176 -22.2194728851
      vertex -3.17500019073 3.17500424385 -5.4992518425
      vertex -1.64350068569 3.17500424385 -6.13362121582
    endloop
  endfacet
  facet normal -1.10324558378e-008 1 -8.37992146785e-008
    outer loop
      vertex 0.495432198048 3.17500305176 -22.2194728851
      vertex -1.64350068569 3.17500424385 -6.13362121582
      vertex 1.68624609387e-007 3.17500424385 -6.34999370575
    endloop
  endfacet
  facet normal 1.09421360861e-008 1 -8.31131856671e-008
    outer loop
      vertex 0.495432198048 3.17500305176 -22.2194728851
      vertex 1.68624609387e-007 3.17500424385 -6.34999370575
      vertex 1.64350116253 3.17500424385 -6.13362121582
    endloop
  endfacet
  facet normal 1.28539463518e-008 1 -8.32496311887e-008
    outer loop
      vertex 0.495432198048 3.17500305176 -22.2194728851
      vertex 1.64350116253 3.17500424385 -6.13362121582
      vertex 6.2293753624 3.17500305176 -21.3341388702
    endloop
  endfacet
  facet normal 3.20805639831e-008 1 -7.74491155653e-008
    outer loop
      vertex 6.2293753624 3.17500305176 -21.3341388702
      vertex 1.64350116253 3.17500424385 -6.13362121582
      vertex 3.17499995232 3.17500424385 -5.4992518425
    endloop
  endfacet
  facet normal 5.59021060553e-008 1 -7.2854199118e-008
    outer loop
      vertex 6.2293753624 3.17500305176 -21.3341388702
      vertex 3.17499995232 3.17500424385 -5.4992518425
      vertex 4.49012804031 3.17500424385 -4.49013471603
    endloop
  endfacet
  facet normal 9.03157086896e-008 1 -6.93007820018e-008
    outer loop
      vertex 6.2293753624 3.17500305176 -21.3341388702
      vertex 4.49012804031 3.17500424385 -4.49013471603
      vertex 5.49926137924 3.17500424385 -3.17498970032
    endloop
  endfacet
  facet normal -3.15256130534e-007 1 -8.56073754107e-008
    outer loop
      vertex 6.2293753624 3.17500305176 -21.3341388702
      vertex 5.49926137924 3.17500424385 -3.17498970032
      vertex 6.13362979889 3.17500472069 -1.64349329472
    endloop
  endfacet
  facet normal 6.1585825506e-007 1 -8.10798326256e-008
    outer loop
      vertex 6.2293753624 3.17500305176 -21.3341388702
      vertex 6.13362979889 3.17500472069 -1.64349329472
      vertex 6.35000038147 3.17500472069 -6.90641445544e-006
    endloop
  endfacet
  facet normal -9.07581636511e-008 1 -7.70845716147e-008
    outer loop
      vertex 6.2293753624 3.17500305176 -21.3341388702
      vertex 6.35000038147 3.17500472069 -6.90641445544e-006
      vertex 11.5387964249 3.17500376701 -18.9949054718
    endloop
  endfacet
  facet normal -3.16098436315e-008 1 -6.09271495478e-008
    outer loop
      vertex 11.5387964249 3.17500376701 -18.9949054718
      vertex 6.35000038147 3.17500472069 -6.90641445544e-006
      vertex 10.6806821823 3.17500591278 19.4903488159
    endloop
  endfacet
  facet normal -4.48451338286e-008 1 -6.12222592622e-008
    outer loop
      vertex 11.5387964249 3.17500376701 -18.9949054718
      vertex 10.6806821823 3.17500591278 19.4903488159
      vertex 15.3612194061 3.17500591278 16.0618686676
    endloop
  endfacet
  facet normal 5.82113841574e-008 1 -7.24590520917e-008
    outer loop
      vertex 11.5387964249 3.17500376701 -18.9949054718
      vertex 15.3612194061 3.17500591278 16.0618686676
      vertex 16.0618667603 3.17500376701 -15.3612089157
    endloop
  endfacet
  facet normal -7.110277922e-010 1 -7.3772859821e-008
    outer loop
      vertex 16.0618667603 3.17500376701 -15.3612089157
      vertex 15.3612194061 3.17500591278 16.0618686676
      vertex 18.9949150085 3.17500567436 11.5388002396
    endloop
  endfacet
  facet normal 4.9902708632e-009 1 -7.43944994497e-008
    outer loop
      vertex 16.0618667603 3.17500376701 -15.3612089157
      vertex 18.9949150085 3.17500567436 11.5388002396
      vertex 19.4903488159 3.17500400543 -10.6806869507
    endloop
  endfacet
  facet normal 1.20048881058e-007 1 -7.18290067425e-008
    outer loop
      vertex 19.4903488159 3.17500400543 -10.6806869507
      vertex 18.9949150085 3.17500567436 11.5388002396
      vertex 21.3341407776 3.17500495911 6.22937631607
    endloop
  endfacet
  facet normal -8.87636630864e-009 1 -5.77716257055e-008
    outer loop
      vertex 19.4903488159 3.17500400543 -10.6806869507
      vertex 21.3341407776 3.17500495911 6.22937631607
      vertex 21.5905952454 3.17500424385 -5.27226305008
    endloop
  endfacet
  facet normal 1.28242749753e-009 1 -5.75451117868e-008
    outer loop
      vertex 21.5905952454 3.17500424385 -5.27226305008
      vertex 21.3341407776 3.17500495911 6.22937631607
      vertex 22.2194766998 3.17500472069 0.495429247618
    endloop
  endfacet
  facet normal -0.932180941105 -1.15634926256e-016 0.361992657185
    outer loop
      vertex -19.4903469086 2.64628079094e-006 10.6806945801
      vertex -21.590593338 3.17500495911 5.27227067947
      vertex -21.590593338 1.98408883989e-006 5.27227067947
    endloop
  endfacet
  facet normal -0.932180941105 0 0.361992657185
    outer loop
      vertex -21.590593338 3.17500495911 5.27227067947
      vertex -19.4903469086 2.64628079094e-006 10.6806945801
      vertex -19.4903469086 3.17500543594 10.6806945801
    endloop
  endfacet
  facet normal -0.915119409561 0 -0.403182923794
    outer loop
      vertex -21.3341388702 1.32189677515e-006 -6.22936916351
      vertex -18.9949150085 3.17500376701 -11.5387926102
      vertex -18.9949150085 6.59704767259e-007 -11.5387926102
    endloop
  endfacet
  facet normal -0.915119409561 0 -0.403182923794
    outer loop
      vertex -18.9949150085 3.17500376701 -11.5387926102
      vertex -21.3341388702 1.32189677515e-006 -6.22936916351
      vertex -21.3341388702 3.17500424385 -6.22936916351
    endloop
  endfacet
  facet normal 0.994108140469 0 -0.108392938972
    outer loop
      vertex 22.2194766998 3.17500472069 0.495429247618
      vertex 21.5905952454 1.32189677515e-006 -5.27226305008
      vertex 21.5905952454 3.17500424385 -5.27226305008
    endloop
  endfacet
  facet normal 0.994108140469 -2.89086323023e-017 -0.108392938972
    outer loop
      vertex 21.5905952454 1.32189677515e-006 -5.27226305008
      vertex 22.2194766998 3.17500472069 0.495429247618
      vertex 22.2194766998 1.98408883989e-006 0.495429247618
    endloop
  endfacet
  facet normal 4.35815621813e-007 -1 6.72911468769e-008
    outer loop
      vertex -21.3341388702 1.32189677515e-006 -6.22936916351
      vertex -21.590593338 1.98408883989e-006 5.27227067947
      vertex -22.2194766998 1.32189677515e-006 -0.495421886444
    endloop
  endfacet
  facet normal 1.57962375624e-007 -1 6.10958181824e-008
    outer loop
      vertex -21.590593338 1.98408883989e-006 5.27227067947
      vertex -21.3341388702 1.32189677515e-006 -6.22936916351
      vertex -19.4903469086 2.64628079094e-006 10.6806945801
    endloop
  endfacet
  facet normal -8.44243004394e-008 -1 8.7524504977e-008
    outer loop
      vertex -19.4903469086 2.64628079094e-006 10.6806945801
      vertex -21.3341388702 1.32189677515e-006 -6.22936916351
      vertex -18.9949150085 6.59704767259e-007 -11.5387926102
    endloop
  endfacet
  facet normal -1.1845168757e-007 -1 8.67657945491e-008
    outer loop
      vertex -19.4903469086 2.64628079094e-006 10.6806945801
      vertex -18.9949150085 6.59704767259e-007 -11.5387926102
      vertex -16.0618667603 2.64628079094e-006 15.3612155914
    endloop
  endfacet
  facet normal 8.09403530866e-008 -1 6.5025034246e-008
    outer loop
      vertex -16.0618667603 2.64628079094e-006 15.3612155914
      vertex -18.9949150085 6.59704767259e-007 -11.5387926102
      vertex -15.3612194061 6.59704767259e-007 -16.0618610382
    endloop
  endfacet
  facet normal 9.39313622439e-008 -1 6.53147012031e-008
    outer loop
      vertex -16.0618667603 2.64628079094e-006 15.3612155914
      vertex -15.3612194061 6.59704767259e-007 -16.0618610382
      vertex -11.5387964249 3.30847274199e-006 18.9949131012
    endloop
  endfacet
  facet normal -7.97623727067e-008 -1 8.42534362278e-008
    outer loop
      vertex -11.5387964249 3.30847274199e-006 18.9949131012
      vertex -15.3612194061 6.59704767259e-007 -16.0618610382
      vertex -10.6806821823 -2.48722287211e-009 -19.4903411865
    endloop
  endfacet
  facet normal -3.75353259585e-008 -1 8.51949764069e-008
    outer loop
      vertex -11.5387964249 3.30847274199e-006 18.9949131012
      vertex -10.6806821823 -2.48722287211e-009 -19.4903411865
      vertex -6.22937440872 3.30847274199e-006 21.3341464996
    endloop
  endfacet
  facet normal 3.02151441645e-008 -1 7.78077904329e-008
    outer loop
      vertex -6.22937440872 3.30847274199e-006 21.3341464996
      vertex -10.6806821823 -2.48722287211e-009 -19.4903411865
      vertex -5.27227306366 -2.48722287211e-009 -21.5905914307
    endloop
  endfacet
  facet normal -1.18688294748e-008 -1 7.68694334852e-008
    outer loop
      vertex -6.22937440872 3.30847274199e-006 21.3341464996
      vertex -5.27227306366 -2.48722287211e-009 -21.5905914307
      vertex -0.495431810617 3.30847274199e-006 22.2194805145
    endloop
  endfacet
  facet normal 8.14353029455e-009 -1 7.46873851654e-008
    outer loop
      vertex -0.495431810617 3.30847274199e-006 22.2194805145
      vertex -5.27227306366 -2.48722287211e-009 -21.5905914307
      vertex 0.495432198048 -2.48722287211e-009 -22.2194728851
    endloop
  endfacet
  facet normal 8.14353029455e-009 -1 7.46873851654e-008
    outer loop
      vertex -0.495431810617 3.30847274199e-006 22.2194805145
      vertex 0.495432198048 -2.48722287211e-009 -22.2194728851
      vertex 5.2722735405 3.30847274199e-006 21.5905990601
    endloop
  endfacet
  facet normal -1.18688285866e-008 -1 7.68694334852e-008
    outer loop
      vertex 5.2722735405 3.30847274199e-006 21.5905990601
      vertex 0.495432198048 -2.48722287211e-009 -22.2194728851
      vertex 6.2293753624 -2.48722287211e-009 -21.3341388702
    endloop
  endfacet
  facet normal 3.02151441645e-008 -1 7.78077904329e-008
    outer loop
      vertex 5.2722735405 3.30847274199e-006 21.5905990601
      vertex 6.2293753624 -2.48722287211e-009 -21.3341388702
      vertex 10.6806821823 3.30847274199e-006 19.4903488159
    endloop
  endfacet
  facet normal -3.75353401694e-008 -1 8.51949835123e-008
    outer loop
      vertex 10.6806821823 3.30847274199e-006 19.4903488159
      vertex 6.2293753624 -2.48722287211e-009 -21.3341388702
      vertex 11.5387964249 -2.48722287211e-009 -18.9949054718
    endloop
  endfacet
  facet normal -7.97623656013e-008 -1 8.42534362278e-008
    outer loop
      vertex 10.6806821823 3.30847274199e-006 19.4903488159
      vertex 11.5387964249 -2.48722287211e-009 -18.9949054718
      vertex 15.3612194061 2.64628079094e-006 16.0618686676
    endloop
  endfacet
  facet normal 9.39313693493e-008 -1 6.53146940977e-008
    outer loop
      vertex 15.3612194061 2.64628079094e-006 16.0618686676
      vertex 11.5387964249 -2.48722287211e-009 -18.9949054718
      vertex 16.0618667603 6.59704767259e-007 -15.3612089157
    endloop
  endfacet
  facet normal 8.09403744029e-008 -1 6.5025034246e-008
    outer loop
      vertex 15.3612194061 2.64628079094e-006 16.0618686676
      vertex 16.0618667603 6.59704767259e-007 -15.3612089157
      vertex 18.9949150085 2.64628079094e-006 11.5388002396
    endloop
  endfacet
  facet normal -1.18451580988e-007 -1 8.67657803383e-008
    outer loop
      vertex 18.9949150085 2.64628079094e-006 11.5388002396
      vertex 16.0618667603 6.59704767259e-007 -15.3612089157
      vertex 19.4903488159 6.59704767259e-007 -10.6806869507
    endloop
  endfacet
  facet normal -8.44242720177e-008 -1 8.75244978715e-008
    outer loop
      vertex 18.9949150085 2.64628079094e-006 11.5388002396
      vertex 19.4903488159 6.59704767259e-007 -10.6806869507
      vertex 21.3341407776 1.98408883989e-006 6.22937631607
    endloop
  endfacet
  facet normal 1.57962318781e-007 -1 6.10958323932e-008
    outer loop
      vertex 21.3341407776 1.98408883989e-006 6.22937631607
      vertex 19.4903488159 6.59704767259e-007 -10.6806869507
      vertex 21.5905952454 1.32189677515e-006 -5.27226305008
    endloop
  endfacet
  facet normal 4.35815991295e-007 -1 6.72912108257e-008
    outer loop
      vertex 21.3341407776 1.98408883989e-006 6.22937631607
      vertex 21.5905952454 1.32189677515e-006 -5.27226305008
      vertex 22.2194766998 1.98408883989e-006 0.495429247618
    endloop
  endfacet
  facet normal 0.793357133865 0 -0.608756482601
    outer loop
      vertex 5.49926137924 9.52499485016 -3.17498970032
      vertex 4.49012804031 3.17500424385 -4.49013471603
      vertex 4.49012804031 9.52499485016 -4.49013471603
    endloop
  endfacet
  facet normal 0.793357133865 0 -0.608756482601
    outer loop
      vertex 4.49012804031 3.17500424385 -4.49013471603
      vertex 5.49926137924 9.52499485016 -3.17498970032
      vertex 5.49926137924 3.17500424385 -3.17498970032
    endloop
  endfacet
  facet normal -0.130527123809 0 -0.991444766521
    outer loop
      vertex 1.68624609387e-007 3.17500424385 -6.34999370575
      vertex -1.64350068569 9.52499485016 -6.13362121582
      vertex 1.68624609387e-007 9.52499485016 -6.34999370575
    endloop
  endfacet
  facet normal -0.130527123809 -0 -0.991444766521
    outer loop
      vertex -1.64350068569 9.52499485016 -6.13362121582
      vertex 1.68624609387e-007 3.17500424385 -6.34999370575
      vertex -1.64350068569 3.17500424385 -6.13362121582
    endloop
  endfacet
  facet normal 0.608755350113 0 -0.793358027935
    outer loop
      vertex 4.49012804031 3.17500424385 -4.49013471603
      vertex 3.17499995232 9.52499485016 -5.4992518425
      vertex 4.49012804031 9.52499485016 -4.49013471603
    endloop
  endfacet
  facet normal 0.608755350113 0 -0.793358027935
    outer loop
      vertex 3.17499995232 9.52499485016 -5.4992518425
      vertex 4.49012804031 3.17500424385 -4.49013471603
      vertex 3.17499995232 3.17500424385 -5.4992518425
    endloop
  endfacet
  facet normal -0.130526691675 0 0.991444766521
    outer loop
      vertex -5.75082349777 9.52499771118 21.4623680115
      vertex 1.68624609387e-007 12.6999998093 22.2194805145
      vertex -5.75082349777 12.6999998093 21.4623680115
    endloop
  endfacet
  facet normal -0.130526691675 0 0.991444766521
    outer loop
      vertex 1.68624609387e-007 12.6999998093 22.2194805145
      vertex -5.75082349777 9.52499771118 21.4623680115
      vertex 1.68624609387e-007 9.52499771118 22.2194805145
    endloop
  endfacet
  facet normal -0.382684201002 0 -0.923879206181
    outer loop
      vertex -1.64350068569 3.17500424385 -6.13362121582
      vertex -3.17500019073 9.52499485016 -5.4992518425
      vertex -1.64350068569 9.52499485016 -6.13362121582
    endloop
  endfacet
  facet normal -0.382684201002 -0 -0.923879206181
    outer loop
      vertex -3.17500019073 9.52499485016 -5.4992518425
      vertex -1.64350068569 3.17500424385 -6.13362121582
      vertex -3.17500019073 3.17500424385 -5.4992518425
    endloop
  endfacet
  facet normal -0.923879861832 0 0.382682681084
    outer loop
      vertex -19.2426319122 9.52499675751 11.1097421646
      vertex -21.4623661041 12.6999988556 5.75081825256
      vertex -21.4623661041 9.52499580383 5.75081825256
    endloop
  endfacet
  facet normal -0.923879861832 1.15612691641e-016 0.382682681084
    outer loop
      vertex -21.4623661041 12.6999988556 5.75081825256
      vertex -19.2426319122 9.52499675751 11.1097421646
      vertex -19.2426319122 12.6999998093 11.1097421646
    endloop
  endfacet
  facet normal 0.923879086971 0 -0.382684499025
    outer loop
      vertex 6.13362979889 9.52499580383 -1.64349329472
      vertex 5.49926137924 3.17500424385 -3.17498970032
      vertex 5.49926137924 9.52499485016 -3.17498970032
    endloop
  endfacet
  facet normal 0.923879086971 0 -0.382684499025
    outer loop
      vertex 5.49926137924 3.17500424385 -3.17498970032
      vertex 6.13362979889 9.52499580383 -1.64349329472
      vertex 6.13362979889 3.17500472069 -1.64349329472
    endloop
  endfacet
  facet normal -0.608755350113 0 -0.793358027935
    outer loop
      vertex -3.17500019073 3.17500424385 -5.4992518425
      vertex -4.49012804031 9.52499485016 -4.49013471603
      vertex -3.17500019073 9.52499485016 -5.4992518425
    endloop
  endfacet
  facet normal -0.608755350113 -0 -0.793358027935
    outer loop
      vertex -4.49012804031 9.52499485016 -4.49013471603
      vertex -3.17500019073 3.17500424385 -5.4992518425
      vertex -4.49012804031 3.17500424385 -4.49013471603
    endloop
  endfacet
  facet normal -0.793357133865 0 -0.608756482601
    outer loop
      vertex -5.49926137924 3.17500424385 -3.17498970032
      vertex -4.49012804031 9.52499485016 -4.49013471603
      vertex -4.49012804031 3.17500424385 -4.49013471603
    endloop
  endfacet
  facet normal -0.793357133865 0 -0.608756482601
    outer loop
      vertex -4.49012804031 9.52499485016 -4.49013471603
      vertex -5.49926137924 3.17500424385 -3.17498970032
      vertex -5.49926137924 9.52499485016 -3.17498970032
    endloop
  endfacet
  facet normal 0.130526691675 -0 0.991444766521
    outer loop
      vertex 1.68624609387e-007 9.52499771118 22.2194805145
      vertex 5.75082397461 12.6999998093 21.4623680115
      vertex 1.68624609387e-007 12.6999998093 22.2194805145
    endloop
  endfacet
  facet normal 0.130526691675 0 0.991444766521
    outer loop
      vertex 5.75082397461 12.6999998093 21.4623680115
      vertex 1.68624609387e-007 9.52499771118 22.2194805145
      vertex 5.75082397461 9.52499771118 21.4623680115
    endloop
  endfacet
  facet normal 0.3826828897 -0 0.923879742622
    outer loop
      vertex 5.75082397461 9.52499771118 21.4623680115
      vertex 11.1097383499 12.6999998093 19.2426357269
      vertex 5.75082397461 12.6999998093 21.4623680115
    endloop
  endfacet
  facet normal 0.3826828897 0 0.923879742622
    outer loop
      vertex 11.1097383499 12.6999998093 19.2426357269
      vertex 5.75082397461 9.52499771118 21.4623680115
      vertex 11.1097383499 9.52499675751 19.2426357269
    endloop
  endfacet
  facet normal 0.608761906624 -0 0.79335296154
    outer loop
      vertex 11.1097383499 9.52499675751 19.2426357269
      vertex 15.7115430832 12.6999998093 15.7115421295
      vertex 11.1097383499 12.6999998093 19.2426357269
    endloop
  endfacet
  facet normal 0.608761906624 0 0.79335296154
    outer loop
      vertex 15.7115430832 12.6999998093 15.7115421295
      vertex 11.1097383499 9.52499675751 19.2426357269
      vertex 15.7115430832 9.52499675751 15.7115421295
    endloop
  endfacet
  facet normal -0.382682859898 0 0.923879802227
    outer loop
      vertex -11.1097383499 9.52499675751 19.2426357269
      vertex -5.75082349777 12.6999998093 21.4623680115
      vertex -11.1097383499 12.6999998093 19.2426357269
    endloop
  endfacet
  facet normal -0.382682859898 0 0.923879802227
    outer loop
      vertex -5.75082349777 12.6999998093 21.4623680115
      vertex -11.1097383499 9.52499675751 19.2426357269
      vertex -5.75082349777 9.52499771118 21.4623680115
    endloop
  endfacet
  facet normal -0.608761847019 0 0.793353021145
    outer loop
      vertex -15.7115440369 9.52499675751 15.7115421295
      vertex -11.1097383499 12.6999998093 19.2426357269
      vertex -15.7115440369 12.6999998093 15.7115421295
    endloop
  endfacet
  facet normal -0.608761847019 0 0.793353021145
    outer loop
      vertex -11.1097383499 12.6999998093 19.2426357269
      vertex -15.7115440369 9.52499675751 15.7115421295
      vertex -11.1097383499 9.52499675751 19.2426357269
    endloop
  endfacet
  facet normal 0.79335308075 1.15612532822e-016 0.608761787415
    outer loop
      vertex 15.7115430832 12.6999998093 15.7115421295
      vertex 19.2426319122 9.52499675751 11.1097421646
      vertex 19.2426319122 12.6999998093 11.1097421646
    endloop
  endfacet
  facet normal 0.79335308075 1.15612532822e-016 0.608761787415
    outer loop
      vertex 19.2426319122 9.52499675751 11.1097421646
      vertex 15.7115430832 12.6999998093 15.7115421295
      vertex 15.7115430832 9.52499675751 15.7115421295
    endloop
  endfacet
  facet normal 0.793352425098 0 0.60876262188
    outer loop
      vertex 4.49012804031 9.52499580383 4.49012088776
      vertex 5.49926137924 3.17500495911 3.17499709129
      vertex 5.49926137924 9.52499580383 3.17499709129
    endloop
  endfacet
  facet normal 0.793357133865 2.03144190891e-006 0.608756482601
    outer loop
      vertex 5.49926137924 3.17500495911 3.17499709129
      vertex 4.49012804031 9.52499580383 4.49012088776
      vertex 4.49012804031 3.17500495911 4.49014234543
    endloop
  endfacet
  facet normal -0.79335308075 -1.15612532822e-016 0.608761787415
    outer loop
      vertex -15.7115440369 9.52499675751 15.7115421295
      vertex -19.2426319122 12.6999998093 11.1097421646
      vertex -19.2426319122 9.52499675751 11.1097421646
    endloop
  endfacet
  facet normal -0.79335308075 -1.15612532822e-016 0.608761787415
    outer loop
      vertex -19.2426319122 12.6999998093 11.1097421646
      vertex -15.7115440369 9.52499675751 15.7115421295
      vertex -15.7115440369 12.6999998093 15.7115421295
    endloop
  endfacet
  facet normal 0.923879086971 -1.43428684529e-017 0.382684499025
    outer loop
      vertex 5.49926137924 9.52499580383 3.17499709129
      vertex 6.13362979889 3.17500472069 1.64350068569
      vertex 6.13362979889 9.52499580383 1.64350068569
    endloop
  endfacet
  facet normal 0.923879086971 0 0.382684499025
    outer loop
      vertex 6.13362979889 3.17500472069 1.64350068569
      vertex 5.49926137924 9.52499580383 3.17499709129
      vertex 5.49926137924 3.17500495911 3.17499709129
    endloop
  endfacet
  facet normal 0.991444945335 -7.17143670797e-018 0.130525425076
    outer loop
      vertex 6.13362979889 9.52499580383 1.64350068569
      vertex 6.35000038147 3.17500472069 -6.90641445544e-006
      vertex 6.35000038147 9.52499580383 -6.90641445544e-006
    endloop
  endfacet
  facet normal 0.991444945335 -7.17143670797e-018 0.130525425076
    outer loop
      vertex 6.35000038147 3.17500472069 -6.90641445544e-006
      vertex 6.13362979889 9.52499580383 1.64350068569
      vertex 6.13362979889 3.17500472069 1.64350068569
    endloop
  endfacet
  facet normal 0.991444766521 0 -0.130527079105
    outer loop
      vertex 6.35000038147 9.52499580383 -6.90641445544e-006
      vertex 6.13362979889 3.17500472069 -1.64349329472
      vertex 6.13362979889 9.52499580383 -1.64349329472
    endloop
  endfacet
  facet normal 0.991444766521 0 -0.130527079105
    outer loop
      vertex 6.13362979889 3.17500472069 -1.64349329472
      vertex 6.35000038147 9.52499580383 -6.90641445544e-006
      vertex 6.35000038147 3.17500472069 -6.90641445544e-006
    endloop
  endfacet
  facet normal 0.382684350014 0 -0.923879146576
    outer loop
      vertex 3.17499995232 3.17500424385 -5.4992518425
      vertex 1.64350116253 9.52499485016 -6.13362121582
      vertex 3.17499995232 9.52499485016 -5.4992518425
    endloop
  endfacet
  facet normal 0.382684350014 0 -0.923879146576
    outer loop
      vertex 1.64350116253 9.52499485016 -6.13362121582
      vertex 3.17499995232 3.17500424385 -5.4992518425
      vertex 1.64350116253 3.17500424385 -6.13362121582
    endloop
  endfacet
  facet normal 0.130527108908 0 -0.991444766521
    outer loop
      vertex 1.64350116253 3.17500424385 -6.13362121582
      vertex 1.68624609387e-007 9.52499485016 -6.34999370575
      vertex 1.64350116253 9.52499485016 -6.13362121582
    endloop
  endfacet
  facet normal 0.130527108908 0 -0.991444766521
    outer loop
      vertex 1.68624609387e-007 9.52499485016 -6.34999370575
      vertex 1.64350116253 3.17500424385 -6.13362121582
      vertex 1.68624609387e-007 3.17500424385 -6.34999370575
    endloop
  endfacet
  facet normal -0.793357133865 0 0.608756482601
    outer loop
      vertex -4.49012804031 3.17500495911 4.49014234543
      vertex -5.49926137924 9.52499580383 3.17499709129
      vertex -5.49926137924 3.17500495911 3.17499709129
    endloop
  endfacet
  facet normal -0.793352425098 2.03146237254e-006 0.60876262188
    outer loop
      vertex -5.49926137924 9.52499580383 3.17499709129
      vertex -4.49012804031 3.17500495911 4.49014234543
      vertex -4.49012804031 9.52499580383 4.49012088776
    endloop
  endfacet
  facet normal -0.130527123809 0 0.991444766521
    outer loop
      vertex -1.64350068569 3.17500495911 6.13362884521
      vertex 1.68624609387e-007 9.52499580383 6.35000133514
      vertex -1.64350068569 9.52499580383 6.13362884521
    endloop
  endfacet
  facet normal -0.130527123809 0 0.991444766521
    outer loop
      vertex 1.68624609387e-007 9.52499580383 6.35000133514
      vertex -1.64350068569 3.17500495911 6.13362884521
      vertex 1.68624609387e-007 3.17500495911 6.35000133514
    endloop
  endfacet
  facet normal 0.382684350014 -0 0.923879146576
    outer loop
      vertex 1.64350116253 3.17500495911 6.13362884521
      vertex 3.17499995232 9.52499580383 5.49925947189
      vertex 1.64350116253 9.52499580383 6.13362884521
    endloop
  endfacet
  facet normal 0.382684350014 0 0.923879146576
    outer loop
      vertex 3.17499995232 9.52499580383 5.49925947189
      vertex 1.64350116253 3.17500495911 6.13362884521
      vertex 3.17499995232 3.17500495911 5.49925947189
    endloop
  endfacet
  facet normal 0.923879206181 0 -0.3826841712
    outer loop
      vertex 21.4623661041 12.6999988556 -5.75083208084
      vertex 19.2426319122 9.52499485016 -11.1097345352
      vertex 19.2426319122 12.6999969482 -11.1097345352
    endloop
  endfacet
  facet normal 0.923879206181 0 -0.3826841712
    outer loop
      vertex 19.2426319122 9.52499485016 -11.1097345352
      vertex 21.4623661041 12.6999988556 -5.75083208084
      vertex 21.4623661041 9.52499485016 -5.75083208084
    endloop
  endfacet
  facet normal 0.60876339674 -0 0.793351829052
    outer loop
      vertex 3.17499995232 3.17500495911 5.49925947189
      vertex 4.49012804031 9.52499580383 4.49012088776
      vertex 3.17499995232 9.52499580383 5.49925947189
    endloop
  endfacet
  facet normal 0.608755350113 2.64746381617e-006 0.793358027935
    outer loop
      vertex 4.49012804031 9.52499580383 4.49012088776
      vertex 3.17499995232 3.17500495911 5.49925947189
      vertex 4.49012804031 3.17500495911 4.49014234543
    endloop
  endfacet
  facet normal 0.991444885731 0 0.130526214838
    outer loop
      vertex 21.4623661041 12.6999988556 5.75081825256
      vertex 22.2194766998 9.52499580383 -6.90641445544e-006
      vertex 22.2194766998 12.6999988556 -6.90641445544e-006
    endloop
  endfacet
  facet normal 0.991444885731 0 0.130526214838
    outer loop
      vertex 22.2194766998 9.52499580383 -6.90641445544e-006
      vertex 21.4623661041 12.6999988556 5.75081825256
      vertex 21.4623661041 9.52499580383 5.75081825256
    endloop
  endfacet
  facet normal 0.130527108908 -0 0.991444766521
    outer loop
      vertex 1.68624609387e-007 3.17500495911 6.35000133514
      vertex 1.64350116253 9.52499580383 6.13362884521
      vertex 1.68624609387e-007 9.52499580383 6.35000133514
    endloop
  endfacet
  facet normal 0.130527108908 0 0.991444766521
    outer loop
      vertex 1.64350116253 9.52499580383 6.13362884521
      vertex 1.68624609387e-007 3.17500495911 6.35000133514
      vertex 1.64350116253 3.17500495911 6.13362884521
    endloop
  endfacet
  facet normal 0.608763039112 0 -0.793352067471
    outer loop
      vertex 15.7115430832 9.52499485016 -15.7115345001
      vertex 11.1097383499 12.6999969482 -19.2426395416
      vertex 15.7115430832 12.6999969482 -15.7115345001
    endloop
  endfacet
  facet normal 0.608763039112 0 -0.793352067471
    outer loop
      vertex 11.1097383499 12.6999969482 -19.2426395416
      vertex 15.7115430832 9.52499485016 -15.7115345001
      vertex 11.1097383499 9.52499485016 -19.2426395416
    endloop
  endfacet
  facet normal -0.382681280375 0 -0.923880398273
    outer loop
      vertex -5.75082349777 9.52499389648 -21.4623603821
      vertex -11.1097383499 12.6999969482 -19.2426395416
      vertex -5.75082349777 12.6999969482 -21.4623603821
    endloop
  endfacet
  facet normal -0.382681280375 -0 -0.923880398273
    outer loop
      vertex -11.1097383499 12.6999969482 -19.2426395416
      vertex -5.75082349777 9.52499389648 -21.4623603821
      vertex -11.1097383499 9.52499485016 -19.2426395416
    endloop
  endfacet
  facet normal 0.130526691675 0 -0.991444766521
    outer loop
      vertex 5.75082397461 9.52499389648 -21.4623603821
      vertex 1.68624609387e-007 12.6999969482 -22.2194728851
      vertex 5.75082397461 12.6999969482 -21.4623603821
    endloop
  endfacet
  facet normal 0.130526691675 0 -0.991444766521
    outer loop
      vertex 1.68624609387e-007 12.6999969482 -22.2194728851
      vertex 5.75082397461 9.52499389648 -21.4623603821
      vertex 1.68624609387e-007 9.52499389648 -22.2194728851
    endloop
  endfacet
  facet normal -0.991444885731 0 -0.130526214838
    outer loop
      vertex -22.2194766998 9.52499580383 -6.90641445544e-006
      vertex -21.4623661041 12.6999988556 -5.75083208084
      vertex -21.4623661041 9.52499485016 -5.75083208084
    endloop
  endfacet
  facet normal -0.991444885731 0 -0.130526214838
    outer loop
      vertex -21.4623661041 12.6999988556 -5.75083208084
      vertex -22.2194766998 9.52499580383 -6.90641445544e-006
      vertex -22.2194766998 12.6999988556 -6.90641445544e-006
    endloop
  endfacet
  facet normal 0.79335308075 1.15612546057e-016 -0.608761787415
    outer loop
      vertex 19.2426319122 12.6999969482 -11.1097345352
      vertex 15.7115430832 9.52499485016 -15.7115345001
      vertex 15.7115430832 12.6999969482 -15.7115345001
    endloop
  endfacet
  facet normal 0.79335308075 1.15612546057e-016 -0.608761787415
    outer loop
      vertex 15.7115430832 9.52499485016 -15.7115345001
      vertex 19.2426319122 12.6999969482 -11.1097345352
      vertex 19.2426319122 9.52499485016 -11.1097345352
    endloop
  endfacet
  facet normal 0.382681339979 0 -0.923880398273
    outer loop
      vertex 11.1097383499 9.52499485016 -19.2426395416
      vertex 5.75082397461 12.6999969482 -21.4623603821
      vertex 11.1097383499 12.6999969482 -19.2426395416
    endloop
  endfacet
  facet normal 0.382681339979 0 -0.923880398273
    outer loop
      vertex 5.75082397461 12.6999969482 -21.4623603821
      vertex 11.1097383499 9.52499485016 -19.2426395416
      vertex 5.75082397461 9.52499389648 -21.4623603821
    endloop
  endfacet
  facet normal 0.923879742622 0 0.382682859898
    outer loop
      vertex 19.2426319122 12.6999998093 11.1097421646
      vertex 21.4623661041 9.52499580383 5.75081825256
      vertex 21.4623661041 12.6999988556 5.75081825256
    endloop
  endfacet
  facet normal 0.923879742622 0 0.382682859898
    outer loop
      vertex 21.4623661041 9.52499580383 5.75081825256
      vertex 19.2426319122 12.6999998093 11.1097421646
      vertex 19.2426319122 9.52499675751 11.1097421646
    endloop
  endfacet
  facet normal -0.923879384995 -1.43428684529e-017 -0.382683813572
    outer loop
      vertex -6.13362884521 3.17500472069 -1.64349329472
      vertex -5.49926137924 9.52499485016 -3.17498970032
      vertex -5.49926137924 3.17500424385 -3.17498970032
    endloop
  endfacet
  facet normal -0.923879384995 0 -0.382683813572
    outer loop
      vertex -5.49926137924 9.52499485016 -3.17498970032
      vertex -6.13362884521 3.17500472069 -1.64349329472
      vertex -6.13362884521 9.52499580383 -1.64349329472
    endloop
  endfacet
  facet normal -0.79335308075 -1.15612546057e-016 -0.608761787415
    outer loop
      vertex -19.2426319122 9.52499485016 -11.1097345352
      vertex -15.7115440369 12.6999969482 -15.7115345001
      vertex -15.7115440369 9.52499485016 -15.7115345001
    endloop
  endfacet
  facet normal -0.79335308075 -1.15612546057e-016 -0.608761787415
    outer loop
      vertex -15.7115440369 12.6999969482 -15.7115345001
      vertex -19.2426319122 9.52499485016 -11.1097345352
      vertex -19.2426319122 12.6999969482 -11.1097345352
    endloop
  endfacet
  facet normal -0.991444885731 0 0.130526214838
    outer loop
      vertex -21.4623661041 9.52499580383 5.75081825256
      vertex -22.2194766998 12.6999988556 -6.90641445544e-006
      vertex -22.2194766998 9.52499580383 -6.90641445544e-006
    endloop
  endfacet
  facet normal -0.991444885731 0 0.130526214838
    outer loop
      vertex -22.2194766998 12.6999988556 -6.90641445544e-006
      vertex -21.4623661041 9.52499580383 5.75081825256
      vertex -21.4623661041 12.6999988556 5.75081825256
    endloop
  endfacet
  facet normal -0.923879384995 1.43428684529e-017 0.382683813572
    outer loop
      vertex -5.49926137924 3.17500495911 3.17499709129
      vertex -6.13362884521 9.52499580383 1.64350068569
      vertex -6.13362884521 3.17500472069 1.64350068569
    endloop
  endfacet
  facet normal -0.923879384995 0 0.382683813572
    outer loop
      vertex -6.13362884521 9.52499580383 1.64350068569
      vertex -5.49926137924 3.17500495911 3.17499709129
      vertex -5.49926137924 9.52499580383 3.17499709129
    endloop
  endfacet
  facet normal -0.608762979507 0 -0.793352127075
    outer loop
      vertex -11.1097383499 9.52499485016 -19.2426395416
      vertex -15.7115440369 12.6999969482 -15.7115345001
      vertex -11.1097383499 12.6999969482 -19.2426395416
    endloop
  endfacet
  facet normal -0.608762979507 -0 -0.793352127075
    outer loop
      vertex -15.7115440369 12.6999969482 -15.7115345001
      vertex -11.1097383499 9.52499485016 -19.2426395416
      vertex -15.7115440369 9.52499485016 -15.7115345001
    endloop
  endfacet
  facet normal -0.60876339674 2.64744312517e-006 0.793351829052
    outer loop
      vertex -4.49012804031 3.17500495911 4.49014234543
      vertex -3.17500019073 9.52499580383 5.49925947189
      vertex -4.49012804031 9.52499580383 4.49012088776
    endloop
  endfacet
  facet normal -0.608755350113 0 0.793358027935
    outer loop
      vertex -3.17500019073 9.52499580383 5.49925947189
      vertex -4.49012804031 3.17500495911 4.49014234543
      vertex -3.17500019073 3.17500495911 5.49925947189
    endloop
  endfacet
  facet normal -0.130526691675 0 -0.991444766521
    outer loop
      vertex 1.68624609387e-007 9.52499389648 -22.2194728851
      vertex -5.75082349777 12.6999969482 -21.4623603821
      vertex 1.68624609387e-007 12.6999969482 -22.2194728851
    endloop
  endfacet
  facet normal -0.130526691675 -0 -0.991444766521
    outer loop
      vertex -5.75082349777 12.6999969482 -21.4623603821
      vertex 1.68624609387e-007 9.52499389648 -22.2194728851
      vertex -5.75082349777 9.52499389648 -21.4623603821
    endloop
  endfacet
  facet normal -0.92387932539 -1.15612413708e-016 -0.382683962584
    outer loop
      vertex -21.4623661041 9.52499485016 -5.75083208084
      vertex -19.2426319122 12.6999969482 -11.1097345352
      vertex -19.2426319122 9.52499485016 -11.1097345352
    endloop
  endfacet
  facet normal -0.92387932539 0 -0.382683962584
    outer loop
      vertex -19.2426319122 12.6999969482 -11.1097345352
      vertex -21.4623661041 9.52499485016 -5.75083208084
      vertex -21.4623661041 12.6999988556 -5.75083208084
    endloop
  endfacet
  facet normal -0.382684201002 0 0.923879206181
    outer loop
      vertex -3.17500019073 3.17500495911 5.49925947189
      vertex -1.64350068569 9.52499580383 6.13362884521
      vertex -3.17500019073 9.52499580383 5.49925947189
    endloop
  endfacet
  facet normal -0.382684201002 0 0.923879206181
    outer loop
      vertex -1.64350068569 9.52499580383 6.13362884521
      vertex -3.17500019073 3.17500495911 5.49925947189
      vertex -1.64350068569 3.17500495911 6.13362884521
    endloop
  endfacet
  facet normal -0.991444706917 0 -0.130527466536
    outer loop
      vertex -6.34999990463 3.17500472069 -6.90641445544e-006
      vertex -6.13362884521 9.52499580383 -1.64349329472
      vertex -6.13362884521 3.17500472069 -1.64349329472
    endloop
  endfacet
  facet normal -0.991444706917 0 -0.130527466536
    outer loop
      vertex -6.13362884521 9.52499580383 -1.64349329472
      vertex -6.34999990463 3.17500472069 -6.90641445544e-006
      vertex -6.34999990463 9.52499580383 -6.90641445544e-006
    endloop
  endfacet
  facet normal 0.991444885731 2.89031497492e-017 -0.130526214838
    outer loop
      vertex 22.2194766998 12.6999988556 -6.90641445544e-006
      vertex 21.4623661041 9.52499485016 -5.75083208084
      vertex 21.4623661041 12.6999988556 -5.75083208084
    endloop
  endfacet
  facet normal 0.991444885731 2.89031563666e-017 -0.130526214838
    outer loop
      vertex 21.4623661041 9.52499485016 -5.75083208084
      vertex 22.2194766998 12.6999988556 -6.90641445544e-006
      vertex 22.2194766998 9.52499580383 -6.90641445544e-006
    endloop
  endfacet
  facet normal -0.991444885731 0 0.130525812507
    outer loop
      vertex -6.13362884521 3.17500472069 1.64350068569
      vertex -6.34999990463 9.52499580383 -6.90641445544e-006
      vertex -6.34999990463 3.17500472069 -6.90641445544e-006
    endloop
  endfacet
  facet normal -0.991444885731 0 0.130525812507
    outer loop
      vertex -6.34999990463 9.52499580383 -6.90641445544e-006
      vertex -6.13362884521 3.17500472069 1.64350068569
      vertex -6.13362884521 9.52499580383 1.64350068569
    endloop
  endfacet
  facet normal -4.37315236468e-007 -1 5.75736542885e-008
    outer loop
      vertex -21.4623661041 9.52499485016 -5.75083208084
      vertex -21.4623661041 9.52499580383 5.75081825256
      vertex -22.2194766998 9.52499580383 -6.90641445544e-006
    endloop
  endfacet
  facet normal 1.59325040272e-007 -1 5.75736542885e-008
    outer loop
      vertex -21.4623661041 9.52499580383 5.75081825256
      vertex -21.4623661041 9.52499485016 -5.75083208084
      vertex -19.2426319122 9.52499675751 11.1097421646
    endloop
  endfacet
  facet normal -8.2473299301e-008 -1 8.94069671631e-008
    outer loop
      vertex -19.2426319122 9.52499675751 11.1097421646
      vertex -21.4623661041 9.52499485016 -5.75083208084
      vertex -19.2426319122 9.52499485016 -11.1097345352
    endloop
  endfacet
  facet normal 1.16517320237e-007 -1 8.94069671631e-008
    outer loop
      vertex -19.2426319122 9.52499675751 11.1097421646
      vertex -19.2426319122 9.52499485016 -11.1097345352
      vertex -15.7115440369 9.52499485016 -15.7115345001
    endloop
  endfacet
  facet normal -8.23902084335e-008 -1 6.32202912243e-008
    outer loop
      vertex -19.2426319122 9.52499675751 11.1097421646
      vertex -15.7115440369 9.52499485016 -15.7115345001
      vertex -15.7115440369 9.52499675751 15.7115421295
    endloop
  endfacet
  facet normal -4.85106887993e-008 -1 6.32202912243e-008
    outer loop
      vertex -15.7115440369 9.52499675751 15.7115421295
      vertex -15.7115440369 9.52499485016 -15.7115345001
      vertex -11.1097383499 9.52499675751 19.2426357269
    endloop
  endfacet
  facet normal 3.9608906377e-008 -1 5.16191214217e-008
    outer loop
      vertex -11.1097383499 9.52499675751 19.2426357269
      vertex -15.7115440369 9.52499485016 -15.7115345001
      vertex -11.1097383499 9.52499485016 -19.2426395416
    endloop
  endfacet
  facet normal -1.02187108553e-007 -1 5.16191214217e-008
    outer loop
      vertex -11.1097383499 9.52499675751 19.2426357269
      vertex -11.1097383499 9.52499485016 -19.2426395416
      vertex -5.75082349777 9.52499389648 -21.4623603821
    endloop
  endfacet
  facet normal 2.64989324705e-007 -1 9.99588181116e-008
    outer loop
      vertex -11.1097383499 9.52499675751 19.2426357269
      vertex -5.75082349777 9.52499389648 -21.4623603821
      vertex -6.34999990463 9.52499580383 -6.90641445544e-006
    endloop
  endfacet
  facet normal 8.92272112196e-007 -1 1.17471017802e-007
    outer loop
      vertex -6.34999990463 9.52499580383 -6.90641445544e-006
      vertex -5.75082349777 9.52499389648 -21.4623603821
      vertex -6.13362884521 9.52499580383 -1.64349329472
    endloop
  endfacet
  facet normal -8.41090582071e-007 -1 8.39907841055e-008
    outer loop
      vertex -6.13362884521 9.52499580383 -1.64349329472
      vertex -5.75082349777 9.52499389648 -21.4623603821
      vertex -5.49926137924 9.52499485016 -3.17498970032
    endloop
  endfacet
  facet normal 9.51716661035e-009 -1 7.22897723904e-008
    outer loop
      vertex -5.49926137924 9.52499485016 -3.17498970032
      vertex -5.75082349777 9.52499389648 -21.4623603821
      vertex 1.68624609387e-007 9.52499389648 -22.2194728851
    endloop
  endfacet
  facet normal 1.45314814404e-007 -1 1.11502536981e-007
    outer loop
      vertex -5.49926137924 9.52499485016 -3.17498970032
      vertex 1.68624609387e-007 9.52499389648 -22.2194728851
      vertex -4.49012804031 9.52499485016 -4.49013471603
    endloop
  endfacet
  facet normal 7.11439156476e-008 -1 9.27180323629e-008
    outer loop
      vertex -4.49012804031 9.52499485016 -4.49013471603
      vertex 1.68624609387e-007 9.52499389648 -22.2194728851
      vertex -3.17500019073 9.52499485016 -5.4992518425
    endloop
  endfacet
  facet normal 3.56102525245e-008 -1 8.59705480138e-008
    outer loop
      vertex -3.17500019073 9.52499485016 -5.4992518425
      vertex 1.68624609387e-007 9.52499389648 -22.2194728851
      vertex -1.64350068569 9.52499485016 -6.13362121582
    endloop
  endfacet
  facet normal 1.09871107767e-008 -1 8.34547861928e-008
    outer loop
      vertex -1.64350068569 9.52499485016 -6.13362121582
      vertex 1.68624609387e-007 9.52499389648 -22.2194728851
      vertex 1.68624609387e-007 9.52499485016 -6.34999370575
    endloop
  endfacet
  facet normal -1.09870743614e-008 -1 8.34547861928e-008
    outer loop
      vertex 1.68624609387e-007 9.52499485016 -6.34999370575
      vertex 1.68624609387e-007 9.52499389648 -22.2194728851
      vertex 5.75082397461 9.52499389648 -21.4623603821
    endloop
  endfacet
  facet normal -1.09871081122e-008 -1 8.34547719819e-008
    outer loop
      vertex 1.68624609387e-007 9.52499485016 -6.34999370575
      vertex 5.75082397461 9.52499389648 -21.4623603821
      vertex 1.64350116253 9.52499485016 -6.13362121582
    endloop
  endfacet
  facet normal -3.22124300567e-008 -1 7.77674671326e-008
    outer loop
      vertex 1.64350116253 9.52499485016 -6.13362121582
      vertex 5.75082397461 9.52499389648 -21.4623603821
      vertex 3.17499995232 9.52499485016 -5.4992518425
    endloop
  endfacet
  facet normal -5.66467939223e-008 -1 7.38247152299e-008
    outer loop
      vertex 3.17499995232 9.52499485016 -5.4992518425
      vertex 5.75082397461 9.52499389648 -21.4623603821
      vertex 4.49012804031 9.52499485016 -4.49013471603
    endloop
  endfacet
  facet normal -9.27194747646e-008 -1 7.1145237257e-008
    outer loop
      vertex 4.49012804031 9.52499485016 -4.49013471603
      vertex 5.75082397461 9.52499389648 -21.4623603821
      vertex 5.49926137924 9.52499485016 -3.17498970032
    endloop
  endfacet
  facet normal 8.41088819925e-007 -1 8.39907912109e-008
    outer loop
      vertex 5.49926137924 9.52499485016 -3.17498970032
      vertex 5.75082397461 9.52499389648 -21.4623603821
      vertex 6.13362979889 9.52499580383 -1.64349329472
    endloop
  endfacet
  facet normal 8.27109616353e-008 -1 9.86390276125e-008
    outer loop
      vertex 6.13362979889 9.52499580383 -1.64349329472
      vertex 5.75082397461 9.52499389648 -21.4623603821
      vertex 11.1097383499 9.52499485016 -19.2426395416
    endloop
  endfacet
  facet normal -1.81594216997e-007 -1 2.39074982034e-008
    outer loop
      vertex 6.13362979889 9.52499580383 -1.64349329472
      vertex 11.1097383499 9.52499485016 -19.2426395416
      vertex 6.35000038147 9.52499580383 -6.90641445544e-006
    endloop
  endfacet
  facet normal 9.91549811147e-008 -1 5.89390829475e-008
    outer loop
      vertex -6.34999990463 9.52499580383 -6.90641445544e-006
      vertex -5.75082349777 9.52499771118 21.4623680115
      vertex -11.1097383499 9.52499675751 19.2426357269
    endloop
  endfacet
  facet normal -5.94857056058e-007 -1 7.83141871352e-008
    outer loop
      vertex -5.75082349777 9.52499771118 21.4623680115
      vertex -6.34999990463 9.52499580383 -6.90641445544e-006
      vertex -6.13362884521 9.52499580383 1.64350068569
    endloop
  endfacet
  facet normal -1.6921904944e-007 -1 7.00929092545e-008
    outer loop
      vertex -5.75082349777 9.52499771118 21.4623680115
      vertex -6.13362884521 9.52499580383 1.64350068569
      vertex -5.49926137924 9.52499580383 3.17499709129
    endloop
  endfacet
  facet normal -9.51716661035e-009 -1 7.22897723904e-008
    outer loop
      vertex -5.75082349777 9.52499771118 21.4623680115
      vertex -5.49926137924 9.52499580383 3.17499709129
      vertex 1.68624609387e-007 9.52499771118 22.2194805145
    endloop
  endfacet
  facet normal -1.45311062738e-007 -1 1.11501449851e-007
    outer loop
      vertex 1.68624609387e-007 9.52499771118 22.2194805145
      vertex -5.49926137924 9.52499580383 3.17499709129
      vertex -4.49012804031 9.52499580383 4.49012088776
    endloop
  endfacet
  facet normal -7.11456635827e-008 -1 9.27183592125e-008
    outer loop
      vertex 1.68624609387e-007 9.52499771118 22.2194805145
      vertex -4.49012804031 9.52499580383 4.49012088776
      vertex -3.17500019073 9.52499580383 5.49925947189
    endloop
  endfacet
  facet normal -3.56102525245e-008 -1 8.59705480138e-008
    outer loop
      vertex 1.68624609387e-007 9.52499771118 22.2194805145
      vertex -3.17500019073 9.52499580383 5.49925947189
      vertex -1.64350068569 9.52499580383 6.13362884521
    endloop
  endfacet
  facet normal -1.09871107767e-008 -1 8.34547861928e-008
    outer loop
      vertex 1.68624609387e-007 9.52499771118 22.2194805145
      vertex -1.64350068569 9.52499580383 6.13362884521
      vertex 1.68624609387e-007 9.52499580383 6.35000133514
    endloop
  endfacet
  facet normal 1.09871098886e-008 -1 8.34547861928e-008
    outer loop
      vertex 1.68624609387e-007 9.52499771118 22.2194805145
      vertex 1.68624609387e-007 9.52499580383 6.35000133514
      vertex 1.64350116253 9.52499580383 6.13362884521
    endloop
  endfacet
  facet normal 1.09870734732e-008 -1 8.34547861928e-008
    outer loop
      vertex 1.68624609387e-007 9.52499771118 22.2194805145
      vertex 1.64350116253 9.52499580383 6.13362884521
      vertex 5.75082397461 9.52499771118 21.4623680115
    endloop
  endfacet
  facet normal 3.22124300567e-008 -1 7.77674671326e-008
    outer loop
      vertex 5.75082397461 9.52499771118 21.4623680115
      vertex 1.64350116253 9.52499580383 6.13362884521
      vertex 3.17499995232 9.52499580383 5.49925947189
    endloop
  endfacet
  facet normal 5.66478490782e-008 -1 7.38245446996e-008
    outer loop
      vertex 5.75082397461 9.52499771118 21.4623680115
      vertex 3.17499995232 9.52499580383 5.49925947189
      vertex 4.49012804031 9.52499580383 4.49012088776
    endloop
  endfacet
  facet normal 9.27180110466e-008 -1 7.11452585733e-008
    outer loop
      vertex 5.75082397461 9.52499771118 21.4623680115
      vertex 4.49012804031 9.52499580383 4.49012088776
      vertex 5.49926137924 9.52499580383 3.17499709129
    endloop
  endfacet
  facet normal 1.69218694168e-007 -1 7.00929021491e-008
    outer loop
      vertex 5.75082397461 9.52499771118 21.4623680115
      vertex 5.49926137924 9.52499580383 3.17499709129
      vertex 6.13362979889 9.52499580383 1.64350068569
    endloop
  endfacet
  facet normal -9.66621485077e-008 -1 6.49573550504e-008
    outer loop
      vertex 5.75082397461 9.52499771118 21.4623680115
      vertex 6.13362979889 9.52499580383 1.64350068569
      vertex 11.1097383499 9.52499675751 19.2426357269
    endloop
  endfacet
  facet normal 9.0797499297e-008 -1 1.1953646073e-008
    outer loop
      vertex 11.1097383499 9.52499675751 19.2426357269
      vertex 6.13362979889 9.52499580383 1.64350068569
      vertex 6.35000038147 9.52499580383 -6.90641445544e-006
    endloop
  endfacet
  facet normal -6.95618780355e-008 -1 5.16191214217e-008
    outer loop
      vertex 11.1097383499 9.52499675751 19.2426357269
      vertex 6.35000038147 9.52499580383 -6.90641445544e-006
      vertex 11.1097383499 9.52499485016 -19.2426395416
    endloop
  endfacet
  facet normal -3.96089134824e-008 -1 5.16191214217e-008
    outer loop
      vertex 11.1097383499 9.52499675751 19.2426357269
      vertex 11.1097383499 9.52499485016 -19.2426395416
      vertex 15.7115430832 9.52499485016 -15.7115345001
    endloop
  endfacet
  facet normal 4.85106959047e-008 -1 6.32202912243e-008
    outer loop
      vertex 11.1097383499 9.52499675751 19.2426357269
      vertex 15.7115430832 9.52499485016 -15.7115345001
      vertex 15.7115430832 9.52499675751 15.7115421295
    endloop
  endfacet
  facet normal -8.23902084335e-008 -1 6.32202912243e-008
    outer loop
      vertex 15.7115430832 9.52499675751 15.7115421295
      vertex 15.7115430832 9.52499485016 -15.7115345001
      vertex 19.2426319122 9.52499485016 -11.1097345352
    endloop
  endfacet
  facet normal 1.16517320237e-007 -1 8.94069671631e-008
    outer loop
      vertex 15.7115430832 9.52499675751 15.7115421295
      vertex 19.2426319122 9.52499485016 -11.1097345352
      vertex 19.2426319122 9.52499675751 11.1097421646
    endloop
  endfacet
  facet normal 8.2473249563e-008 -1 8.94069671631e-008
    outer loop
      vertex 19.2426319122 9.52499675751 11.1097421646
      vertex 19.2426319122 9.52499485016 -11.1097345352
      vertex 21.4623661041 9.52499485016 -5.75083208084
    endloop
  endfacet
  facet normal -1.59324940796e-007 -1 5.75736542885e-008
    outer loop
      vertex 19.2426319122 9.52499675751 11.1097421646
      vertex 21.4623661041 9.52499485016 -5.75083208084
      vertex 21.4623661041 9.52499580383 5.75081825256
    endloop
  endfacet
  facet normal 4.37315236468e-007 -1 5.75736542885e-008
    outer loop
      vertex 21.4623661041 9.52499580383 5.75081825256
      vertex 21.4623661041 9.52499485016 -5.75083208084
      vertex 22.2194766998 9.52499580383 -6.90641445544e-006
    endloop
  endfacet
  facet normal 0 1 0
    outer loop
      vertex -21.4623661041 12.6999988556 5.75081825256
      vertex -21.4623661041 12.6999988556 -5.75083208084
      vertex -22.2194766998 12.6999988556 -6.90641445544e-006
    endloop
  endfacet
  facet normal -5.96640916228e-007 1 0
    outer loop
      vertex -21.4623661041 12.6999988556 -5.75083208084
      vertex -21.4623661041 12.6999988556 5.75081825256
      vertex -19.2426319122 12.6999998093 11.1097421646
    endloop
  endfacet
  facet normal 3.08844704477e-007 1 -1.19209289551e-007
    outer loop
      vertex -21.4623661041 12.6999988556 -5.75083208084
      vertex -19.2426319122 12.6999998093 11.1097421646
      vertex -19.2426319122 12.6999969482 -11.1097345352
    endloop
  endfacet
  facet normal -1.55356431719e-007 1 -1.19209289551e-007
    outer loop
      vertex -19.2426319122 12.6999969482 -11.1097345352
      vertex -19.2426319122 12.6999998093 11.1097421646
      vertex -15.7115440369 12.6999969482 -15.7115345001
    endloop
  endfacet
  facet normal 1.09853615982e-007 1 -8.42937168954e-008
    outer loop
      vertex -15.7115440369 12.6999969482 -15.7115345001
      vertex -19.2426319122 12.6999998093 11.1097421646
      vertex -15.7115440369 12.6999998093 15.7115421295
    endloop
  endfacet
  facet normal 6.46809183991e-008 1 -8.42937168954e-008
    outer loop
      vertex -15.7115440369 12.6999969482 -15.7115345001
      vertex -15.7115440369 12.6999998093 15.7115421295
      vertex -11.1097383499 12.6999998093 19.2426357269
    endloop
  endfacet
  facet normal -5.28118739851e-008 1 -6.88254928605e-008
    outer loop
      vertex -15.7115440369 12.6999969482 -15.7115345001
      vertex -11.1097383499 12.6999998093 19.2426357269
      vertex -11.1097383499 12.6999969482 -19.2426395416
    endloop
  endfacet
  facet normal -2.85082659701e-008 1 -6.88254928605e-008
    outer loop
      vertex -11.1097383499 12.6999969482 -19.2426395416
      vertex -11.1097383499 12.6999998093 19.2426357269
      vertex -5.75082349777 12.6999969482 -21.4623603821
    endloop
  endfacet
  facet normal 2.55599452714e-008 1 -6.17072757336e-008
    outer loop
      vertex -5.75082349777 12.6999969482 -21.4623603821
      vertex -11.1097383499 12.6999998093 19.2426357269
      vertex -5.75082349777 12.6999998093 21.4623680115
    endloop
  endfacet
  facet normal -8.12394862493e-009 1 -6.17072757336e-008
    outer loop
      vertex -5.75082349777 12.6999969482 -21.4623603821
      vertex -5.75082349777 12.6999998093 21.4623680115
      vertex 1.68624609387e-007 12.6999969482 -22.2194728851
    endloop
  endfacet
  facet normal 7.84713094504e-009 1 -5.96046447754e-008
    outer loop
      vertex 1.68624609387e-007 12.6999969482 -22.2194728851
      vertex -5.75082349777 12.6999998093 21.4623680115
      vertex 1.68624609387e-007 12.6999998093 22.2194805145
    endloop
  endfacet
  facet normal 7.84713094504e-009 1 -5.96046447754e-008
    outer loop
      vertex 1.68624609387e-007 12.6999969482 -22.2194728851
      vertex 1.68624609387e-007 12.6999998093 22.2194805145
      vertex 5.75082397461 12.6999969482 -21.4623603821
    endloop
  endfacet
  facet normal -8.12394862493e-009 1 -6.17072757336e-008
    outer loop
      vertex 5.75082397461 12.6999969482 -21.4623603821
      vertex 1.68624609387e-007 12.6999998093 22.2194805145
      vertex 5.75082397461 12.6999998093 21.4623680115
    endloop
  endfacet
  facet normal -2.55599488241e-008 1 -6.17072757336e-008
    outer loop
      vertex 5.75082397461 12.6999969482 -21.4623603821
      vertex 5.75082397461 12.6999998093 21.4623680115
      vertex 11.1097383499 12.6999998093 19.2426357269
    endloop
  endfacet
  facet normal 2.85082695228e-008 1 -6.88254928605e-008
    outer loop
      vertex 5.75082397461 12.6999969482 -21.4623603821
      vertex 11.1097383499 12.6999998093 19.2426357269
      vertex 11.1097383499 12.6999969482 -19.2426395416
    endloop
  endfacet
  facet normal 5.28118810905e-008 1 -6.88254928605e-008
    outer loop
      vertex 11.1097383499 12.6999969482 -19.2426395416
      vertex 11.1097383499 12.6999998093 19.2426357269
      vertex 15.7115430832 12.6999969482 -15.7115345001
    endloop
  endfacet
  facet normal -6.46809255045e-008 1 -8.42937168954e-008
    outer loop
      vertex 15.7115430832 12.6999969482 -15.7115345001
      vertex 11.1097383499 12.6999998093 19.2426357269
      vertex 15.7115430832 12.6999998093 15.7115421295
    endloop
  endfacet
  facet normal -1.09853615982e-007 1 -8.42937168954e-008
    outer loop
      vertex 15.7115430832 12.6999969482 -15.7115345001
      vertex 15.7115430832 12.6999998093 15.7115421295
      vertex 19.2426319122 12.6999998093 11.1097421646
    endloop
  endfacet
  facet normal 1.55356431719e-007 1 -1.19209289551e-007
    outer loop
      vertex 15.7115430832 12.6999969482 -15.7115345001
      vertex 19.2426319122 12.6999998093 11.1097421646
      vertex 19.2426319122 12.6999969482 -11.1097345352
    endloop
  endfacet
  facet normal 3.08843368657e-007 1 -1.19209289551e-007
    outer loop
      vertex 19.2426319122 12.6999969482 -11.1097345352
      vertex 19.2426319122 12.6999998093 11.1097421646
      vertex 21.4623661041 12.6999988556 5.75081825256
    endloop
  endfacet
  facet normal -5.96640575168e-007 1 0
    outer loop
      vertex 19.2426319122 12.6999969482 -11.1097345352
      vertex 21.4623661041 12.6999988556 5.75081825256
      vertex 21.4623661041 12.6999988556 -5.75083208084
    endloop
  endfacet
  facet normal 0 1 0
    outer loop
      vertex 21.4623661041 12.6999988556 -5.75083208084
      vertex 21.4623661041 12.6999988556 5.75081825256
      vertex 22.2194766998 12.6999988556 -6.90641445544e-006
    endloop
  endfacet
endsolid "Chandelier1StrandEnd-x1"
