solid Chandelier1ArrangedForPrint
facet normal 0.83146961230255 0.5555702330195951 8.076788011035686e-16
  outer loop
    vertex 8.374840588221504 10.56478844754235 3.552713678800501e-15
    vertex 8.031099043927155 11.079234023600815 0.7500000000000018
    vertex 8.374840588221502 10.564788447542348 0.7500000000000018
  endloop
endfacet
facet normal 0.83146961230255 0.5555702330195951 8.076788011035686e-16
  outer loop
    vertex 8.031099043927155 11.079234023600815 0.7500000000000018
    vertex 8.374840588221504 10.56478844754235 3.552713678800501e-15
    vertex 8.031099043927155 11.079234023600815 3.552713678800501e-15
  endloop
endfacet
facet normal -0.9807852804032307 0.1950903220161281 -3.051013617427087e-17
  outer loop
    vertex 6.903662667616663 10.85742393056654 0.7500000000000018
    vertex 6.781731216356581 10.244433130314514 3.552713678800501e-15
    vertex 6.781731216356581 10.244433130314514 0.7500000000000018
  endloop
endfacet
facet normal -0.9807852804032307 0.1950903220161281 -3.051013617427087e-17
  outer loop
    vertex 6.781731216356581 10.244433130314514 3.552713678800501e-15
    vertex 6.903662667616663 10.85742393056654 0.7500000000000018
    vertex 6.903662667616663 10.85742393056654 3.552713678800501e-15
  endloop
endfacet
facet normal -0.5555702330195981 0.831469612302548 3.488260269177968e-16
  outer loop
    vertex 6.903662667616663 10.85742393056654 0.7500000000000018
    vertex 7.418108243675136 11.201165474860897 3.552713678800501e-15
    vertex 6.903662667616663 10.85742393056654 3.552713678800501e-15
  endloop
endfacet
facet normal -0.5555702330195981 0.831469612302548 3.488260269177968e-16
  outer loop
    vertex 7.418108243675136 11.201165474860897 3.552713678800501e-15
    vertex 6.903662667616663 10.85742393056654 0.7500000000000018
    vertex 7.418108243675136 11.201165474860897 0.7500000000000018
  endloop
endfacet
facet normal -0.8314696123025387 -0.5555702330196124 -5.608630069106698e-16
  outer loop
    vertex 6.781731216356581 10.244433130314514 0.7500000000000018
    vertex 7.125472760650944 9.72998755425605 3.552713678800501e-15
    vertex 7.125472760650943 9.72998755425605 0.7500000000000018
  endloop
endfacet
facet normal -0.8314696123025387 -0.5555702330196124 -5.608630069106698e-16
  outer loop
    vertex 7.125472760650944 9.72998755425605 3.552713678800501e-15
    vertex 6.781731216356581 10.244433130314514 0.7500000000000018
    vertex 6.781731216356581 10.244433130314514 3.552713678800501e-15
  endloop
endfacet
facet normal 0.9807852804032304 -0.19509032201612891 5.133568193119306e-16
  outer loop
    vertex 8.374840588221504 10.56478844754235 3.552713678800501e-15
    vertex 8.25290913696142 9.951797647290324 0.7500000000000018
    vertex 8.25290913696142 9.951797647290324 3.552713678800501e-15
  endloop
endfacet
facet normal 0.9807852804032304 -0.19509032201612891 5.133568193119306e-16
  outer loop
    vertex 8.25290913696142 9.951797647290324 0.7500000000000018
    vertex 8.374840588221504 10.56478844754235 3.552713678800501e-15
    vertex 8.374840588221502 10.564788447542348 0.7500000000000018
  endloop
endfacet
facet normal -0.19509032201612767 -0.9807852804032307 -3.745358878583029e-16
  outer loop
    vertex 7.738463560902963 9.60805610299597 0.7500000000000018
    vertex 7.125472760650944 9.72998755425605 3.552713678800501e-15
    vertex 7.738463560902963 9.60805610299597 3.552713678800501e-15
  endloop
endfacet
facet normal -0.19509032201612767 -0.9807852804032307 -3.745358878583029e-16
  outer loop
    vertex 7.125472760650944 9.72998755425605 3.552713678800501e-15
    vertex 7.738463560902963 9.60805610299597 0.7500000000000018
    vertex 7.125472760650943 9.72998755425605 0.7500000000000018
  endloop
endfacet
facet normal 0.0 0.0 1.0
  outer loop
    vertex 7.125472760650943 9.72998755425605 0.7500000000000018
    vertex 6.903662667616663 10.85742393056654 0.7500000000000018
    vertex 6.781731216356581 10.244433130314514 0.7500000000000018
  endloop
endfacet
facet normal 0.0 0.0 1.0
  outer loop
    vertex 6.903662667616663 10.85742393056654 0.7500000000000018
    vertex 7.125472760650943 9.72998755425605 0.7500000000000018
    vertex 7.078285902289048 10.404610788928427 0.7500000000000018
  endloop
endfacet
facet normal 0.0 0.0 1.0
  outer loop
    vertex 7.078285902289048 10.404610788928427 0.7500000000000018
    vertex 7.125472760650943 9.72998755425605 0.7500000000000018
    vertex 7.095322989144514 10.275201266377167 0.7500000000000018
  endloop
endfacet
facet normal 0.0 0.0 1.0
  outer loop
    vertex 7.095322989144514 10.275201266377167 0.7500000000000018
    vertex 7.125472760650943 9.72998755425605 0.7500000000000018
    vertex 7.145273200396829 10.154610788928427 0.7500000000000018
  endloop
endfacet
facet normal 0.0 0.0 1.0
  outer loop
    vertex 7.145273200396829 10.154610788928427 0.7500000000000018
    vertex 7.125472760650943 9.72998755425605 0.7500000000000018
    vertex 7.224732511695775 10.051057398335153 0.7500000000000018
  endloop
endfacet
facet normal 0.0 0.0 1.0
  outer loop
    vertex 7.224732511695775 10.051057398335153 0.7500000000000018
    vertex 7.125472760650943 9.72998755425605 0.7500000000000018
    vertex 7.738463560902963 9.60805610299597 0.7500000000000018
  endloop
endfacet
facet normal 0.0 0.0 1.0
  outer loop
    vertex 7.224732511695775 10.051057398335153 0.7500000000000018
    vertex 7.738463560902963 9.60805610299597 0.7500000000000018
    vertex 7.328285902289049 9.971598087036206 0.7500000000000018
  endloop
endfacet
facet normal 0.0 0.0 1.0
  outer loop
    vertex 7.328285902289049 9.971598087036206 0.7500000000000018
    vertex 7.738463560902963 9.60805610299597 0.7500000000000018
    vertex 7.448876379737788 9.921647875783894 0.7500000000000018
  endloop
endfacet
facet normal 0.0 0.0 1.0
  outer loop
    vertex 7.448876379737788 9.921647875783894 0.7500000000000018
    vertex 7.738463560902963 9.60805610299597 0.7500000000000018
    vertex 7.578285902289049 9.904610788928427 0.7500000000000018
  endloop
endfacet
facet normal 0.0 0.0 1.0
  outer loop
    vertex 7.578285902289049 9.904610788928427 0.7500000000000018
    vertex 7.738463560902963 9.60805610299597 0.7500000000000018
    vertex 7.707695424840309 9.921647875783894 0.7500000000000018
  endloop
endfacet
facet normal 0.0 0.0 1.0
  outer loop
    vertex 7.707695424840309 9.921647875783894 0.7500000000000018
    vertex 7.738463560902963 9.60805610299597 0.7500000000000018
    vertex 7.828285902289049 9.971598087036208 0.7500000000000018
  endloop
endfacet
facet normal 0.0 0.0 1.0
  outer loop
    vertex 7.828285902289049 9.971598087036208 0.7500000000000018
    vertex 7.738463560902963 9.60805610299597 0.7500000000000018
    vertex 8.25290913696142 9.951797647290324 0.7500000000000018
  endloop
endfacet
facet normal 0.0 0.0 1.0
  outer loop
    vertex 7.828285902289049 9.971598087036208 0.7500000000000018
    vertex 8.25290913696142 9.951797647290324 0.7500000000000018
    vertex 7.931839292882323 10.051057398335153 0.7500000000000018
  endloop
endfacet
facet normal 0.0 0.0 1.0
  outer loop
    vertex 7.931839292882323 10.051057398335153 0.7500000000000018
    vertex 8.25290913696142 9.951797647290324 0.7500000000000018
    vertex 8.011298604181267 10.154610788928427 0.7500000000000018
  endloop
endfacet
facet normal 0.0 0.0 1.0
  outer loop
    vertex 8.011298604181267 10.154610788928427 0.7500000000000018
    vertex 8.25290913696142 9.951797647290324 0.7500000000000018
    vertex 8.061248815433583 10.275201266377167 0.7500000000000018
  endloop
endfacet
facet normal 0.0 0.0 1.0
  outer loop
    vertex 8.061248815433583 10.275201266377167 0.7500000000000018
    vertex 8.25290913696142 9.951797647290324 0.7500000000000018
    vertex 8.078285902289048 10.404610788928427 0.7500000000000018
  endloop
endfacet
facet normal 0.0 0.0 1.0
  outer loop
    vertex 6.903662667616663 10.85742393056654 0.7500000000000018
    vertex 7.1452732003968285 10.654610788928427 0.7500000000000018
    vertex 7.418108243675136 11.201165474860897 0.7500000000000018
  endloop
endfacet
facet normal 0.0 0.0 1.0
  outer loop
    vertex 7.1452732003968285 10.654610788928427 0.7500000000000018
    vertex 6.903662667616663 10.85742393056654 0.7500000000000018
    vertex 7.095322989144514 10.534020311479686 0.7500000000000018
  endloop
endfacet
facet normal 0.0 0.0 1.0
  outer loop
    vertex 7.095322989144514 10.534020311479686 0.7500000000000018
    vertex 6.903662667616663 10.85742393056654 0.7500000000000018
    vertex 7.078285902289048 10.404610788928427 0.7500000000000018
  endloop
endfacet
facet normal 0.0 0.0 1.0
  outer loop
    vertex 7.418108243675136 11.201165474860897 0.7500000000000018
    vertex 7.1452732003968285 10.654610788928427 0.7500000000000018
    vertex 7.224732511695774 10.7581641795217 0.7500000000000018
  endloop
endfacet
facet normal 0.0 0.0 1.0
  outer loop
    vertex 7.418108243675136 11.201165474860897 0.7500000000000018
    vertex 7.224732511695774 10.7581641795217 0.7500000000000018
    vertex 7.328285902289047 10.837623490820645 0.7500000000000018
  endloop
endfacet
facet normal 0.0 0.0 1.0
  outer loop
    vertex 7.418108243675136 11.201165474860897 0.7500000000000018
    vertex 7.328285902289047 10.837623490820645 0.7500000000000018
    vertex 7.448876379737787 10.88757370207296 0.7500000000000018
  endloop
endfacet
facet normal 0.0 0.0 1.0
  outer loop
    vertex 7.418108243675136 11.201165474860897 0.7500000000000018
    vertex 7.448876379737787 10.88757370207296 0.7500000000000018
    vertex 8.031099043927155 11.079234023600815 0.7500000000000018
  endloop
endfacet
facet normal 0.0 0.0 1.0
  outer loop
    vertex 8.031099043927155 11.079234023600815 0.7500000000000018
    vertex 7.448876379737787 10.88757370207296 0.7500000000000018
    vertex 7.578285902289047 10.904610788928427 0.7500000000000018
  endloop
endfacet
facet normal 0.0 0.0 1.0
  outer loop
    vertex 8.031099043927155 11.079234023600815 0.7500000000000018
    vertex 7.578285902289047 10.904610788928427 0.7500000000000018
    vertex 7.707695424840308 10.88757370207296 0.7500000000000018
  endloop
endfacet
facet normal 0.0 0.0 1.0
  outer loop
    vertex 8.031099043927155 11.079234023600815 0.7500000000000018
    vertex 7.707695424840308 10.88757370207296 0.7500000000000018
    vertex 7.828285902289047 10.837623490820647 0.7500000000000018
  endloop
endfacet
facet normal 0.0 0.0 1.0
  outer loop
    vertex 8.031099043927155 11.079234023600815 0.7500000000000018
    vertex 7.828285902289047 10.837623490820647 0.7500000000000018
    vertex 7.931839292882321 10.7581641795217 0.7500000000000018
  endloop
endfacet
facet normal 0.0 0.0 1.0
  outer loop
    vertex 8.031099043927155 11.079234023600815 0.7500000000000018
    vertex 7.931839292882321 10.7581641795217 0.7500000000000018
    vertex 8.011298604181267 10.654610788928427 0.7500000000000018
  endloop
endfacet
facet normal 0.0 0.0 1.0
  outer loop
    vertex 8.031099043927155 11.079234023600815 0.7500000000000018
    vertex 8.011298604181267 10.654610788928427 0.7500000000000018
    vertex 8.061248815433583 10.534020311479686 0.7500000000000018
  endloop
endfacet
facet normal 0.0 0.0 1.0
  outer loop
    vertex 8.031099043927155 11.079234023600815 0.7500000000000018
    vertex 8.061248815433583 10.534020311479686 0.7500000000000018
    vertex 8.374840588221502 10.564788447542348 0.7500000000000018
  endloop
endfacet
facet normal 0.0 0.0 1.0
  outer loop
    vertex 8.374840588221502 10.564788447542348 0.7500000000000018
    vertex 8.061248815433583 10.534020311479686 0.7500000000000018
    vertex 8.078285902289048 10.404610788928427 0.7500000000000018
  endloop
endfacet
facet normal 0.0 0.0 1.0
  outer loop
    vertex 8.374840588221502 10.564788447542348 0.7500000000000018
    vertex 8.078285902289048 10.404610788928427 0.7500000000000018
    vertex 8.25290913696142 9.951797647290324 0.7500000000000018
  endloop
endfacet
facet normal 0.0 0.0 -1.0
  outer loop
    vertex 6.903662667616663 10.85742393056654 3.552713678800501e-15
    vertex 7.125472760650944 9.72998755425605 3.552713678800501e-15
    vertex 6.781731216356581 10.244433130314514 3.552713678800501e-15
  endloop
endfacet
facet normal 0.0 0.0 -1.0
  outer loop
    vertex 7.125472760650944 9.72998755425605 3.552713678800501e-15
    vertex 6.903662667616663 10.85742393056654 3.552713678800501e-15
    vertex 7.418108243675136 11.201165474860897 3.552713678800501e-15
  endloop
endfacet
facet normal 0.0 0.0 -1.0
  outer loop
    vertex 7.125472760650944 9.72998755425605 3.552713678800501e-15
    vertex 7.418108243675136 11.201165474860897 3.552713678800501e-15
    vertex 7.328285902289048 10.404610788928427 3.552713678800501e-15
  endloop
endfacet
facet normal 0.0 0.0 -1.0
  outer loop
    vertex 7.328285902289048 10.404610788928427 3.552713678800501e-15
    vertex 7.418108243675136 11.201165474860897 3.552713678800501e-15
    vertex 7.336804445716781 10.469315550204056 3.552713678800501e-15
  endloop
endfacet
facet normal 0.0 0.0 -1.0
  outer loop
    vertex 7.336804445716781 10.469315550204056 3.552713678800501e-15
    vertex 7.418108243675136 11.201165474860897 3.552713678800501e-15
    vertex 7.361779551342938 10.529610788928427 3.552713678800501e-15
  endloop
endfacet
facet normal 0.0 0.0 -1.0
  outer loop
    vertex 7.361779551342938 10.529610788928427 3.552713678800501e-15
    vertex 7.418108243675136 11.201165474860897 3.552713678800501e-15
    vertex 7.401509206992412 10.581387484225061 3.552713678800501e-15
  endloop
endfacet
facet normal 0.0 0.0 -1.0
  outer loop
    vertex 7.401509206992412 10.581387484225061 3.552713678800501e-15
    vertex 7.418108243675136 11.201165474860897 3.552713678800501e-15
    vertex 7.453285902289048 10.621117139874535 3.608224830031759e-15
  endloop
endfacet
facet normal 0.0 0.0 -1.0
  outer loop
    vertex 7.453285902289048 10.621117139874535 3.608224830031759e-15
    vertex 7.418108243675136 11.201165474860897 3.552713678800501e-15
    vertex 8.031099043927155 11.079234023600815 3.552713678800501e-15
  endloop
endfacet
facet normal 0.0 0.0 -1.0
  outer loop
    vertex 7.453285902289048 10.621117139874535 3.608224830031759e-15
    vertex 8.031099043927155 11.079234023600815 3.552713678800501e-15
    vertex 7.513581141013418 10.646092245500693 3.552713678800501e-15
  endloop
endfacet
facet normal 0.0 0.0 -1.0
  outer loop
    vertex 7.513581141013418 10.646092245500693 3.552713678800501e-15
    vertex 8.031099043927155 11.079234023600815 3.552713678800501e-15
    vertex 7.578285902289048 10.654610788928427 3.552713678800501e-15
  endloop
endfacet
facet normal 0.0 0.0 -1.0
  outer loop
    vertex 7.578285902289048 10.654610788928427 3.552713678800501e-15
    vertex 8.031099043927155 11.079234023600815 3.552713678800501e-15
    vertex 7.642990663564678 10.646092245500693 3.608224830031759e-15
  endloop
endfacet
facet normal 0.0 0.0 -1.0
  outer loop
    vertex 7.642990663564678 10.646092245500693 3.608224830031759e-15
    vertex 8.031099043927155 11.079234023600815 3.552713678800501e-15
    vertex 7.703285902289048 10.621117139874535 3.552713678800501e-15
  endloop
endfacet
facet normal 0.0 0.0 -1.0
  outer loop
    vertex 7.703285902289048 10.621117139874535 3.552713678800501e-15
    vertex 8.031099043927155 11.079234023600815 3.552713678800501e-15
    vertex 7.755062597585685 10.581387484225063 3.552713678800501e-15
  endloop
endfacet
facet normal 0.0 0.0 -1.0
  outer loop
    vertex 7.755062597585685 10.581387484225063 3.552713678800501e-15
    vertex 8.031099043927155 11.079234023600815 3.552713678800501e-15
    vertex 7.794792253235157 10.529610788928427 3.552713678800501e-15
  endloop
endfacet
facet normal 0.0 0.0 -1.0
  outer loop
    vertex 7.794792253235157 10.529610788928427 3.552713678800501e-15
    vertex 8.031099043927155 11.079234023600815 3.552713678800501e-15
    vertex 7.8197673588613155 10.469315550204056 3.552713678800501e-15
  endloop
endfacet
facet normal 0.0 0.0 -1.0
  outer loop
    vertex 7.8197673588613155 10.469315550204056 3.552713678800501e-15
    vertex 8.031099043927155 11.079234023600815 3.552713678800501e-15
    vertex 7.828285902289048 10.404610788928427 3.552713678800501e-15
  endloop
endfacet
facet normal 0.0 0.0 -1.0
  outer loop
    vertex 7.125472760650944 9.72998755425605 3.552713678800501e-15
    vertex 7.361779551342939 10.279610788928427 3.608224830031759e-15
    vertex 7.738463560902963 9.60805610299597 3.552713678800501e-15
  endloop
endfacet
facet normal 0.0 0.0 -1.0
  outer loop
    vertex 7.361779551342939 10.279610788928427 3.608224830031759e-15
    vertex 7.125472760650944 9.72998755425605 3.552713678800501e-15
    vertex 7.336804445716781 10.339906027652797 3.608224830031759e-15
  endloop
endfacet
facet normal 0.0 0.0 -1.0
  outer loop
    vertex 7.336804445716781 10.339906027652797 3.608224830031759e-15
    vertex 7.125472760650944 9.72998755425605 3.552713678800501e-15
    vertex 7.328285902289048 10.404610788928427 3.552713678800501e-15
  endloop
endfacet
facet normal 0.0 0.0 -1.0
  outer loop
    vertex 7.738463560902963 9.60805610299597 3.552713678800501e-15
    vertex 7.361779551342939 10.279610788928427 3.608224830031759e-15
    vertex 7.4015092069924115 10.22783409363179 3.552713678800501e-15
  endloop
endfacet
facet normal 0.0 0.0 -1.0
  outer loop
    vertex 7.738463560902963 9.60805610299597 3.552713678800501e-15
    vertex 7.4015092069924115 10.22783409363179 3.552713678800501e-15
    vertex 7.453285902289048 10.188104437982316 3.608224830031759e-15
  endloop
endfacet
facet normal 0.0 0.0 -1.0
  outer loop
    vertex 7.738463560902963 9.60805610299597 3.552713678800501e-15
    vertex 7.453285902289048 10.188104437982316 3.608224830031759e-15
    vertex 7.513581141013418 10.163129332356158 3.608224830031759e-15
  endloop
endfacet
facet normal 0.0 0.0 -1.0
  outer loop
    vertex 7.738463560902963 9.60805610299597 3.552713678800501e-15
    vertex 7.513581141013418 10.163129332356158 3.608224830031759e-15
    vertex 7.578285902289048 10.154610788928427 3.552713678800501e-15
  endloop
endfacet
facet normal 0.0 0.0 -1.0
  outer loop
    vertex 7.738463560902963 9.60805610299597 3.552713678800501e-15
    vertex 7.578285902289048 10.154610788928427 3.552713678800501e-15
    vertex 7.642990663564678 10.16312933235616 3.552713678800501e-15
  endloop
endfacet
facet normal 0.0 0.0 -1.0
  outer loop
    vertex 7.738463560902963 9.60805610299597 3.552713678800501e-15
    vertex 7.642990663564678 10.16312933235616 3.552713678800501e-15
    vertex 7.703285902289048 10.188104437982316 3.608224830031759e-15
  endloop
endfacet
facet normal 0.0 0.0 -1.0
  outer loop
    vertex 7.738463560902963 9.60805610299597 3.552713678800501e-15
    vertex 7.703285902289048 10.188104437982316 3.608224830031759e-15
    vertex 7.755062597585684 10.22783409363179 3.552713678800501e-15
  endloop
endfacet
facet normal 0.0 0.0 -1.0
  outer loop
    vertex 7.738463560902963 9.60805610299597 3.552713678800501e-15
    vertex 7.755062597585684 10.22783409363179 3.552713678800501e-15
    vertex 8.25290913696142 9.951797647290324 3.552713678800501e-15
  endloop
endfacet
facet normal 0.0 0.0 -1.0
  outer loop
    vertex 8.25290913696142 9.951797647290324 3.552713678800501e-15
    vertex 7.755062597585684 10.22783409363179 3.552713678800501e-15
    vertex 7.7947922532351575 10.279610788928427 3.608224830031759e-15
  endloop
endfacet
facet normal 0.0 0.0 -1.0
  outer loop
    vertex 8.25290913696142 9.951797647290324 3.552713678800501e-15
    vertex 7.7947922532351575 10.279610788928427 3.608224830031759e-15
    vertex 7.8197673588613155 10.339906027652797 3.608224830031759e-15
  endloop
endfacet
facet normal 0.0 0.0 -1.0
  outer loop
    vertex 8.25290913696142 9.951797647290324 3.552713678800501e-15
    vertex 7.8197673588613155 10.339906027652797 3.608224830031759e-15
    vertex 7.828285902289048 10.404610788928427 3.552713678800501e-15
  endloop
endfacet
facet normal 0.0 0.0 -1.0
  outer loop
    vertex 8.25290913696142 9.951797647290324 3.552713678800501e-15
    vertex 7.828285902289048 10.404610788928427 3.552713678800501e-15
    vertex 8.031099043927155 11.079234023600815 3.552713678800501e-15
  endloop
endfacet
facet normal 0.0 0.0 -1.0
  outer loop
    vertex 8.25290913696142 9.951797647290324 3.552713678800501e-15
    vertex 8.031099043927155 11.079234023600815 3.552713678800501e-15
    vertex 8.374840588221504 10.56478844754235 3.552713678800501e-15
  endloop
endfacet
facet normal 0.5555702330196044 -0.831469612302544 -1.5711665475389323e-16
  outer loop
    vertex 8.25290913696142 9.951797647290324 0.7500000000000018
    vertex 7.738463560902963 9.60805610299597 3.552713678800501e-15
    vertex 8.25290913696142 9.951797647290324 3.552713678800501e-15
  endloop
endfacet
facet normal 0.5555702330196044 -0.831469612302544 -1.5711665475389323e-16
  outer loop
    vertex 7.738463560902963 9.60805610299597 3.552713678800501e-15
    vertex 8.25290913696142 9.951797647290324 0.7500000000000018
    vertex 7.738463560902963 9.60805610299597 0.7500000000000018
  endloop
endfacet
facet normal 0.19509032201612822 0.9807852804032304 5.951811314347159e-16
  outer loop
    vertex 7.418108243675136 11.201165474860897 0.7500000000000018
    vertex 8.031099043927155 11.079234023600815 3.552713678800501e-15
    vertex 7.418108243675136 11.201165474860897 3.552713678800501e-15
  endloop
endfacet
facet normal 0.19509032201612822 0.9807852804032304 5.951811314347159e-16
  outer loop
    vertex 8.031099043927155 11.079234023600815 3.552713678800501e-15
    vertex 7.418108243675136 11.201165474860897 0.7500000000000018
    vertex 8.031099043927155 11.079234023600815 0.7500000000000018
  endloop
endfacet
facet normal 0.5000000000000102 -0.8660254037844328 2.6290440319979886e-17
  outer loop
    vertex 7.453285902289048 10.621117139874535 3.608224830031759e-15
    vertex 7.4015092069924115 10.581387484225063 5.687500000000002
    vertex 7.401509206992412 10.581387484225061 3.552713678800501e-15
  endloop
endfacet
facet normal 0.7071067811865439 -0.7071067811865512 2.826458222975223e-17
  outer loop
    vertex 7.4015092069924115 10.581387484225063 5.687500000000002
    vertex 7.453285902289048 10.621117139874535 3.608224830031759e-15
    vertex 7.453285902289048 10.621117139874535 5.687500000000002
  endloop
endfacet
facet normal 1.0 -2.254510803598667e-15 -6.65010800611805e-18
  outer loop
    vertex 7.328285902289048 10.404610788928427 3.552713678800501e-15
    vertex 7.336804445716781 10.339906027652797 5.687500000000002
    vertex 7.336804445716781 10.339906027652797 3.608224830031759e-15
  endloop
endfacet
facet normal 0.9659258262890679 0.25881904510252246 -1.722984966241972e-17
  outer loop
    vertex 7.336804445716781 10.339906027652797 5.687500000000002
    vertex 7.328285902289048 10.404610788928427 3.552713678800501e-15
    vertex 7.328285902289048 10.404610788928427 5.687500000000002
  endloop
endfacet
facet normal -0.7071067811865479 -0.7071067811865472 7.065975540539318e-17
  outer loop
    vertex 7.755062597585685 10.581387484225063 5.687500000000002
    vertex 7.703285902289048 10.621117139874535 3.552713678800501e-15
    vertex 7.755062597585685 10.581387484225063 3.552713678800501e-15
  endloop
endfacet
facet normal -0.5000000000000012 -0.8660254037844379 5.69088173398956e-17
  outer loop
    vertex 7.703285902289048 10.621117139874535 3.552713678800501e-15
    vertex 7.755062597585685 10.581387484225063 5.687500000000002
    vertex 7.703285902289048 10.621117139874535 5.687500000000002
  endloop
endfacet
facet normal -0.5000000000000012 -0.866025403784438 5.69088173398956e-17
  outer loop
    vertex 7.703285902289048 10.621117139874535 5.687500000000002
    vertex 7.642990663564678 10.646092245500693 3.608224830031759e-15
    vertex 7.703285902289048 10.621117139874535 3.552713678800501e-15
  endloop
endfacet
facet normal -0.2588190451025248 -0.9659258262890674 3.9080085847262763e-17
  outer loop
    vertex 7.642990663564678 10.646092245500693 3.608224830031759e-15
    vertex 7.703285902289048 10.621117139874535 5.687500000000002
    vertex 7.642990663564678 10.646092245500693 5.687500000000002
  endloop
endfacet
facet normal -0.9659258262890685 0.25881904510252 2.3472001205985246e-18
  outer loop
    vertex 7.095322989144514 10.534020311479686 5.687500000000002
    vertex 7.078285902289048 10.404610788928427 0.7500000000000018
    vertex 7.078285902289048 10.404610788928425 5.687500000000002
  endloop
endfacet
facet normal -1.0 -3.9208883540846393e-16 2.621438472507849e-18
  outer loop
    vertex 7.078285902289048 10.404610788928427 0.7500000000000018
    vertex 7.095322989144514 10.534020311479686 5.687500000000002
    vertex 7.095322989144514 10.534020311479686 0.7500000000000018
  endloop
endfacet
facet normal 0.5000000000000007 -0.8660254037844383 -4.487910702808867e-17
  outer loop
    vertex 7.828285902289049 9.971598087036208 5.687500000000002
    vertex 7.707695424840309 9.921647875783894 0.7500000000000018
    vertex 7.828285902289049 9.971598087036208 0.7500000000000018
  endloop
endfacet
facet normal 0.25881904510252257 -0.965925826289068 -6.453095409300608e-17
  outer loop
    vertex 7.707695424840309 9.921647875783894 0.7500000000000018
    vertex 7.828285902289049 9.971598087036208 5.687500000000002
    vertex 7.707695424840309 9.921647875783892 5.687500000000002
  endloop
endfacet
facet normal -0.866025403784436 -0.5000000000000047 5.4061845822955934e-17
  outer loop
    vertex 7.7947922532351575 10.529610788928427 5.687500000000002
    vertex 7.8197673588613155 10.469315550204056 3.552713678800501e-15
    vertex 7.8197673588613155 10.469315550204056 5.687500000000002
  endloop
endfacet
facet normal -0.9659258262890673 -0.25881904510252524 1.5202508753908504e-17
  outer loop
    vertex 7.8197673588613155 10.469315550204056 3.552713678800501e-15
    vertex 7.7947922532351575 10.529610788928427 5.687500000000002
    vertex 7.794792253235157 10.529610788928427 3.552713678800501e-15
  endloop
endfacet
facet normal 0.9659258262890675 0.25881904510252396 -1.8253341958405455e-16
  outer loop
    vertex 8.061248815433583 10.534020311479686 0.7500000000000018
    vertex 8.07828590228905 10.404610788928428 5.687500000000002
    vertex 8.078285902289048 10.404610788928427 0.7500000000000018
  endloop
endfacet
facet normal 1.0 -1.5237997921556213e-15 -1.7253695346018731e-16
  outer loop
    vertex 8.07828590228905 10.404610788928428 5.687500000000002
    vertex 8.061248815433583 10.534020311479686 0.7500000000000018
    vertex 8.061248815433583 10.534020311479688 5.687500000000002
  endloop
endfacet
facet normal -0.9659258262890682 0.2588190451025218 -2.6227344059645997e-17
  outer loop
    vertex 7.8197673588613155 10.339906027652797 5.687500000000002
    vertex 7.828285902289048 10.404610788928427 3.552713678800501e-15
    vertex 7.8197673588613155 10.339906027652797 3.608224830031759e-15
  endloop
endfacet
facet normal -1.0 -4.901110442605796e-16 -5.235886811377008e-18
  outer loop
    vertex 7.828285902289048 10.404610788928427 3.552713678800501e-15
    vertex 7.8197673588613155 10.339906027652797 5.687500000000002
    vertex 7.828285902289048 10.404610788928427 5.687500000000002
  endloop
endfacet
facet normal -0.7071067811865488 0.7071067811865462 1.0298282373119248e-16
  outer loop
    vertex 7.224732511695775 10.7581641795217 5.687500000000002
    vertex 7.328285902289047 10.837623490820645 0.7500000000000018
    vertex 7.224732511695774 10.7581641795217 0.7500000000000018
  endloop
endfacet
facet normal -0.5000000000000037 0.8660254037844366 6.459877246849745e-17
  outer loop
    vertex 7.328285902289047 10.837623490820645 0.7500000000000018
    vertex 7.224732511695775 10.7581641795217 5.687500000000002
    vertex 7.328285902289047 10.837623490820645 5.687500000000002
  endloop
endfacet
facet normal 0.0 0.0 1.0
  outer loop
    vertex 7.095322989144514 10.275201266377167 5.687500000000002
    vertex 7.095322989144514 10.534020311479686 5.687500000000002
    vertex 7.078285902289048 10.404610788928425 5.687500000000002
  endloop
endfacet
facet normal 0.0 0.0 1.0
  outer loop
    vertex 7.095322989144514 10.534020311479686 5.687500000000002
    vertex 7.095322989144514 10.275201266377167 5.687500000000002
    vertex 7.145273200396829 10.154610788928425 5.687500000000002
  endloop
endfacet
facet normal 0.0 0.0 1.0
  outer loop
    vertex 7.095322989144514 10.534020311479686 5.687500000000002
    vertex 7.145273200396829 10.154610788928425 5.687500000000002
    vertex 7.1452732003968285 10.654610788928427 5.687500000000002
  endloop
endfacet
facet normal 0.0 0.0 1.0
  outer loop
    vertex 7.1452732003968285 10.654610788928427 5.687500000000002
    vertex 7.145273200396829 10.154610788928425 5.687500000000002
    vertex 7.224732511695775 10.7581641795217 5.687500000000002
  endloop
endfacet
facet normal 0.0 0.0 1.0
  outer loop
    vertex 7.224732511695775 10.7581641795217 5.687500000000002
    vertex 7.145273200396829 10.154610788928425 5.687500000000002
    vertex 7.224732511695775 10.051057398335152 5.687500000000002
  endloop
endfacet
facet normal 0.0 0.0 1.0
  outer loop
    vertex 7.224732511695775 10.7581641795217 5.687500000000002
    vertex 7.224732511695775 10.051057398335152 5.687500000000002
    vertex 7.328285902289049 9.971598087036208 5.687500000000002
  endloop
endfacet
facet normal 0.0 0.0 1.0
  outer loop
    vertex 7.224732511695775 10.7581641795217 5.687500000000002
    vertex 7.328285902289049 9.971598087036208 5.687500000000002
    vertex 7.328285902289048 10.404610788928427 5.687500000000002
  endloop
endfacet
facet normal 0.0 0.0 1.0
  outer loop
    vertex 7.224732511695775 10.7581641795217 5.687500000000002
    vertex 7.328285902289048 10.404610788928427 5.687500000000002
    vertex 7.328285902289047 10.837623490820645 5.687500000000002
  endloop
endfacet
facet normal 0.0 0.0 1.0
  outer loop
    vertex 7.328285902289048 10.404610788928427 5.687500000000002
    vertex 7.328285902289049 9.971598087036208 5.687500000000002
    vertex 7.336804445716781 10.339906027652797 5.687500000000002
  endloop
endfacet
facet normal 0.0 0.0 1.0
  outer loop
    vertex 7.336804445716781 10.339906027652797 5.687500000000002
    vertex 7.328285902289049 9.971598087036208 5.687500000000002
    vertex 7.448876379737788 9.921647875783894 5.687500000000002
  endloop
endfacet
facet normal 0.0 0.0 1.0
  outer loop
    vertex 7.336804445716781 10.339906027652797 5.687500000000002
    vertex 7.448876379737788 9.921647875783894 5.687500000000002
    vertex 7.361779551342939 10.279610788928427 5.687500000000002
  endloop
endfacet
facet normal 0.0 0.0 1.0
  outer loop
    vertex 7.361779551342939 10.279610788928427 5.687500000000002
    vertex 7.448876379737788 9.921647875783894 5.687500000000002
    vertex 7.4015092069924115 10.22783409363179 5.687500000000002
  endloop
endfacet
facet normal 0.0 0.0 1.0
  outer loop
    vertex 7.4015092069924115 10.22783409363179 5.687500000000002
    vertex 7.448876379737788 9.921647875783894 5.687500000000002
    vertex 7.453285902289048 10.188104437982318 5.687500000000002
  endloop
endfacet
facet normal 0.0 0.0 1.0
  outer loop
    vertex 7.453285902289048 10.188104437982318 5.687500000000002
    vertex 7.448876379737788 9.921647875783894 5.687500000000002
    vertex 7.578285902289049 9.904610788928427 5.687500000000002
  endloop
endfacet
facet normal 0.0 0.0 1.0
  outer loop
    vertex 7.453285902289048 10.188104437982318 5.687500000000002
    vertex 7.578285902289049 9.904610788928427 5.687500000000002
    vertex 7.513581141013418 10.16312933235616 5.687500000000002
  endloop
endfacet
facet normal 0.0 0.0 1.0
  outer loop
    vertex 7.513581141013418 10.16312933235616 5.687500000000002
    vertex 7.578285902289049 9.904610788928427 5.687500000000002
    vertex 7.578285902289048 10.154610788928427 5.687500000000002
  endloop
endfacet
facet normal 0.0 0.0 1.0
  outer loop
    vertex 7.578285902289048 10.154610788928427 5.687500000000002
    vertex 7.578285902289049 9.904610788928427 5.687500000000002
    vertex 7.642990663564678 10.16312933235616 5.687500000000002
  endloop
endfacet
facet normal 0.0 0.0 1.0
  outer loop
    vertex 7.642990663564678 10.16312933235616 5.687500000000002
    vertex 7.578285902289049 9.904610788928427 5.687500000000002
    vertex 7.707695424840309 9.921647875783892 5.687500000000002
  endloop
endfacet
facet normal 0.0 0.0 1.0
  outer loop
    vertex 7.642990663564678 10.16312933235616 5.687500000000002
    vertex 7.707695424840309 9.921647875783892 5.687500000000002
    vertex 7.703285902289048 10.188104437982318 5.687500000000002
  endloop
endfacet
facet normal 0.0 0.0 1.0
  outer loop
    vertex 7.703285902289048 10.188104437982318 5.687500000000002
    vertex 7.707695424840309 9.921647875783892 5.687500000000002
    vertex 7.755062597585685 10.22783409363179 5.687500000000003
  endloop
endfacet
facet normal 0.0 0.0 1.0
  outer loop
    vertex 7.755062597585685 10.22783409363179 5.687500000000003
    vertex 7.707695424840309 9.921647875783892 5.687500000000002
    vertex 7.828285902289049 9.971598087036208 5.687500000000002
  endloop
endfacet
facet normal 0.0 0.0 1.0
  outer loop
    vertex 7.755062597585685 10.22783409363179 5.687500000000003
    vertex 7.828285902289049 9.971598087036208 5.687500000000002
    vertex 7.7947922532351575 10.279610788928427 5.687500000000002
  endloop
endfacet
facet normal 0.0 0.0 1.0
  outer loop
    vertex 7.7947922532351575 10.279610788928427 5.687500000000002
    vertex 7.828285902289049 9.971598087036208 5.687500000000002
    vertex 7.8197673588613155 10.339906027652797 5.687500000000002
  endloop
endfacet
facet normal 0.0 0.0 1.0
  outer loop
    vertex 7.8197673588613155 10.339906027652797 5.687500000000002
    vertex 7.828285902289049 9.971598087036208 5.687500000000002
    vertex 7.828285902289048 10.404610788928427 5.687500000000002
  endloop
endfacet
facet normal 0.0 0.0 1.0
  outer loop
    vertex 7.328285902289047 10.837623490820645 5.687500000000002
    vertex 7.336804445716781 10.469315550204056 5.687500000000002
    vertex 7.448876379737787 10.88757370207296 5.687500000000002
  endloop
endfacet
facet normal 0.0 0.0 1.0
  outer loop
    vertex 7.336804445716781 10.469315550204056 5.687500000000002
    vertex 7.328285902289047 10.837623490820645 5.687500000000002
    vertex 7.328285902289048 10.404610788928427 5.687500000000002
  endloop
endfacet
facet normal 0.0 0.0 1.0
  outer loop
    vertex 7.448876379737787 10.88757370207296 5.687500000000002
    vertex 7.336804445716781 10.469315550204056 5.687500000000002
    vertex 7.361779551342938 10.529610788928427 5.687500000000002
  endloop
endfacet
facet normal 0.0 0.0 1.0
  outer loop
    vertex 7.448876379737787 10.88757370207296 5.687500000000002
    vertex 7.361779551342938 10.529610788928427 5.687500000000002
    vertex 7.4015092069924115 10.581387484225063 5.687500000000002
  endloop
endfacet
facet normal 0.0 0.0 1.0
  outer loop
    vertex 7.448876379737787 10.88757370207296 5.687500000000002
    vertex 7.4015092069924115 10.581387484225063 5.687500000000002
    vertex 7.453285902289048 10.621117139874535 5.687500000000002
  endloop
endfacet
facet normal 0.0 0.0 1.0
  outer loop
    vertex 7.448876379737787 10.88757370207296 5.687500000000002
    vertex 7.453285902289048 10.621117139874535 5.687500000000002
    vertex 7.578285902289047 10.904610788928427 5.687500000000002
  endloop
endfacet
facet normal 0.0 0.0 1.0
  outer loop
    vertex 7.578285902289047 10.904610788928427 5.687500000000002
    vertex 7.453285902289048 10.621117139874535 5.687500000000002
    vertex 7.513581141013418 10.646092245500693 5.687500000000002
  endloop
endfacet
facet normal 0.0 0.0 1.0
  outer loop
    vertex 7.578285902289047 10.904610788928427 5.687500000000002
    vertex 7.513581141013418 10.646092245500693 5.687500000000002
    vertex 7.578285902289048 10.654610788928427 5.687500000000002
  endloop
endfacet
facet normal 0.0 0.0 1.0
  outer loop
    vertex 7.578285902289047 10.904610788928427 5.687500000000002
    vertex 7.578285902289048 10.654610788928427 5.687500000000002
    vertex 7.707695424840308 10.88757370207296 5.687500000000002
  endloop
endfacet
facet normal 0.0 0.0 1.0
  outer loop
    vertex 7.707695424840308 10.88757370207296 5.687500000000002
    vertex 7.578285902289048 10.654610788928427 5.687500000000002
    vertex 7.642990663564678 10.646092245500693 5.687500000000002
  endloop
endfacet
facet normal 0.0 0.0 1.0
  outer loop
    vertex 7.707695424840308 10.88757370207296 5.687500000000002
    vertex 7.642990663564678 10.646092245500693 5.687500000000002
    vertex 7.703285902289048 10.621117139874535 5.687500000000002
  endloop
endfacet
facet normal 0.0 0.0 1.0
  outer loop
    vertex 7.707695424840308 10.88757370207296 5.687500000000002
    vertex 7.703285902289048 10.621117139874535 5.687500000000002
    vertex 7.755062597585685 10.581387484225063 5.687500000000002
  endloop
endfacet
facet normal 0.0 0.0 1.0
  outer loop
    vertex 7.707695424840308 10.88757370207296 5.687500000000002
    vertex 7.755062597585685 10.581387484225063 5.687500000000002
    vertex 7.828285902289047 10.837623490820647 5.687500000000002
  endloop
endfacet
facet normal 0.0 0.0 1.0
  outer loop
    vertex 7.828285902289047 10.837623490820647 5.687500000000002
    vertex 7.755062597585685 10.581387484225063 5.687500000000002
    vertex 7.7947922532351575 10.529610788928427 5.687500000000002
  endloop
endfacet
facet normal 0.0 0.0 1.0
  outer loop
    vertex 7.828285902289047 10.837623490820647 5.687500000000002
    vertex 7.7947922532351575 10.529610788928427 5.687500000000002
    vertex 7.8197673588613155 10.469315550204056 5.687500000000002
  endloop
endfacet
facet normal 0.0 0.0 1.0
  outer loop
    vertex 7.828285902289047 10.837623490820647 5.687500000000002
    vertex 7.8197673588613155 10.469315550204056 5.687500000000002
    vertex 7.828285902289048 10.404610788928427 5.687500000000002
  endloop
endfacet
facet normal 0.0 0.0 1.0
  outer loop
    vertex 7.828285902289047 10.837623490820647 5.687500000000002
    vertex 7.828285902289048 10.404610788928427 5.687500000000002
    vertex 7.931839292882321 10.758164179521701 5.687500000000002
  endloop
endfacet
facet normal 0.0 0.0 1.0
  outer loop
    vertex 7.931839292882321 10.758164179521701 5.687500000000002
    vertex 7.828285902289048 10.404610788928427 5.687500000000002
    vertex 7.828285902289049 9.971598087036208 5.687500000000002
  endloop
endfacet
facet normal 0.0 0.0 1.0
  outer loop
    vertex 7.931839292882321 10.758164179521701 5.687500000000002
    vertex 7.828285902289049 9.971598087036208 5.687500000000002
    vertex 7.931839292882323 10.051057398335153 5.687500000000002
  endloop
endfacet
facet normal 0.0 0.0 1.0
  outer loop
    vertex 7.931839292882321 10.758164179521701 5.687500000000002
    vertex 7.931839292882323 10.051057398335153 5.687500000000002
    vertex 8.011298604181267 10.654610788928428 5.687500000000002
  endloop
endfacet
facet normal 0.0 0.0 1.0
  outer loop
    vertex 8.011298604181267 10.654610788928428 5.687500000000002
    vertex 7.931839292882323 10.051057398335153 5.687500000000002
    vertex 8.011298604181267 10.154610788928427 5.687500000000002
  endloop
endfacet
facet normal 0.0 0.0 1.0
  outer loop
    vertex 8.011298604181267 10.654610788928428 5.687500000000002
    vertex 8.011298604181267 10.154610788928427 5.687500000000002
    vertex 8.061248815433583 10.534020311479688 5.687500000000002
  endloop
endfacet
facet normal 0.0 0.0 1.0
  outer loop
    vertex 8.061248815433583 10.534020311479688 5.687500000000002
    vertex 8.011298604181267 10.154610788928427 5.687500000000002
    vertex 8.061248815433583 10.275201266377167 5.687500000000002
  endloop
endfacet
facet normal 0.0 0.0 1.0
  outer loop
    vertex 8.061248815433583 10.534020311479688 5.687500000000002
    vertex 8.061248815433583 10.275201266377167 5.687500000000002
    vertex 8.07828590228905 10.404610788928428 5.687500000000002
  endloop
endfacet
facet normal 0.2588190451025186 0.9659258262890689 4.3003759518917266e-17
  outer loop
    vertex 7.707695424840308 10.88757370207296 5.687500000000002
    vertex 7.828285902289047 10.837623490820647 0.7500000000000018
    vertex 7.707695424840308 10.88757370207296 0.7500000000000018
  endloop
endfacet
facet normal 0.4999999999999975 0.86602540378444 -3.8777104675276374e-17
  outer loop
    vertex 7.828285902289047 10.837623490820647 0.7500000000000018
    vertex 7.707695424840308 10.88757370207296 5.687500000000002
    vertex 7.828285902289047 10.837623490820647 5.687500000000002
  endloop
endfacet
facet normal -0.866025403784436 -0.5000000000000047 5.4061845822955934e-17
  outer loop
    vertex 7.7947922532351575 10.529610788928427 5.687500000000002
    vertex 7.755062597585685 10.581387484225063 3.552713678800501e-15
    vertex 7.794792253235157 10.529610788928427 3.552713678800501e-15
  endloop
endfacet
facet normal -0.7071067811865478 -0.7071067811865472 7.065975540539317e-17
  outer loop
    vertex 7.755062597585685 10.581387484225063 3.552713678800501e-15
    vertex 7.7947922532351575 10.529610788928427 5.687500000000002
    vertex 7.755062597585685 10.581387484225063 5.687500000000002
  endloop
endfacet
facet normal -0.500000000000011 0.8660254037844325 -6.165219312518096e-18
  outer loop
    vertex 7.703285902289048 10.188104437982316 3.608224830031759e-15
    vertex 7.755062597585685 10.22783409363179 5.687500000000003
    vertex 7.755062597585684 10.22783409363179 3.552713678800501e-15
  endloop
endfacet
facet normal -0.7071067811865482 0.7071067811865469 -3.7253319169775076e-18
  outer loop
    vertex 7.755062597585685 10.22783409363179 5.687500000000003
    vertex 7.703285902289048 10.188104437982316 3.608224830031759e-15
    vertex 7.703285902289048 10.188104437982318 5.687500000000002
  endloop
endfacet
facet normal -0.4999999999999978 -0.8660254037844402 4.072880180244284e-17
  outer loop
    vertex 7.328285902289049 9.971598087036208 5.687500000000002
    vertex 7.224732511695775 10.051057398335153 0.7500000000000018
    vertex 7.328285902289049 9.971598087036206 0.7500000000000018
  endloop
endfacet
facet normal -0.7071067811865452 -0.7071067811865498 -2.45482846572034e-17
  outer loop
    vertex 7.224732511695775 10.051057398335153 0.7500000000000018
    vertex 7.328285902289049 9.971598087036208 5.687500000000002
    vertex 7.224732511695775 10.051057398335152 5.687500000000002
  endloop
endfacet
facet normal 0.8660254037844336 -0.5000000000000091 -1.5672119065545926e-17
  outer loop
    vertex 7.361779551342938 10.529610788928427 3.552713678800501e-15
    vertex 7.4015092069924115 10.581387484225063 5.687500000000002
    vertex 7.361779551342938 10.529610788928427 5.687500000000002
  endloop
endfacet
facet normal 0.7071067811865439 -0.7071067811865512 2.826458222975223e-17
  outer loop
    vertex 7.4015092069924115 10.581387484225063 5.687500000000002
    vertex 7.361779551342938 10.529610788928427 3.552713678800501e-15
    vertex 7.401509206992412 10.581387484225061 3.552713678800501e-15
  endloop
endfacet
facet normal 1.0 -1.5327109020512682e-15 -1.7253695346018731e-16
  outer loop
    vertex 8.078285902289048 10.404610788928427 0.7500000000000018
    vertex 8.061248815433583 10.275201266377167 5.687500000000002
    vertex 8.061248815433583 10.275201266377167 0.7500000000000018
  endloop
endfacet
facet normal 0.965925826289068 -0.25881904510252207 -6.471387766161137e-17
  outer loop
    vertex 8.061248815433583 10.275201266377167 5.687500000000002
    vertex 8.078285902289048 10.404610788928427 0.7500000000000018
    vertex 8.07828590228905 10.404610788928428 5.687500000000002
  endloop
endfacet
facet normal 0.5000000000000066 0.866025403784435 -5.454879411080163e-19
  outer loop
    vertex 7.453285902289048 10.188104437982318 5.687500000000002
    vertex 7.513581141013418 10.163129332356158 3.608224830031759e-15
    vertex 7.453285902289048 10.188104437982316 3.608224830031759e-15
  endloop
endfacet
facet normal 0.2588190451025214 0.9659258262890681 -8.505446210722543e-18
  outer loop
    vertex 7.513581141013418 10.163129332356158 3.608224830031759e-15
    vertex 7.453285902289048 10.188104437982318 5.687500000000002
    vertex 7.513581141013418 10.16312933235616 5.687500000000002
  endloop
endfacet
facet normal 0.25881904510252257 -0.965925826289068 -6.453095409300608e-17
  outer loop
    vertex 7.707695424840309 9.921647875783892 5.687500000000002
    vertex 7.578285902289049 9.904610788928427 0.7500000000000018
    vertex 7.707695424840309 9.921647875783894 0.7500000000000018
  endloop
endfacet
facet normal -8.198221103995154e-16 -1.0 -3.2836543944713903e-17
  outer loop
    vertex 7.578285902289049 9.904610788928427 0.7500000000000018
    vertex 7.707695424840309 9.921647875783892 5.687500000000002
    vertex 7.578285902289049 9.904610788928427 5.687500000000002
  endloop
endfacet
facet normal -0.8660254037844377 -0.5000000000000018 -4.313818072453677e-17
  outer loop
    vertex 7.145273200396829 10.154610788928425 5.687500000000002
    vertex 7.224732511695775 10.051057398335153 0.7500000000000018
    vertex 7.224732511695775 10.051057398335152 5.687500000000002
  endloop
endfacet
facet normal -0.7071067811865452 -0.7071067811865498 -2.45482846572034e-17
  outer loop
    vertex 7.224732511695775 10.051057398335153 0.7500000000000018
    vertex 7.145273200396829 10.154610788928425 5.687500000000002
    vertex 7.145273200396829 10.154610788928427 0.7500000000000018
  endloop
endfacet
facet normal 0.7071067811865498 -0.7071067811865455 -1.6980394205722006e-17
  outer loop
    vertex 7.931839292882323 10.051057398335153 5.687500000000002
    vertex 7.828285902289049 9.971598087036208 0.7500000000000018
    vertex 7.931839292882323 10.051057398335153 0.7500000000000018
  endloop
endfacet
facet normal 0.5000000000000007 -0.8660254037844383 -4.487910702808867e-17
  outer loop
    vertex 7.828285902289049 9.971598087036208 0.7500000000000018
    vertex 7.931839292882323 10.051057398335153 5.687500000000002
    vertex 7.828285902289049 9.971598087036208 5.687500000000002
  endloop
endfacet
facet normal -1.0 -3.9208883540846393e-16 2.621438472507849e-18
  outer loop
    vertex 7.078285902289048 10.404610788928425 5.687500000000002
    vertex 7.095322989144514 10.275201266377167 0.7500000000000018
    vertex 7.095322989144514 10.275201266377167 5.687500000000002
  endloop
endfacet
facet normal -0.965925826289068 -0.258819045102522 -1.5255998229528353e-17
  outer loop
    vertex 7.095322989144514 10.275201266377167 0.7500000000000018
    vertex 7.078285902289048 10.404610788928425 5.687500000000002
    vertex 7.078285902289048 10.404610788928427 0.7500000000000018
  endloop
endfacet
facet normal -4.116932771788869e-15 -1.0 1.3971686843712806e-17
  outer loop
    vertex 7.578285902289048 10.654610788928427 5.687500000000002
    vertex 7.513581141013418 10.646092245500693 3.552713678800501e-15
    vertex 7.578285902289048 10.654610788928427 3.552713678800501e-15
  endloop
endfacet
facet normal 0.2588190451025212 -0.9659258262890682 -4.139887376864649e-19
  outer loop
    vertex 7.513581141013418 10.646092245500693 3.552713678800501e-15
    vertex 7.578285902289048 10.654610788928427 5.687500000000002
    vertex 7.513581141013418 10.646092245500693 5.687500000000002
  endloop
endfacet
facet normal -0.8660254037844387 0.5000000000000003 4.679601718280697e-17
  outer loop
    vertex 7.1452732003968285 10.654610788928427 5.687500000000002
    vertex 7.095322989144514 10.534020311479686 0.7500000000000018
    vertex 7.095322989144514 10.534020311479686 5.687500000000002
  endloop
endfacet
facet normal -0.9659258262890685 0.25881904510252 2.3472001205985246e-18
  outer loop
    vertex 7.095322989144514 10.534020311479686 0.7500000000000018
    vertex 7.1452732003968285 10.654610788928427 5.687500000000002
    vertex 7.1452732003968285 10.654610788928427 0.7500000000000018
  endloop
endfacet
facet normal -0.2588190451025216 0.9659258262890682 -9.3808475620178e-18
  outer loop
    vertex 7.642990663564678 10.16312933235616 5.687500000000002
    vertex 7.703285902289048 10.188104437982316 3.608224830031759e-15
    vertex 7.642990663564678 10.16312933235616 3.552713678800501e-15
  endloop
endfacet
facet normal -0.500000000000011 0.8660254037844325 -6.165219312518096e-18
  outer loop
    vertex 7.703285902289048 10.188104437982316 3.608224830031759e-15
    vertex 7.642990663564678 10.16312933235616 5.687500000000002
    vertex 7.703285902289048 10.188104437982318 5.687500000000002
  endloop
endfacet
facet normal 0.7071067811865464 0.7071067811865488 -6.506670596173778e-17
  outer loop
    vertex 7.931839292882321 10.7581641795217 0.7500000000000018
    vertex 8.011298604181267 10.654610788928428 5.687500000000002
    vertex 8.011298604181267 10.654610788928427 0.7500000000000018
  endloop
endfacet
facet normal 0.8660254037844368 0.5000000000000036 -9.701368592132382e-17
  outer loop
    vertex 8.011298604181267 10.654610788928428 5.687500000000002
    vertex 7.931839292882321 10.7581641795217 0.7500000000000018
    vertex 7.931839292882321 10.758164179521701 5.687500000000002
  endloop
endfacet
facet normal 0.8660254037844368 0.5000000000000036 -9.701368592132382e-17
  outer loop
    vertex 8.011298604181267 10.654610788928427 0.7500000000000018
    vertex 8.061248815433583 10.534020311479688 5.687500000000002
    vertex 8.061248815433583 10.534020311479686 0.7500000000000018
  endloop
endfacet
facet normal 0.9659258262890675 0.25881904510252396 -1.8253341958405453e-16
  outer loop
    vertex 8.061248815433583 10.534020311479688 5.687500000000002
    vertex 8.011298604181267 10.654610788928427 0.7500000000000018
    vertex 8.011298604181267 10.654610788928428 5.687500000000002
  endloop
endfacet
facet normal 0.8660254037844347 0.5000000000000069 -1.9341593793397323e-18
  outer loop
    vertex 7.361779551342939 10.279610788928427 3.608224830031759e-15
    vertex 7.4015092069924115 10.22783409363179 5.687500000000002
    vertex 7.4015092069924115 10.22783409363179 3.552713678800501e-15
  endloop
endfacet
facet normal 0.7071067811865472 0.7071067811865479 1.1894883958087758e-17
  outer loop
    vertex 7.4015092069924115 10.22783409363179 5.687500000000002
    vertex 7.361779551342939 10.279610788928427 3.608224830031759e-15
    vertex 7.361779551342939 10.279610788928427 5.687500000000002
  endloop
endfacet
facet normal -0.8660254037844322 0.5000000000000112 -2.5407644501846915e-17
  outer loop
    vertex 7.7947922532351575 10.279610788928427 5.687500000000002
    vertex 7.8197673588613155 10.339906027652797 3.608224830031759e-15
    vertex 7.7947922532351575 10.279610788928427 3.608224830031759e-15
  endloop
endfacet
facet normal -0.9659258262890682 0.25881904510252174 -2.6227344059645994e-17
  outer loop
    vertex 7.8197673588613155 10.339906027652797 3.608224830031759e-15
    vertex 7.7947922532351575 10.279610788928427 5.687500000000002
    vertex 7.8197673588613155 10.339906027652797 5.687500000000002
  endloop
endfacet
facet normal 0.965925826289068 -0.25881904510252207 -6.471387766161137e-17
  outer loop
    vertex 8.061248815433583 10.275201266377167 0.7500000000000018
    vertex 8.011298604181267 10.154610788928427 5.687500000000002
    vertex 8.011298604181267 10.154610788928427 0.7500000000000018
  endloop
endfacet
facet normal 0.8660254037844408 -0.4999999999999965 -8.849931788086861e-18
  outer loop
    vertex 8.011298604181267 10.154610788928427 5.687500000000002
    vertex 8.061248815433583 10.275201266377167 0.7500000000000018
    vertex 8.061248815433583 10.275201266377167 5.687500000000002
  endloop
endfacet
facet normal 0.7071067811865472 0.7071067811865479 1.1894883958087758e-17
  outer loop
    vertex 7.4015092069924115 10.22783409363179 5.687500000000002
    vertex 7.453285902289048 10.188104437982316 3.608224830031759e-15
    vertex 7.4015092069924115 10.22783409363179 3.552713678800501e-15
  endloop
endfacet
facet normal 0.5000000000000066 0.866025403784435 -5.454879411080132e-19
  outer loop
    vertex 7.453285902289048 10.188104437982316 3.608224830031759e-15
    vertex 7.4015092069924115 10.22783409363179 5.687500000000002
    vertex 7.453285902289048 10.188104437982318 5.687500000000002
  endloop
endfacet
facet normal 0.965925826289068 0.2588190451025224 -1.722984966241972e-17
  outer loop
    vertex 7.336804445716781 10.339906027652797 3.608224830031759e-15
    vertex 7.361779551342939 10.279610788928427 5.687500000000002
    vertex 7.361779551342939 10.279610788928427 3.608224830031759e-15
  endloop
endfacet
facet normal 0.8660254037844347 0.5000000000000068 -1.934159379339737e-18
  outer loop
    vertex 7.361779551342939 10.279610788928427 5.687500000000002
    vertex 7.336804445716781 10.339906027652797 3.608224830031759e-15
    vertex 7.336804445716781 10.339906027652797 5.687500000000002
  endloop
endfacet
facet normal -0.2588190451025248 -0.9659258262890674 3.9080085847262763e-17
  outer loop
    vertex 7.642990663564678 10.646092245500693 3.608224830031759e-15
    vertex 7.578285902289048 10.654610788928427 5.687500000000002
    vertex 7.578285902289048 10.654610788928427 3.552713678800501e-15
  endloop
endfacet
facet normal -4.116932771788869e-15 -1.0 1.3971686843712806e-17
  outer loop
    vertex 7.578285902289048 10.654610788928427 5.687500000000002
    vertex 7.642990663564678 10.646092245500693 3.608224830031759e-15
    vertex 7.642990663564678 10.646092245500693 5.687500000000002
  endloop
endfacet
facet normal -0.5000000000000037 0.8660254037844366 6.459877246849745e-17
  outer loop
    vertex 7.328285902289047 10.837623490820645 5.687500000000002
    vertex 7.448876379737787 10.88757370207296 0.7500000000000018
    vertex 7.328285902289047 10.837623490820645 0.7500000000000018
  endloop
endfacet
facet normal -0.2588190451025218 0.9659258262890682 3.746760958399319e-17
  outer loop
    vertex 7.448876379737787 10.88757370207296 0.7500000000000018
    vertex 7.328285902289047 10.837623490820645 5.687500000000002
    vertex 7.448876379737787 10.88757370207296 5.687500000000002
  endloop
endfacet
facet normal 2.0495552759987884e-16 1.0 7.337774603943635e-17
  outer loop
    vertex 7.578285902289047 10.904610788928427 5.687500000000002
    vertex 7.707695424840308 10.88757370207296 0.7500000000000018
    vertex 7.578285902289047 10.904610788928427 0.7500000000000018
  endloop
endfacet
facet normal 0.2588190451025186 0.9659258262890689 4.3003759518917266e-17
  outer loop
    vertex 7.707695424840308 10.88757370207296 0.7500000000000018
    vertex 7.578285902289047 10.904610788928427 5.687500000000002
    vertex 7.707695424840308 10.88757370207296 5.687500000000002
  endloop
endfacet
facet normal -0.2588190451025218 0.9659258262890682 3.746760958399319e-17
  outer loop
    vertex 7.448876379737787 10.88757370207296 5.687500000000002
    vertex 7.578285902289047 10.904610788928427 0.7500000000000018
    vertex 7.448876379737787 10.88757370207296 0.7500000000000018
  endloop
endfacet
facet normal 2.0495552759987884e-16 1.0 7.337774603943635e-17
  outer loop
    vertex 7.578285902289047 10.904610788928427 0.7500000000000018
    vertex 7.448876379737787 10.88757370207296 5.687500000000002
    vertex 7.578285902289047 10.904610788928427 5.687500000000002
  endloop
endfacet
facet normal -0.7071067811865488 0.7071067811865462 1.0298282373119248e-16
  outer loop
    vertex 7.224732511695775 10.7581641795217 5.687500000000002
    vertex 7.1452732003968285 10.654610788928427 0.7500000000000018
    vertex 7.1452732003968285 10.654610788928427 5.687500000000002
  endloop
endfacet
facet normal -0.8660254037844387 0.5000000000000003 4.679601718280697e-17
  outer loop
    vertex 7.1452732003968285 10.654610788928427 0.7500000000000018
    vertex 7.224732511695775 10.7581641795217 5.687500000000002
    vertex 7.224732511695774 10.7581641795217 0.7500000000000018
  endloop
endfacet
facet normal -0.2588190451025214 -0.9659258262890682 3.791950986163976e-17
  outer loop
    vertex 7.448876379737788 9.921647875783894 5.687500000000002
    vertex 7.328285902289049 9.971598087036206 0.7500000000000018
    vertex 7.448876379737788 9.921647875783894 0.7500000000000018
  endloop
endfacet
facet normal -0.4999999999999978 -0.8660254037844402 4.072880180244284e-17
  outer loop
    vertex 7.328285902289049 9.971598087036206 0.7500000000000018
    vertex 7.448876379737788 9.921647875783894 5.687500000000002
    vertex 7.328285902289049 9.971598087036208 5.687500000000002
  endloop
endfacet
facet normal -0.7071067811865482 0.7071067811865469 -3.7253319169775076e-18
  outer loop
    vertex 7.755062597585685 10.22783409363179 5.687500000000003
    vertex 7.7947922532351575 10.279610788928427 3.608224830031759e-15
    vertex 7.755062597585684 10.22783409363179 3.552713678800501e-15
  endloop
endfacet
facet normal -0.8660254037844325 0.5000000000000109 -2.540764450184699e-17
  outer loop
    vertex 7.7947922532351575 10.279610788928427 3.608224830031759e-15
    vertex 7.755062597585685 10.22783409363179 5.687500000000003
    vertex 7.7947922532351575 10.279610788928427 5.687500000000002
  endloop
endfacet
facet normal -9.089332093559836e-16 1.0 -5.190749674677463e-18
  outer loop
    vertex 7.578285902289048 10.154610788928427 5.687500000000002
    vertex 7.642990663564678 10.16312933235616 3.552713678800501e-15
    vertex 7.578285902289048 10.154610788928427 3.552713678800501e-15
  endloop
endfacet
facet normal -0.2588190451025215 0.9659258262890681 -9.380847562017799e-18
  outer loop
    vertex 7.642990663564678 10.16312933235616 3.552713678800501e-15
    vertex 7.578285902289048 10.154610788928427 5.687500000000002
    vertex 7.642990663564678 10.16312933235616 5.687500000000002
  endloop
endfacet
facet normal -0.965925826289068 -0.258819045102522 -1.5255998229528353e-17
  outer loop
    vertex 7.095322989144514 10.275201266377167 5.687500000000002
    vertex 7.145273200396829 10.154610788928427 0.7500000000000018
    vertex 7.145273200396829 10.154610788928425 5.687500000000002
  endloop
endfacet
facet normal -0.8660254037844377 -0.5000000000000018 -4.313818072453677e-17
  outer loop
    vertex 7.145273200396829 10.154610788928427 0.7500000000000018
    vertex 7.095322989144514 10.275201266377167 5.687500000000002
    vertex 7.095322989144514 10.275201266377167 0.7500000000000018
  endloop
endfacet
facet normal 0.4999999999999975 0.86602540378444 -3.8777104675276374e-17
  outer loop
    vertex 7.828285902289047 10.837623490820647 5.687500000000002
    vertex 7.931839292882321 10.7581641795217 0.7500000000000018
    vertex 7.828285902289047 10.837623490820647 0.7500000000000018
  endloop
endfacet
facet normal 0.7071067811865464 0.7071067811865488 -6.506670596173778e-17
  outer loop
    vertex 7.931839292882321 10.7581641795217 0.7500000000000018
    vertex 7.828285902289047 10.837623490820647 5.687500000000002
    vertex 7.931839292882321 10.758164179521701 5.687500000000002
  endloop
endfacet
facet normal 0.25881904510252124 -0.9659258262890683 -4.13988737686465e-19
  outer loop
    vertex 7.513581141013418 10.646092245500693 5.687500000000002
    vertex 7.453285902289048 10.621117139874535 3.608224830031759e-15
    vertex 7.513581141013418 10.646092245500693 3.552713678800501e-15
  endloop
endfacet
facet normal 0.5000000000000102 -0.8660254037844328 2.6290440319979886e-17
  outer loop
    vertex 7.453285902289048 10.621117139874535 3.608224830031759e-15
    vertex 7.513581141013418 10.646092245500693 5.687500000000002
    vertex 7.453285902289048 10.621117139874535 5.687500000000002
  endloop
endfacet
facet normal -8.198221103995154e-16 -1.0 -3.2836543944713903e-17
  outer loop
    vertex 7.578285902289049 9.904610788928427 5.687500000000002
    vertex 7.448876379737788 9.921647875783894 0.7500000000000018
    vertex 7.578285902289049 9.904610788928427 0.7500000000000018
  endloop
endfacet
facet normal -0.2588190451025214 -0.9659258262890682 3.791950986163976e-17
  outer loop
    vertex 7.448876379737788 9.921647875783894 0.7500000000000018
    vertex 7.578285902289049 9.904610788928427 5.687500000000002
    vertex 7.448876379737788 9.921647875783894 5.687500000000002
  endloop
endfacet
facet normal 0.9659258262890693 -0.25881904510251746 -1.5187592410921453e-17
  outer loop
    vertex 7.336804445716781 10.469315550204056 3.552713678800501e-15
    vertex 7.328285902289048 10.404610788928427 5.687500000000002
    vertex 7.328285902289048 10.404610788928427 3.552713678800501e-15
  endloop
endfacet
facet normal 1.0 -2.2099552541204317e-15 -6.650108006118053e-18
  outer loop
    vertex 7.328285902289048 10.404610788928427 5.687500000000002
    vertex 7.336804445716781 10.469315550204056 3.552713678800501e-15
    vertex 7.336804445716781 10.469315550204056 5.687500000000002
  endloop
endfacet
facet normal 0.7071067811865498 -0.7071067811865455 -1.6980394205722006e-17
  outer loop
    vertex 7.931839292882323 10.051057398335153 0.7500000000000018
    vertex 8.011298604181267 10.154610788928427 5.687500000000002
    vertex 7.931839292882323 10.051057398335153 5.687500000000002
  endloop
endfacet
facet normal 0.8660254037844408 -0.4999999999999965 -8.849931788086861e-18
  outer loop
    vertex 8.011298604181267 10.154610788928427 5.687500000000002
    vertex 7.931839292882323 10.051057398335153 0.7500000000000018
    vertex 8.011298604181267 10.154610788928427 0.7500000000000018
  endloop
endfacet
facet normal 0.9659258262890693 -0.25881904510251746 -1.5187592410921453e-17
  outer loop
    vertex 7.336804445716781 10.469315550204056 3.552713678800501e-15
    vertex 7.361779551342938 10.529610788928427 5.687500000000002
    vertex 7.336804445716781 10.469315550204056 5.687500000000002
  endloop
endfacet
facet normal 0.8660254037844336 -0.5000000000000091 -1.5672119065545926e-17
  outer loop
    vertex 7.361779551342938 10.529610788928427 5.687500000000002
    vertex 7.336804445716781 10.469315550204056 3.552713678800501e-15
    vertex 7.361779551342938 10.529610788928427 3.552713678800501e-15
  endloop
endfacet
facet normal -0.9659258262890673 -0.25881904510252524 1.5202508753908504e-17
  outer loop
    vertex 7.8197673588613155 10.469315550204056 5.687500000000002
    vertex 7.828285902289048 10.404610788928427 3.552713678800501e-15
    vertex 7.828285902289048 10.404610788928427 5.687500000000002
  endloop
endfacet
facet normal -1.0 -4.901110442605796e-16 -5.235886811377008e-18
  outer loop
    vertex 7.828285902289048 10.404610788928427 3.552713678800501e-15
    vertex 7.8197673588613155 10.469315550204056 5.687500000000002
    vertex 7.8197673588613155 10.469315550204056 3.552713678800501e-15
  endloop
endfacet
facet normal 0.2588190451025214 0.9659258262890681 -8.505446210722543e-18
  outer loop
    vertex 7.513581141013418 10.163129332356158 3.608224830031759e-15
    vertex 7.578285902289048 10.154610788928427 5.687500000000002
    vertex 7.578285902289048 10.154610788928427 3.552713678800501e-15
  endloop
endfacet
facet normal -9.089332093559836e-16 1.0 -5.190749674677463e-18
  outer loop
    vertex 7.578285902289048 10.154610788928427 5.687500000000002
    vertex 7.513581141013418 10.163129332356158 3.608224830031759e-15
    vertex 7.513581141013418 10.16312933235616 5.687500000000002
  endloop
endfacet
endsolid Chandelier1ArrangedForPrint
