solid Chandelier1ArrangedForPrint
facet normal 0.2588190451025185 0.9659258262890691 -4.4845799567993633e-17
  outer loop
    vertex 10.15506215029028 3.0376301170137032 4.9375000000000036
    vertex 10.27565262773902 2.9876799057613894 3.552713678800501e-15
    vertex 10.15506215029028 3.037630117013703 3.552713678800501e-15
  endloop
endfacet
facet normal 0.49999999999999756 0.8660254037844403 3.921655229415559e-17
  outer loop
    vertex 10.27565262773902 2.9876799057613894 3.552713678800501e-15
    vertex 10.15506215029028 3.0376301170137032 4.9375000000000036
    vertex 10.27565262773902 2.987679905761389 4.9375000000000036
  endloop
endfacet
facet normal 0.9659258262890676 0.25881904510252396 1.827531433934942e-16
  outer loop
    vertex 10.508615540883556 2.68407672642043 3.552713678800501e-15
    vertex 10.45866532963124 2.8046672038691702 4.9375000000000036
    vertex 10.508615540883554 2.68407672642043 4.9375000000000036
  endloop
endfacet
facet normal 0.8660254037844367 0.5000000000000036 9.723340973076343e-17
  outer loop
    vertex 10.45866532963124 2.8046672038691702 4.9375000000000036
    vertex 10.508615540883556 2.68407672642043 3.552713678800501e-15
    vertex 10.45866532963124 2.8046672038691702 3.552713678800501e-15
  endloop
endfacet
facet normal -4.3664438488669796e-16 1.0 -1.124155493575487e-19
  outer loop
    vertex 10.02565262773902 2.3046672038691693 4.9375000000000036
    vertex 10.09035738901465 2.313185747296902 3.552713678800501e-15
    vertex 10.02565262773902 2.3046672038691693 3.552713678800501e-15
  endloop
endfacet
facet normal -0.258819045102522 0.965925826289068 -5.4176296465865115e-18
  outer loop
    vertex 10.09035738901465 2.313185747296902 3.552713678800501e-15
    vertex 10.02565262773902 2.3046672038691693 4.9375000000000036
    vertex 10.09035738901465 2.313185747296902 4.9375000000000036
  endloop
endfacet
facet normal -0.25881904510252196 0.965925826289068 -3.275755819186023e-17
  outer loop
    vertex 9.89624310518776 3.0376301170137032 4.9375000000000036
    vertex 10.025652627739019 3.054667203869169 3.552713678800501e-15
    vertex 9.89624310518776 3.037630117013703 3.552713678800501e-15
  endloop
endfacet
facet normal -3.5644439582587626e-17 1.0 -7.094918231525896e-17
  outer loop
    vertex 10.025652627739019 3.054667203869169 3.552713678800501e-15
    vertex 9.89624310518776 3.0376301170137032 4.9375000000000036
    vertex 10.02565262773902 3.0546672038691693 4.9375000000000036
  endloop
endfacet
facet normal -3.5644439582587626e-17 1.0 -7.094918231525896e-17
  outer loop
    vertex 10.02565262773902 3.0546672038691693 4.9375000000000036
    vertex 9.89624310518776 3.0376301170137032 4.9375000000000036
    vertex 9.900652627739023 3.038210641670745 4.9375000000000036
  endloop
endfacet
facet normal -0.8660254037844386 0.5000000000000003 -4.6796017182806955e-17
  outer loop
    vertex 9.5926399258468 2.8046672038691685 4.9375000000000036
    vertex 9.542689714594488 2.6840767264204293 3.552713678800501e-15
    vertex 9.542689714594488 2.6840767264204293 4.9375000000000036
  endloop
endfacet
facet normal -0.9659258262890685 0.25881904510252 -2.3472001205985246e-18
  outer loop
    vertex 9.542689714594488 2.6840767264204293 3.552713678800501e-15
    vertex 9.5926399258468 2.8046672038691685 4.9375000000000036
    vertex 9.5926399258468 2.8046672038691685 3.552713678800501e-15
  endloop
endfacet
facet normal 1.0 -1.541622011946915e-15 1.7261189715975898e-16
  outer loop
    vertex 10.525652627739023 2.5546672038691702 3.552713678800501e-15
    vertex 10.508615540883554 2.4252576813179094 4.9375000000000036
    vertex 10.508615540883554 2.4252576813179094 3.552713678800501e-15
  endloop
endfacet
facet normal 0.965925826289068 -0.25881904510252207 6.478882136118307e-17
  outer loop
    vertex 10.508615540883554 2.4252576813179094 4.9375000000000036
    vertex 10.525652627739023 2.5546672038691702 3.552713678800501e-15
    vertex 10.52565262773902 2.5546672038691702 4.9375000000000036
  endloop
endfacet
facet normal 0.8660254037844356 0.5000000000000053 -7.92318697729683e-19
  outer loop
    vertex 9.809146276792912 2.4296672038691693 3.552713678800501e-15
    vertex 9.848875932442384 2.377890508572533 4.9375000000000036
    vertex 9.848875932442384 2.377890508572533 3.552713678800501e-15
  endloop
endfacet
facet normal 0.7071067811865476 0.7071067811865476 2.1264956401851054e-18
  outer loop
    vertex 9.848875932442384 2.377890508572533 4.9375000000000036
    vertex 9.809146276792912 2.4296672038691693 3.552713678800501e-15
    vertex 9.809146276792912 2.4296672038691693 4.9375000000000036
  endloop
endfacet
facet normal -0.49999999999999767 -0.86602540378444 -4.072880180244285e-17
  outer loop
    vertex 9.77565262773902 2.1216545019769497 4.9375000000000036
    vertex 9.672099237145748 2.201113813275895 3.552713678800501e-15
    vertex 9.775652627739023 2.12165450197695 3.552713678800501e-15
  endloop
endfacet
facet normal -0.7071067811865451 -0.7071067811865499 2.4548284657203403e-17
  outer loop
    vertex 9.672099237145748 2.201113813275895 3.552713678800501e-15
    vertex 9.77565262773902 2.1216545019769497 4.9375000000000036
    vertex 9.672099237145748 2.2011138132758954 4.9375000000000036
  endloop
endfacet
facet normal 0.8660254037844353 -0.5000000000000062 -2.6447924792847898e-17
  outer loop
    vertex 9.80914627679291 2.67966720386917 3.552713678800501e-15
    vertex 9.848875932442384 2.731443899165806 4.9375000000000036
    vertex 9.809146276792912 2.6796672038691693 4.9375000000000036
  endloop
endfacet
facet normal 0.7071067811865465 -0.7071067811865487 1.4583295750129048e-17
  outer loop
    vertex 9.848875932442384 2.731443899165806 4.9375000000000036
    vertex 9.80914627679291 2.67966720386917 3.552713678800501e-15
    vertex 9.848875932442384 2.7314438991658054 3.552713678800501e-15
  endloop
endfacet
facet normal 0.8660254037844367 0.5000000000000036 9.723340973076343e-17
  outer loop
    vertex 10.45866532963124 2.8046672038691702 3.552713678800501e-15
    vertex 10.379206018332294 2.9082205944624433 4.9375000000000036
    vertex 10.45866532963124 2.8046672038691702 4.9375000000000036
  endloop
endfacet
facet normal 0.7071067811865462 0.7071067811865488 6.506670596173776e-17
  outer loop
    vertex 10.379206018332294 2.9082205944624433 4.9375000000000036
    vertex 10.45866532963124 2.8046672038691702 3.552713678800501e-15
    vertex 10.379206018332294 2.9082205944624433 3.552713678800501e-15
  endloop
endfacet
facet normal -3.5644439582587626e-17 1.0 -7.094918231525896e-17
  outer loop
    vertex 10.02565262773902 3.0546672038691693 4.9375000000000036
    vertex 10.15506215029028 3.037630117013703 3.552713678800501e-15
    vertex 10.025652627739019 3.054667203869169 3.552713678800501e-15
  endloop
endfacet
facet normal 0.2588190451025185 0.9659258262890691 -4.4845799567993633e-17
  outer loop
    vertex 10.15506215029028 3.037630117013703 3.552713678800501e-15
    vertex 10.02565262773902 3.0546672038691693 4.9375000000000036
    vertex 10.15506215029028 3.0376301170137032 4.9375000000000036
  endloop
endfacet
facet normal 0.2588190451025185 0.9659258262890691 -4.4845799567993633e-17
  outer loop
    vertex 10.15506215029028 3.0376301170137032 4.9375000000000036
    vertex 10.02565262773902 3.0546672038691693 4.9375000000000036
    vertex 10.150652627739019 3.038210641670745 4.9375000000000036
  endloop
endfacet
facet normal 0.965925826289068 -0.25881904510252207 6.478882136118307e-17
  outer loop
    vertex 10.508615540883554 2.4252576813179094 3.552713678800501e-15
    vertex 10.458665329631241 2.3046672038691702 4.9375000000000036
    vertex 10.458665329631241 2.3046672038691702 3.552713678800501e-15
  endloop
endfacet
facet normal 0.8660254037844408 -0.49999999999999645 8.849931788086861e-18
  outer loop
    vertex 10.458665329631241 2.3046672038691702 4.9375000000000036
    vertex 10.508615540883554 2.4252576813179094 3.552713678800501e-15
    vertex 10.508615540883554 2.4252576813179094 4.9375000000000036
  endloop
endfacet
facet normal -0.7071067811865451 -0.7071067811865499 2.4548284657203403e-17
  outer loop
    vertex 9.672099237145748 2.2011138132758954 4.9375000000000036
    vertex 9.592639925846802 2.304667203869168 3.552713678800501e-15
    vertex 9.672099237145748 2.201113813275895 3.552713678800501e-15
  endloop
endfacet
facet normal -0.8660254037844377 -0.5000000000000018 4.313818072453678e-17
  outer loop
    vertex 9.592639925846802 2.304667203869168 3.552713678800501e-15
    vertex 9.672099237145748 2.2011138132758954 4.9375000000000036
    vertex 9.592639925846802 2.3046672038691685 4.9375000000000036
  endloop
endfacet
facet normal 0.9659258262890685 -0.2588190451025205 -1.7955615645818126e-17
  outer loop
    vertex 9.784171171166754 2.6193719651447993 3.552713678800501e-15
    vertex 9.77565262773902 2.5546672038691693 4.9375000000000036
    vertex 9.77565262773902 2.5546672038691693 3.552713678800501e-15
  endloop
endfacet
facet normal 1.0 -6.148665827996362e-16 -5.246058970019013e-19
  outer loop
    vertex 9.77565262773902 2.5546672038691693 4.9375000000000036
    vertex 9.784171171166754 2.6193719651447993 3.552713678800501e-15
    vertex 9.784171171166754 2.6193719651447993 4.9375000000000036
  endloop
endfacet
facet normal -1.4525109129904451e-15 -1.0 1.9338387269256895e-17
  outer loop
    vertex 10.02565262773902 2.8046672038691693 4.9375000000000036
    vertex 9.96094786646339 2.7961486604414367 3.552713678800501e-15
    vertex 10.02565262773902 2.8046672038691693 3.552713678800501e-15
  endloop
endfacet
facet normal 0.2588190451025218 -0.9659258262890682 -1.7687224347198706e-17
  outer loop
    vertex 9.96094786646339 2.7961486604414367 3.552713678800501e-15
    vertex 10.02565262773902 2.8046672038691693 4.9375000000000036
    vertex 9.96094786646339 2.7961486604414367 4.9375000000000036
  endloop
endfacet
facet normal -0.7071067811865503 0.7071067811865448 5.607136246084441e-18
  outer loop
    vertex 10.202429323035657 2.3778905085725337 4.9375000000000036
    vertex 10.24215897868513 2.42966720386917 3.552713678800501e-15
    vertex 10.202429323035657 2.3778905085725333 3.552713678800501e-15
  endloop
endfacet
facet normal -0.8660254037844347 0.5000000000000069 -2.5140150750492305e-17
  outer loop
    vertex 10.24215897868513 2.42966720386917 3.552713678800501e-15
    vertex 10.202429323035657 2.3778905085725337 4.9375000000000036
    vertex 10.24215897868513 2.4296672038691702 4.9375000000000036
  endloop
endfacet
facet normal 0.2588190451025218 -0.9659258262890682 -1.7687224347198706e-17
  outer loop
    vertex 9.96094786646339 2.7961486604414367 4.9375000000000036
    vertex 9.90065262773902 2.7711735548152787 3.552713678800501e-15
    vertex 9.96094786646339 2.7961486604414367 3.552713678800501e-15
  endloop
endfacet
facet normal 0.5000000000000064 -0.866025403784435 1.6023232800506156e-18
  outer loop
    vertex 9.90065262773902 2.7711735548152787 3.552713678800501e-15
    vertex 9.96094786646339 2.7961486604414367 4.9375000000000036
    vertex 9.90065262773902 2.7711735548152787 4.9375000000000036
  endloop
endfacet
facet normal 0.5000000000000064 -0.866025403784435 1.6023232800506156e-18
  outer loop
    vertex 9.90065262773902 2.7711735548152787 4.9375000000000036
    vertex 9.96094786646339 2.7961486604414367 4.9375000000000036
    vertex 9.930321182453643 2.783462672554083 4.9375000000000036
  endloop
endfacet
facet normal 0.9659258262890679 0.25881904510252224 -8.06158321773648e-18
  outer loop
    vertex 9.784171171166754 2.4899624425935394 3.552713678800501e-15
    vertex 9.809146276792912 2.4296672038691693 4.9375000000000036
    vertex 9.809146276792912 2.4296672038691693 3.552713678800501e-15
  endloop
endfacet
facet normal 0.8660254037844356 0.5000000000000053 -7.92318697729683e-19
  outer loop
    vertex 9.809146276792912 2.4296672038691693 4.9375000000000036
    vertex 9.784171171166754 2.4899624425935394 3.552713678800501e-15
    vertex 9.784171171166754 2.4899624425935394 4.9375000000000036
  endloop
endfacet
facet normal -0.5000000000000099 0.8660254037844328 -7.680700277468647e-19
  outer loop
    vertex 10.15065262773902 2.33816085292306 4.9375000000000036
    vertex 10.202429323035657 2.3778905085725333 3.552713678800501e-15
    vertex 10.15065262773902 2.33816085292306 3.552713678800501e-15
  endloop
endfacet
facet normal -0.7071067811865502 0.7071067811865448 5.60713624608444e-18
  outer loop
    vertex 10.202429323035657 2.3778905085725333 3.552713678800501e-15
    vertex 10.15065262773902 2.33816085292306 4.9375000000000036
    vertex 10.202429323035657 2.3778905085725337 4.9375000000000036
  endloop
endfacet
facet normal -5.346665937388144e-16 -1.0 2.851499834196421e-17
  outer loop
    vertex 10.02565262773902 2.0546672038691693 4.9375000000000036
    vertex 9.89624310518776 2.071704290724636 3.552713678800501e-15
    vertex 10.025652627739023 2.054667203869169 3.552713678800501e-15
  endloop
endfacet
facet normal -0.25881904510252113 -0.9659258262890682 -4.357844659067913e-17
  outer loop
    vertex 9.89624310518776 2.071704290724636 3.552713678800501e-15
    vertex 10.02565262773902 2.0546672038691693 4.9375000000000036
    vertex 9.89624310518776 2.0717042907246355 4.9375000000000036
  endloop
endfacet
facet normal -0.25881904510252113 -0.9659258262890682 -4.357844659067913e-17
  outer loop
    vertex 9.89624310518776 2.0717042907246355 4.9375000000000036
    vertex 10.02565262773902 2.0546672038691693 4.9375000000000036
    vertex 9.900652627739023 2.071123766067594 4.9375000000000036
  endloop
endfacet
facet normal 0.5000000000000053 0.8660254037844356 -1.701563306179725e-17
  outer loop
    vertex 9.90065262773902 2.33816085292306 4.9375000000000036
    vertex 9.96094786646339 2.313185747296902 3.552713678800501e-15
    vertex 9.90065262773902 2.33816085292306 3.552713678800501e-15
  endloop
endfacet
facet normal 0.258819045102522 0.9659258262890681 -1.9181577799398922e-17
  outer loop
    vertex 9.96094786646339 2.313185747296902 3.552713678800501e-15
    vertex 9.90065262773902 2.33816085292306 4.9375000000000036
    vertex 9.96094786646339 2.313185747296902 4.9375000000000036
  endloop
endfacet
facet normal 0.258819045102522 0.9659258262890681 -1.9181577799398922e-17
  outer loop
    vertex 9.96094786646339 2.313185747296902 4.9375000000000036
    vertex 9.90065262773902 2.33816085292306 4.9375000000000036
    vertex 9.930321182453639 2.3258717351842573 4.9375000000000036
  endloop
endfacet
facet normal 0.7071067811865498 -0.7071067811865454 1.6980394205722006e-17
  outer loop
    vertex 10.379206018332296 2.2011138132758963 4.9375000000000036
    vertex 10.275652627739023 2.12165450197695 3.552713678800501e-15
    vertex 10.379206018332296 2.2011138132758963 3.552713678800501e-15
  endloop
endfacet
facet normal 0.5000000000000008 -0.8660254037844383 4.487910702808868e-17
  outer loop
    vertex 10.275652627739023 2.12165450197695 3.552713678800501e-15
    vertex 10.379206018332296 2.2011138132758963 4.9375000000000036
    vertex 10.27565262773902 2.1216545019769506 4.9375000000000036
  endloop
endfacet
facet normal -1.0 -4.099110551997577e-16 -2.621438472507849e-18
  outer loop
    vertex 9.52565262773902 2.5546672038691685 4.9375000000000036
    vertex 9.542689714594488 2.6840767264204293 3.552713678800501e-15
    vertex 9.52565262773902 2.554667203869168 3.552713678800501e-15
  endloop
endfacet
facet normal -0.9659258262890685 0.25881904510252 -2.3472001205985246e-18
  outer loop
    vertex 9.542689714594488 2.6840767264204293 3.552713678800501e-15
    vertex 9.52565262773902 2.5546672038691685 4.9375000000000036
    vertex 9.542689714594488 2.6840767264204293 4.9375000000000036
  endloop
endfacet
facet normal -0.8660254037844378 -0.5000000000000014 4.572097368741473e-17
  outer loop
    vertex 10.24215897868513 2.6796672038691693 4.9375000000000036
    vertex 10.267134084311287 2.6193719651447993 3.552713678800501e-15
    vertex 10.267134084311287 2.6193719651447993 4.9375000000000036
  endloop
endfacet
facet normal -0.9659258262890679 -0.25881904510252307 1.2344241344563294e-17
  outer loop
    vertex 10.267134084311287 2.6193719651447993 3.552713678800501e-15
    vertex 10.24215897868513 2.6796672038691693 4.9375000000000036
    vertex 10.24215897868513 2.679667203869169 3.552713678800501e-15
  endloop
endfacet
facet normal -0.7071067811865481 -0.7071067811865469 6.23809633284539e-17
  outer loop
    vertex 10.202429323035659 2.731443899165806 4.9375000000000036
    vertex 10.15065262773902 2.7711735548152783 3.552713678800501e-15
    vertex 10.202429323035657 2.731443899165806 3.552713678800501e-15
  endloop
endfacet
facet normal -0.500000000000001 -0.8660254037844382 5.004021916000968e-17
  outer loop
    vertex 10.15065262773902 2.7711735548152783 3.552713678800501e-15
    vertex 10.202429323035659 2.731443899165806 4.9375000000000036
    vertex 10.15065262773902 2.7711735548152787 4.9375000000000036
  endloop
endfacet
facet normal 0.9659258262890685 -0.2588190451025205 -1.7955615645818126e-17
  outer loop
    vertex 9.784171171166754 2.6193719651447993 3.552713678800501e-15
    vertex 9.809146276792912 2.6796672038691693 4.9375000000000036
    vertex 9.784171171166754 2.6193719651447993 4.9375000000000036
  endloop
endfacet
facet normal 0.8660254037844353 -0.5000000000000062 -2.6447924792847898e-17
  outer loop
    vertex 9.809146276792912 2.6796672038691693 4.9375000000000036
    vertex 9.784171171166754 2.6193719651447993 3.552713678800501e-15
    vertex 9.80914627679291 2.67966720386917 3.552713678800501e-15
  endloop
endfacet
facet normal -0.7071067811865488 0.7071067811865462 -1.0298282373119245e-16
  outer loop
    vertex 9.672099237145748 2.9082205944624424 4.9375000000000036
    vertex 9.5926399258468 2.8046672038691685 3.552713678800501e-15
    vertex 9.5926399258468 2.8046672038691685 4.9375000000000036
  endloop
endfacet
facet normal -0.8660254037844386 0.5000000000000003 -4.6796017182806955e-17
  outer loop
    vertex 9.5926399258468 2.8046672038691685 3.552713678800501e-15
    vertex 9.672099237145748 2.9082205944624424 4.9375000000000036
    vertex 9.672099237145748 2.9082205944624415 3.552713678800501e-15
  endloop
endfacet
facet normal -1.0 -4.099110551997577e-16 -2.621438472507849e-18
  outer loop
    vertex 9.52565262773902 2.5546672038691685 4.9375000000000036
    vertex 9.542689714594488 2.4252576813179085 3.552713678800501e-15
    vertex 9.542689714594488 2.4252576813179085 4.9375000000000036
  endloop
endfacet
facet normal -0.965925826289068 -0.258819045102522 1.5255998229528353e-17
  outer loop
    vertex 9.542689714594488 2.4252576813179085 3.552713678800501e-15
    vertex 9.52565262773902 2.5546672038691685 4.9375000000000036
    vertex 9.52565262773902 2.554667203869168 3.552713678800501e-15
  endloop
endfacet
facet normal 0.5000000000000064 -0.866025403784435 1.6023232800506156e-18
  outer loop
    vertex 9.90065262773902 2.7711735548152787 4.9375000000000036
    vertex 9.848875932442384 2.7314438991658054 3.552713678800501e-15
    vertex 9.90065262773902 2.7711735548152787 3.552713678800501e-15
  endloop
endfacet
facet normal 0.7071067811865465 -0.7071067811865487 1.4583295750129048e-17
  outer loop
    vertex 9.848875932442384 2.7314438991658054 3.552713678800501e-15
    vertex 9.90065262773902 2.7711735548152787 4.9375000000000036
    vertex 9.848875932442384 2.731443899165806 4.9375000000000036
  endloop
endfacet
facet normal -0.25881904510252307 -0.9659258262890679 4.037437544366428e-17
  outer loop
    vertex 10.09035738901465 2.7961486604414367 4.9375000000000036
    vertex 10.02565262773902 2.8046672038691693 3.552713678800501e-15
    vertex 10.09035738901465 2.7961486604414363 3.552713678800501e-15
  endloop
endfacet
facet normal -1.4525109129904451e-15 -1.0 1.9338387269256895e-17
  outer loop
    vertex 10.02565262773902 2.8046672038691693 3.552713678800501e-15
    vertex 10.09035738901465 2.7961486604414367 4.9375000000000036
    vertex 10.02565262773902 2.8046672038691693 4.9375000000000036
  endloop
endfacet
facet normal 1.0 -6.148665827996362e-16 -5.246058970019013e-19
  outer loop
    vertex 9.77565262773902 2.5546672038691693 3.552713678800501e-15
    vertex 9.784171171166754 2.4899624425935394 4.9375000000000036
    vertex 9.784171171166754 2.4899624425935394 3.552713678800501e-15
  endloop
endfacet
facet normal 0.9659258262890679 0.25881904510252224 -8.06158321773648e-18
  outer loop
    vertex 9.784171171166754 2.4899624425935394 4.9375000000000036
    vertex 9.77565262773902 2.5546672038691693 3.552713678800501e-15
    vertex 9.77565262773902 2.5546672038691693 4.9375000000000036
  endloop
endfacet
facet normal 1.45008721583692e-16 1.1250295882685538e-32 1.0
  outer loop
    vertex 9.542689714594488 2.4252576813179085 4.9375000000000036
    vertex 9.542689714594488 2.6840767264204293 4.9375000000000036
    vertex 9.52565262773902 2.5546672038691685 4.9375000000000036
  endloop
endfacet
facet normal 1.45008721583692e-16 1.1250295882685538e-32 1.0
  outer loop
    vertex 9.542689714594488 2.6840767264204293 4.9375000000000036
    vertex 9.542689714594488 2.4252576813179085 4.9375000000000036
    vertex 9.592639925846802 2.3046672038691685 4.9375000000000036
  endloop
endfacet
facet normal 1.45008721583692e-16 1.1250295882685538e-32 1.0
  outer loop
    vertex 9.542689714594488 2.6840767264204293 4.9375000000000036
    vertex 9.592639925846802 2.3046672038691685 4.9375000000000036
    vertex 9.5926399258468 2.8046672038691685 4.9375000000000036
  endloop
endfacet
facet normal 1.45008721583692e-16 1.1250295882685538e-32 1.0
  outer loop
    vertex 9.5926399258468 2.8046672038691685 4.9375000000000036
    vertex 9.592639925846802 2.3046672038691685 4.9375000000000036
    vertex 9.672099237145748 2.9082205944624424 4.9375000000000036
  endloop
endfacet
facet normal 1.45008721583692e-16 1.1250295882685538e-32 1.0
  outer loop
    vertex 9.672099237145748 2.9082205944624424 4.9375000000000036
    vertex 9.592639925846802 2.3046672038691685 4.9375000000000036
    vertex 9.672099237145748 2.2011138132758954 4.9375000000000036
  endloop
endfacet
facet normal 1.45008721583692e-16 1.1250295882685538e-32 1.0
  outer loop
    vertex 9.672099237145748 2.9082205944624424 4.9375000000000036
    vertex 9.672099237145748 2.2011138132758954 4.9375000000000036
    vertex 9.77565262773902 2.987679905761388 4.9375000000000036
  endloop
endfacet
facet normal 1.45008721583692e-16 1.1250295882685538e-32 1.0
  outer loop
    vertex 9.77565262773902 2.987679905761388 4.9375000000000036
    vertex 9.672099237145748 2.2011138132758954 4.9375000000000036
    vertex 9.77565262773902 2.1216545019769497 4.9375000000000036
  endloop
endfacet
facet normal 1.45008721583692e-16 1.1250295882685538e-32 1.0
  outer loop
    vertex 9.77565262773902 2.987679905761388 4.9375000000000036
    vertex 9.77565262773902 2.1216545019769497 4.9375000000000036
    vertex 9.77565262773902 2.5546672038691693 4.9375000000000036
  endloop
endfacet
facet normal 1.45008721583692e-16 1.1250295882685538e-32 1.0
  outer loop
    vertex 9.77565262773902 2.5546672038691693 4.9375000000000036
    vertex 9.77565262773902 2.1216545019769497 4.9375000000000036
    vertex 9.784171171166754 2.4899624425935394 4.9375000000000036
  endloop
endfacet
facet normal 1.45008721583692e-16 1.1250295882685538e-32 1.0
  outer loop
    vertex 9.784171171166754 2.4899624425935394 4.9375000000000036
    vertex 9.77565262773902 2.1216545019769497 4.9375000000000036
    vertex 9.89624310518776 2.0717042907246355 4.9375000000000036
  endloop
endfacet
facet normal 1.45008721583692e-16 1.1250295882685538e-32 1.0
  outer loop
    vertex 9.784171171166754 2.4899624425935394 4.9375000000000036
    vertex 9.89624310518776 2.0717042907246355 4.9375000000000036
    vertex 9.809146276792912 2.4296672038691693 4.9375000000000036
  endloop
endfacet
facet normal 1.45008721583692e-16 1.1250295882685538e-32 1.0
  outer loop
    vertex 9.809146276792912 2.4296672038691693 4.9375000000000036
    vertex 9.89624310518776 2.0717042907246355 4.9375000000000036
    vertex 9.848875932442384 2.377890508572533 4.9375000000000036
  endloop
endfacet
facet normal 1.45008721583692e-16 1.1250295882685538e-32 1.0
  outer loop
    vertex 9.848875932442384 2.377890508572533 4.9375000000000036
    vertex 9.89624310518776 2.0717042907246355 4.9375000000000036
    vertex 9.90065262773902 2.33816085292306 4.9375000000000036
  endloop
endfacet
facet normal 1.45008721583692e-16 1.1250295882685538e-32 1.0
  outer loop
    vertex 9.90065262773902 2.33816085292306 4.9375000000000036
    vertex 9.89624310518776 2.0717042907246355 4.9375000000000036
    vertex 9.900652627739023 2.071123766067594 4.9375000000000036
  endloop
endfacet
facet normal 1.45008721583692e-16 1.1250295882685538e-32 1.0
  outer loop
    vertex 9.90065262773902 2.33816085292306 4.9375000000000036
    vertex 9.900652627739023 2.071123766067594 4.9375000000000036
    vertex 9.930321182453639 2.3258717351842573 4.9375000000000036
  endloop
endfacet
facet normal 1.45008721583692e-16 1.1250295882685538e-32 1.0
  outer loop
    vertex 9.930321182453639 2.3258717351842573 4.9375000000000036
    vertex 9.900652627739023 2.071123766067594 4.9375000000000036
    vertex 10.02565262773902 2.0546672038691693 4.9375000000000036
  endloop
endfacet
facet normal 1.45008721583692e-16 1.1250295882685538e-32 1.0
  outer loop
    vertex 9.930321182453639 2.3258717351842573 4.9375000000000036
    vertex 10.02565262773902 2.0546672038691693 4.9375000000000036
    vertex 9.96094786646339 2.313185747296902 4.9375000000000036
  endloop
endfacet
facet normal 1.45008721583692e-16 1.1250295882685538e-32 1.0
  outer loop
    vertex 9.96094786646339 2.313185747296902 4.9375000000000036
    vertex 10.02565262773902 2.0546672038691693 4.9375000000000036
    vertex 10.02565262773902 2.3046672038691693 4.9375000000000036
  endloop
endfacet
facet normal 1.45008721583692e-16 1.1250295882685538e-32 1.0
  outer loop
    vertex 10.02565262773902 2.3046672038691693 4.9375000000000036
    vertex 10.02565262773902 2.0546672038691693 4.9375000000000036
    vertex 10.09035738901465 2.313185747296902 4.9375000000000036
  endloop
endfacet
facet normal 1.45008721583692e-16 1.1250295882685538e-32 1.0
  outer loop
    vertex 10.09035738901465 2.313185747296902 4.9375000000000036
    vertex 10.02565262773902 2.0546672038691693 4.9375000000000036
    vertex 10.150652627739019 2.071123766067594 4.9375000000000036
  endloop
endfacet
facet normal 1.45008721583692e-16 1.1250295882685538e-32 1.0
  outer loop
    vertex 10.09035738901465 2.313185747296902 4.9375000000000036
    vertex 10.150652627739019 2.071123766067594 4.9375000000000036
    vertex 10.120984073024403 2.3258717351842573 4.9375000000000036
  endloop
endfacet
facet normal 1.45008721583692e-16 1.1250295882685538e-32 1.0
  outer loop
    vertex 10.120984073024403 2.3258717351842573 4.9375000000000036
    vertex 10.150652627739019 2.071123766067594 4.9375000000000036
    vertex 10.15065262773902 2.33816085292306 4.9375000000000036
  endloop
endfacet
facet normal 1.45008721583692e-16 1.1250295882685538e-32 1.0
  outer loop
    vertex 10.15065262773902 2.33816085292306 4.9375000000000036
    vertex 10.150652627739019 2.071123766067594 4.9375000000000036
    vertex 10.15506215029028 2.0717042907246355 4.9375000000000036
  endloop
endfacet
facet normal 1.45008721583692e-16 1.1250295882685538e-32 1.0
  outer loop
    vertex 10.15065262773902 2.33816085292306 4.9375000000000036
    vertex 10.15506215029028 2.0717042907246355 4.9375000000000036
    vertex 10.202429323035657 2.3778905085725337 4.9375000000000036
  endloop
endfacet
facet normal 1.45008721583692e-16 1.1250295882685538e-32 1.0
  outer loop
    vertex 10.202429323035657 2.3778905085725337 4.9375000000000036
    vertex 10.15506215029028 2.0717042907246355 4.9375000000000036
    vertex 10.27565262773902 2.1216545019769506 4.9375000000000036
  endloop
endfacet
facet normal 1.45008721583692e-16 1.1250295882685538e-32 1.0
  outer loop
    vertex 10.202429323035657 2.3778905085725337 4.9375000000000036
    vertex 10.27565262773902 2.1216545019769506 4.9375000000000036
    vertex 10.24215897868513 2.4296672038691702 4.9375000000000036
  endloop
endfacet
facet normal 1.45008721583692e-16 1.1250295882685538e-32 1.0
  outer loop
    vertex 10.24215897868513 2.4296672038691702 4.9375000000000036
    vertex 10.27565262773902 2.1216545019769506 4.9375000000000036
    vertex 10.267134084311287 2.4899624425935403 4.9375000000000036
  endloop
endfacet
facet normal 1.45008721583692e-16 1.1250295882685538e-32 1.0
  outer loop
    vertex 10.267134084311287 2.4899624425935403 4.9375000000000036
    vertex 10.27565262773902 2.1216545019769506 4.9375000000000036
    vertex 10.27565262773902 2.5546672038691693 4.9375000000000036
  endloop
endfacet
facet normal 1.45008721583692e-16 1.1250295882685538e-32 1.0
  outer loop
    vertex 9.77565262773902 2.987679905761388 4.9375000000000036
    vertex 9.784171171166754 2.6193719651447993 4.9375000000000036
    vertex 9.89624310518776 3.0376301170137032 4.9375000000000036
  endloop
endfacet
facet normal 1.45008721583692e-16 1.1250295882685538e-32 1.0
  outer loop
    vertex 9.784171171166754 2.6193719651447993 4.9375000000000036
    vertex 9.77565262773902 2.987679905761388 4.9375000000000036
    vertex 9.77565262773902 2.5546672038691693 4.9375000000000036
  endloop
endfacet
facet normal 1.45008721583692e-16 1.1250295882685538e-32 1.0
  outer loop
    vertex 9.89624310518776 3.0376301170137032 4.9375000000000036
    vertex 9.784171171166754 2.6193719651447993 4.9375000000000036
    vertex 9.809146276792912 2.6796672038691693 4.9375000000000036
  endloop
endfacet
facet normal 1.45008721583692e-16 1.1250295882685538e-32 1.0
  outer loop
    vertex 9.89624310518776 3.0376301170137032 4.9375000000000036
    vertex 9.809146276792912 2.6796672038691693 4.9375000000000036
    vertex 9.848875932442384 2.731443899165806 4.9375000000000036
  endloop
endfacet
facet normal 1.45008721583692e-16 1.1250295882685538e-32 1.0
  outer loop
    vertex 9.89624310518776 3.0376301170137032 4.9375000000000036
    vertex 9.848875932442384 2.731443899165806 4.9375000000000036
    vertex 9.90065262773902 2.7711735548152787 4.9375000000000036
  endloop
endfacet
facet normal 1.45008721583692e-16 1.1250295882685538e-32 1.0
  outer loop
    vertex 9.89624310518776 3.0376301170137032 4.9375000000000036
    vertex 9.90065262773902 2.7711735548152787 4.9375000000000036
    vertex 9.900652627739023 3.038210641670745 4.9375000000000036
  endloop
endfacet
facet normal 1.45008721583692e-16 1.1250295882685538e-32 1.0
  outer loop
    vertex 9.900652627739023 3.038210641670745 4.9375000000000036
    vertex 9.90065262773902 2.7711735548152787 4.9375000000000036
    vertex 9.930321182453643 2.783462672554083 4.9375000000000036
  endloop
endfacet
facet normal 1.45008721583692e-16 1.1250295882685538e-32 1.0
  outer loop
    vertex 9.900652627739023 3.038210641670745 4.9375000000000036
    vertex 9.930321182453643 2.783462672554083 4.9375000000000036
    vertex 10.02565262773902 3.0546672038691693 4.9375000000000036
  endloop
endfacet
facet normal 1.45008721583692e-16 1.1250295882685538e-32 1.0
  outer loop
    vertex 10.02565262773902 3.0546672038691693 4.9375000000000036
    vertex 9.930321182453643 2.783462672554083 4.9375000000000036
    vertex 9.96094786646339 2.7961486604414367 4.9375000000000036
  endloop
endfacet
facet normal 1.45008721583692e-16 1.1250295882685538e-32 1.0
  outer loop
    vertex 10.02565262773902 3.0546672038691693 4.9375000000000036
    vertex 9.96094786646339 2.7961486604414367 4.9375000000000036
    vertex 10.02565262773902 2.8046672038691693 4.9375000000000036
  endloop
endfacet
facet normal 1.45008721583692e-16 1.1250295882685538e-32 1.0
  outer loop
    vertex 10.02565262773902 3.0546672038691693 4.9375000000000036
    vertex 10.02565262773902 2.8046672038691693 4.9375000000000036
    vertex 10.150652627739019 3.038210641670745 4.9375000000000036
  endloop
endfacet
facet normal 1.45008721583692e-16 1.1250295882685538e-32 1.0
  outer loop
    vertex 10.150652627739019 3.038210641670745 4.9375000000000036
    vertex 10.02565262773902 2.8046672038691693 4.9375000000000036
    vertex 10.09035738901465 2.7961486604414367 4.9375000000000036
  endloop
endfacet
facet normal 1.45008721583692e-16 1.1250295882685538e-32 1.0
  outer loop
    vertex 10.150652627739019 3.038210641670745 4.9375000000000036
    vertex 10.09035738901465 2.7961486604414367 4.9375000000000036
    vertex 10.120984073024399 2.783462672554083 4.9375000000000036
  endloop
endfacet
facet normal 1.45008721583692e-16 1.1250295882685538e-32 1.0
  outer loop
    vertex 10.150652627739019 3.038210641670745 4.9375000000000036
    vertex 10.120984073024399 2.783462672554083 4.9375000000000036
    vertex 10.15065262773902 2.7711735548152787 4.9375000000000036
  endloop
endfacet
facet normal 1.45008721583692e-16 1.1250295882685538e-32 1.0
  outer loop
    vertex 10.150652627739019 3.038210641670745 4.9375000000000036
    vertex 10.15065262773902 2.7711735548152787 4.9375000000000036
    vertex 10.15506215029028 3.0376301170137032 4.9375000000000036
  endloop
endfacet
facet normal 1.45008721583692e-16 1.1250295882685538e-32 1.0
  outer loop
    vertex 10.15506215029028 3.0376301170137032 4.9375000000000036
    vertex 10.15065262773902 2.7711735548152787 4.9375000000000036
    vertex 10.202429323035659 2.731443899165806 4.9375000000000036
  endloop
endfacet
facet normal 1.45008721583692e-16 1.1250295882685538e-32 1.0
  outer loop
    vertex 10.15506215029028 3.0376301170137032 4.9375000000000036
    vertex 10.202429323035659 2.731443899165806 4.9375000000000036
    vertex 10.27565262773902 2.987679905761389 4.9375000000000036
  endloop
endfacet
facet normal 1.45008721583692e-16 1.1250295882685538e-32 1.0
  outer loop
    vertex 10.27565262773902 2.987679905761389 4.9375000000000036
    vertex 10.202429323035659 2.731443899165806 4.9375000000000036
    vertex 10.24215897868513 2.6796672038691693 4.9375000000000036
  endloop
endfacet
facet normal 1.45008721583692e-16 1.1250295882685538e-32 1.0
  outer loop
    vertex 10.27565262773902 2.987679905761389 4.9375000000000036
    vertex 10.24215897868513 2.6796672038691693 4.9375000000000036
    vertex 10.267134084311287 2.6193719651447993 4.9375000000000036
  endloop
endfacet
facet normal 1.45008721583692e-16 1.1250295882685538e-32 1.0
  outer loop
    vertex 10.27565262773902 2.987679905761389 4.9375000000000036
    vertex 10.267134084311287 2.6193719651447993 4.9375000000000036
    vertex 10.27565262773902 2.5546672038691693 4.9375000000000036
  endloop
endfacet
facet normal 1.45008721583692e-16 1.1250295882685538e-32 1.0
  outer loop
    vertex 10.27565262773902 2.987679905761389 4.9375000000000036
    vertex 10.27565262773902 2.5546672038691693 4.9375000000000036
    vertex 10.379206018332294 2.9082205944624433 4.9375000000000036
  endloop
endfacet
facet normal 1.45008721583692e-16 1.1250295882685538e-32 1.0
  outer loop
    vertex 10.379206018332294 2.9082205944624433 4.9375000000000036
    vertex 10.27565262773902 2.5546672038691693 4.9375000000000036
    vertex 10.27565262773902 2.1216545019769506 4.9375000000000036
  endloop
endfacet
facet normal 1.45008721583692e-16 1.1250295882685538e-32 1.0
  outer loop
    vertex 10.379206018332294 2.9082205944624433 4.9375000000000036
    vertex 10.27565262773902 2.1216545019769506 4.9375000000000036
    vertex 10.379206018332296 2.2011138132758963 4.9375000000000036
  endloop
endfacet
facet normal 1.45008721583692e-16 1.1250295882685538e-32 1.0
  outer loop
    vertex 10.379206018332294 2.9082205944624433 4.9375000000000036
    vertex 10.379206018332296 2.2011138132758963 4.9375000000000036
    vertex 10.45866532963124 2.8046672038691702 4.9375000000000036
  endloop
endfacet
facet normal 1.45008721583692e-16 1.1250295882685538e-32 1.0
  outer loop
    vertex 10.45866532963124 2.8046672038691702 4.9375000000000036
    vertex 10.379206018332296 2.2011138132758963 4.9375000000000036
    vertex 10.458665329631241 2.3046672038691702 4.9375000000000036
  endloop
endfacet
facet normal 1.45008721583692e-16 1.1250295882685538e-32 1.0
  outer loop
    vertex 10.45866532963124 2.8046672038691702 4.9375000000000036
    vertex 10.458665329631241 2.3046672038691702 4.9375000000000036
    vertex 10.508615540883554 2.68407672642043 4.9375000000000036
  endloop
endfacet
facet normal 1.45008721583692e-16 1.1250295882685538e-32 1.0
  outer loop
    vertex 10.508615540883554 2.68407672642043 4.9375000000000036
    vertex 10.458665329631241 2.3046672038691702 4.9375000000000036
    vertex 10.508615540883554 2.4252576813179094 4.9375000000000036
  endloop
endfacet
facet normal 1.45008721583692e-16 1.1250295882685538e-32 1.0
  outer loop
    vertex 10.508615540883554 2.68407672642043 4.9375000000000036
    vertex 10.508615540883554 2.4252576813179094 4.9375000000000036
    vertex 10.52565262773902 2.5546672038691702 4.9375000000000036
  endloop
endfacet
facet normal -0.5000000000000038 0.8660254037844367 -6.459877246849743e-17
  outer loop
    vertex 9.77565262773902 2.987679905761388 4.9375000000000036
    vertex 9.89624310518776 3.037630117013703 3.552713678800501e-15
    vertex 9.775652627739019 2.9876799057613876 3.552713678800501e-15
  endloop
endfacet
facet normal -0.25881904510252196 0.965925826289068 -3.275755819186023e-17
  outer loop
    vertex 9.89624310518776 3.037630117013703 3.552713678800501e-15
    vertex 9.77565262773902 2.987679905761388 4.9375000000000036
    vertex 9.89624310518776 3.0376301170137032 4.9375000000000036
  endloop
endfacet
facet normal 0.25881904510252257 -0.965925826289068 6.586834521929575e-17
  outer loop
    vertex 10.15506215029028 2.0717042907246355 4.9375000000000036
    vertex 10.025652627739023 2.054667203869169 3.552713678800501e-15
    vertex 10.15506215029028 2.071704290724635 3.552713678800501e-15
  endloop
endfacet
facet normal -5.346665937388144e-16 -1.0 2.851499834196421e-17
  outer loop
    vertex 10.025652627739023 2.054667203869169 3.552713678800501e-15
    vertex 10.15506215029028 2.0717042907246355 4.9375000000000036
    vertex 10.02565262773902 2.0546672038691693 4.9375000000000036
  endloop
endfacet
facet normal -5.346665937388144e-16 -1.0 2.851499834196421e-17
  outer loop
    vertex 10.02565262773902 2.0546672038691693 4.9375000000000036
    vertex 10.15506215029028 2.0717042907246355 4.9375000000000036
    vertex 10.150652627739019 2.071123766067594 4.9375000000000036
  endloop
endfacet
facet normal -0.500000000000001 -0.8660254037844382 5.004021916000968e-17
  outer loop
    vertex 10.15065262773902 2.7711735548152787 4.9375000000000036
    vertex 10.09035738901465 2.7961486604414363 3.552713678800501e-15
    vertex 10.15065262773902 2.7711735548152783 3.552713678800501e-15
  endloop
endfacet
facet normal -0.25881904510252307 -0.9659258262890679 4.037437544366428e-17
  outer loop
    vertex 10.09035738901465 2.7961486604414363 3.552713678800501e-15
    vertex 10.15065262773902 2.7711735548152787 4.9375000000000036
    vertex 10.09035738901465 2.7961486604414367 4.9375000000000036
  endloop
endfacet
facet normal -0.25881904510252307 -0.9659258262890679 4.037437544366428e-17
  outer loop
    vertex 10.09035738901465 2.7961486604414367 4.9375000000000036
    vertex 10.15065262773902 2.7711735548152787 4.9375000000000036
    vertex 10.120984073024399 2.783462672554083 4.9375000000000036
  endloop
endfacet
facet normal 1.0 -1.541622011946915e-15 1.7261189715975898e-16
  outer loop
    vertex 10.525652627739023 2.5546672038691702 3.552713678800501e-15
    vertex 10.508615540883554 2.68407672642043 4.9375000000000036
    vertex 10.52565262773902 2.5546672038691702 4.9375000000000036
  endloop
endfacet
facet normal 0.9659258262890675 0.25881904510252396 1.8275314339349415e-16
  outer loop
    vertex 10.508615540883554 2.68407672642043 4.9375000000000036
    vertex 10.525652627739023 2.5546672038691702 3.552713678800501e-15
    vertex 10.508615540883556 2.68407672642043 3.552713678800501e-15
  endloop
endfacet
facet normal -0.9659258262890679 0.25881904510252257 -2.9095475360605116e-17
  outer loop
    vertex 10.267134084311287 2.4899624425935403 4.9375000000000036
    vertex 10.27565262773902 2.5546672038691693 3.552713678800501e-15
    vertex 10.267134084311287 2.48996244259354 3.552713678800501e-15
  endloop
endfacet
facet normal -1.0 4.633777145736388e-16 -5.883382884022365e-18
  outer loop
    vertex 10.27565262773902 2.5546672038691693 3.552713678800501e-15
    vertex 10.267134084311287 2.4899624425935403 4.9375000000000036
    vertex 10.27565262773902 2.5546672038691693 4.9375000000000036
  endloop
endfacet
facet normal 0.7071067811865476 0.7071067811865476 2.1264956401851054e-18
  outer loop
    vertex 9.848875932442384 2.377890508572533 4.9375000000000036
    vertex 9.90065262773902 2.33816085292306 3.552713678800501e-15
    vertex 9.848875932442384 2.377890508572533 3.552713678800501e-15
  endloop
endfacet
facet normal 0.5000000000000053 0.8660254037844356 -1.701563306179725e-17
  outer loop
    vertex 9.90065262773902 2.33816085292306 3.552713678800501e-15
    vertex 9.848875932442384 2.377890508572533 4.9375000000000036
    vertex 9.90065262773902 2.33816085292306 4.9375000000000036
  endloop
endfacet
facet normal -0.25881904510252113 -0.9659258262890682 -4.357844659067913e-17
  outer loop
    vertex 9.89624310518776 2.0717042907246355 4.9375000000000036
    vertex 9.775652627739023 2.12165450197695 3.552713678800501e-15
    vertex 9.89624310518776 2.071704290724636 3.552713678800501e-15
  endloop
endfacet
facet normal -0.49999999999999767 -0.86602540378444 -4.072880180244285e-17
  outer loop
    vertex 9.775652627739023 2.12165450197695 3.552713678800501e-15
    vertex 9.89624310518776 2.0717042907246355 4.9375000000000036
    vertex 9.77565262773902 2.1216545019769497 4.9375000000000036
  endloop
endfacet
facet normal -0.7071067811865488 0.7071067811865462 -1.0298282373119245e-16
  outer loop
    vertex 9.672099237145748 2.9082205944624424 4.9375000000000036
    vertex 9.775652627739019 2.9876799057613876 3.552713678800501e-15
    vertex 9.672099237145748 2.9082205944624415 3.552713678800501e-15
  endloop
endfacet
facet normal -0.5000000000000038 0.8660254037844367 -6.459877246849743e-17
  outer loop
    vertex 9.775652627739019 2.9876799057613876 3.552713678800501e-15
    vertex 9.672099237145748 2.9082205944624424 4.9375000000000036
    vertex 9.77565262773902 2.987679905761388 4.9375000000000036
  endloop
endfacet
facet normal 0.49999999999999756 0.8660254037844403 3.921655229415559e-17
  outer loop
    vertex 10.27565262773902 2.987679905761389 4.9375000000000036
    vertex 10.379206018332294 2.9082205944624433 3.552713678800501e-15
    vertex 10.27565262773902 2.9876799057613894 3.552713678800501e-15
  endloop
endfacet
facet normal 0.7071067811865462 0.7071067811865488 6.506670596173776e-17
  outer loop
    vertex 10.379206018332294 2.9082205944624433 3.552713678800501e-15
    vertex 10.27565262773902 2.987679905761389 4.9375000000000036
    vertex 10.379206018332294 2.9082205944624433 4.9375000000000036
  endloop
endfacet
facet normal -0.8660254037844348 0.5000000000000069 -2.514015075049231e-17
  outer loop
    vertex 10.24215897868513 2.4296672038691702 4.9375000000000036
    vertex 10.267134084311287 2.48996244259354 3.552713678800501e-15
    vertex 10.24215897868513 2.42966720386917 3.552713678800501e-15
  endloop
endfacet
facet normal -0.9659258262890679 0.2588190451025226 -2.909547536060512e-17
  outer loop
    vertex 10.267134084311287 2.48996244259354 3.552713678800501e-15
    vertex 10.24215897868513 2.4296672038691702 4.9375000000000036
    vertex 10.267134084311287 2.4899624425935403 4.9375000000000036
  endloop
endfacet
facet normal 0.5000000000000008 -0.8660254037844383 4.487910702808868e-17
  outer loop
    vertex 10.27565262773902 2.1216545019769506 4.9375000000000036
    vertex 10.15506215029028 2.071704290724635 3.552713678800501e-15
    vertex 10.275652627739023 2.12165450197695 3.552713678800501e-15
  endloop
endfacet
facet normal 0.25881904510252257 -0.965925826289068 6.586834521929575e-17
  outer loop
    vertex 10.15506215029028 2.071704290724635 3.552713678800501e-15
    vertex 10.27565262773902 2.1216545019769506 4.9375000000000036
    vertex 10.15506215029028 2.0717042907246355 4.9375000000000036
  endloop
endfacet
facet normal -0.8660254037844377 -0.5000000000000018 4.313818072453678e-17
  outer loop
    vertex 9.592639925846802 2.3046672038691685 4.9375000000000036
    vertex 9.542689714594488 2.4252576813179085 3.552713678800501e-15
    vertex 9.592639925846802 2.304667203869168 3.552713678800501e-15
  endloop
endfacet
facet normal -0.965925826289068 -0.258819045102522 1.5255998229528353e-17
  outer loop
    vertex 9.542689714594488 2.4252576813179085 3.552713678800501e-15
    vertex 9.592639925846802 2.3046672038691685 4.9375000000000036
    vertex 9.542689714594488 2.4252576813179085 4.9375000000000036
  endloop
endfacet
facet normal -0.9659258262890679 -0.25881904510252307 1.2344241344563294e-17
  outer loop
    vertex 10.267134084311287 2.6193719651447993 4.9375000000000036
    vertex 10.27565262773902 2.5546672038691693 3.552713678800501e-15
    vertex 10.27565262773902 2.5546672038691693 4.9375000000000036
  endloop
endfacet
facet normal -1.0 4.633777145736388e-16 -5.883382884022365e-18
  outer loop
    vertex 10.27565262773902 2.5546672038691693 3.552713678800501e-15
    vertex 10.267134084311287 2.6193719651447993 4.9375000000000036
    vertex 10.267134084311287 2.6193719651447993 3.552713678800501e-15
  endloop
endfacet
facet normal -0.258819045102522 0.965925826289068 -5.4176296465865115e-18
  outer loop
    vertex 10.09035738901465 2.313185747296902 4.9375000000000036
    vertex 10.15065262773902 2.33816085292306 3.552713678800501e-15
    vertex 10.09035738901465 2.313185747296902 3.552713678800501e-15
  endloop
endfacet
facet normal -0.5000000000000099 0.8660254037844328 -7.680700277468647e-19
  outer loop
    vertex 10.15065262773902 2.33816085292306 3.552713678800501e-15
    vertex 10.09035738901465 2.313185747296902 4.9375000000000036
    vertex 10.15065262773902 2.33816085292306 4.9375000000000036
  endloop
endfacet
facet normal -0.5000000000000099 0.8660254037844328 -7.680700277468647e-19
  outer loop
    vertex 10.15065262773902 2.33816085292306 4.9375000000000036
    vertex 10.09035738901465 2.313185747296902 4.9375000000000036
    vertex 10.120984073024403 2.3258717351842573 4.9375000000000036
  endloop
endfacet
facet normal 0.258819045102522 0.9659258262890681 -1.9181577799398922e-17
  outer loop
    vertex 9.96094786646339 2.313185747296902 4.9375000000000036
    vertex 10.02565262773902 2.3046672038691693 3.552713678800501e-15
    vertex 9.96094786646339 2.313185747296902 3.552713678800501e-15
  endloop
endfacet
facet normal -4.3664438488669796e-16 1.0 -1.124155493575487e-19
  outer loop
    vertex 10.02565262773902 2.3046672038691693 3.552713678800501e-15
    vertex 9.96094786646339 2.313185747296902 4.9375000000000036
    vertex 10.02565262773902 2.3046672038691693 4.9375000000000036
  endloop
endfacet
facet normal 0.8660254037844408 -0.49999999999999645 8.849931788086861e-18
  outer loop
    vertex 10.458665329631241 2.3046672038691702 3.552713678800501e-15
    vertex 10.379206018332296 2.2011138132758963 4.9375000000000036
    vertex 10.379206018332296 2.2011138132758963 3.552713678800501e-15
  endloop
endfacet
facet normal 0.7071067811865498 -0.7071067811865454 1.6980394205722006e-17
  outer loop
    vertex 10.379206018332296 2.2011138132758963 4.9375000000000036
    vertex 10.458665329631241 2.3046672038691702 3.552713678800501e-15
    vertex 10.458665329631241 2.3046672038691702 4.9375000000000036
  endloop
endfacet
facet normal -0.8660254037844378 -0.5000000000000014 4.572097368741473e-17
  outer loop
    vertex 10.24215897868513 2.6796672038691693 4.9375000000000036
    vertex 10.202429323035657 2.731443899165806 3.552713678800501e-15
    vertex 10.24215897868513 2.679667203869169 3.552713678800501e-15
  endloop
endfacet
facet normal -0.7071067811865481 -0.707106781186547 6.238096332845391e-17
  outer loop
    vertex 10.202429323035657 2.731443899165806 3.552713678800501e-15
    vertex 10.24215897868513 2.6796672038691693 4.9375000000000036
    vertex 10.202429323035659 2.731443899165806 4.9375000000000036
  endloop
endfacet
endsolid Chandelier1ArrangedForPrint
