solid Chandelier1ArrangedForPrint
facet normal -0.7226936527361942 0.6911684919719772 0.0
  outer loop
    vertex -3.4810544343142245 27.96519695135418 0.5000000000000036
    vertex -3.6160340168439884 27.780923809537594 0.37500000000000355
    vertex -3.6160340168439884 27.780923809537594 0.5000000000000036
  endloop
endfacet
facet normal -0.8769560327702098 0.48057061561016695 0.0
  outer loop
    vertex -3.6160340168439884 27.780923809537594 0.37500000000000355
    vertex -3.4810544343142245 27.96519695135418 0.5000000000000036
    vertex -3.4810544343142245 27.96519695135418 0.37500000000000355
  endloop
endfacet
facet normal 0.9714553084093019 -0.23722264597501658 0.0
  outer loop
    vertex -1.9986740933119154 27.152854705650558 0.37500000000000355
    vertex -2.081360959496121 26.939925232219803 0.5000000000000036
    vertex -2.081360959496121 26.939925232219803 0.37500000000000355
  endloop
endfacet
facet normal 0.8769560327702095 -0.48057061561016756 0.0
  outer loop
    vertex -2.081360959496121 26.939925232219803 0.5000000000000036
    vertex -1.9986740933119154 27.152854705650558 0.37500000000000355
    vertex -1.9986740933119154 27.152854705650558 0.5000000000000036
  endloop
endfacet
facet normal 0.7226936527361939 -0.6911684919719775 0.0
  outer loop
    vertex -2.216340542025885 26.75565209040322 0.5000000000000036
    vertex -2.39441420541611 26.612593190289843 0.37500000000000355
    vertex -2.216340542025885 26.75565209040322 0.37500000000000355
  endloop
endfacet
facet normal 0.519180894575937 -0.8546643778158359 0.0
  outer loop
    vertex -2.39441420541611 26.612593190289843 0.37500000000000355
    vertex -2.216340542025885 26.75565209040322 0.5000000000000036
    vertex -2.39441420541611 26.612593190289843 0.5000000000000036
  endloop
endfacet
facet normal -0.971455308409302 0.23722264597501594 0.0
  outer loop
    vertex -3.698720883028194 27.56799433610684 0.5000000000000036
    vertex -3.7234800595828954 27.34091932279362 0.37500000000000355
    vertex -3.7234800595828954 27.34091932279362 0.5000000000000036
  endloop
endfacet
facet normal -0.999751510186104 -0.02229165495437358 0.0
  outer loop
    vertex -3.7234800595828954 27.34091932279362 0.37500000000000355
    vertex -3.698720883028194 27.56799433610684 0.5000000000000036
    vertex -3.698720883028194 27.56799433610684 0.37500000000000355
  endloop
endfacet
facet normal -0.7226936527361942 0.6911684919719772 0.0
  outer loop
    vertex -3.4810544343142245 27.96519695135418 0.5000000000000036
    vertex -3.3029807709239996 28.108255851467554 0.37500000000000355
    vertex -3.4810544343142245 27.96519695135418 0.37500000000000355
  endloop
endfacet
facet normal -0.5191808945759371 0.8546643778158358 0.0
  outer loop
    vertex -3.3029807709239996 28.108255851467554 0.37500000000000355
    vertex -3.4810544343142245 27.96519695135418 0.5000000000000036
    vertex -3.3029807709239996 28.108255851467554 0.5000000000000036
  endloop
endfacet
facet normal -0.48057061561016734 -0.8769560327702096 0.0
  outer loop
    vertex -3.269196776828951 26.593087992204765 0.5000000000000036
    vertex -3.453469918645535 26.728067574734528 0.37500000000000355
    vertex -3.269196776828951 26.593087992204765 0.37500000000000355
  endloop
endfacet
facet normal -0.6911684919719774 -0.722693652736194 0.0
  outer loop
    vertex -3.453469918645535 26.728067574734528 0.37500000000000355
    vertex -3.269196776828951 26.593087992204765 0.5000000000000036
    vertex -3.453469918645535 26.728067574734528 0.5000000000000036
  endloop
endfacet
facet normal 0.6911684919719772 0.7226936527361945 0.0
  outer loop
    vertex -2.2439250576945744 27.99278146702287 0.37500000000000355
    vertex -2.1008661575811978 27.814707803632643 0.5000000000000036
    vertex -2.1008661575811978 27.814707803632643 0.37500000000000355
  endloop
endfacet
facet normal 0.8546643778158359 0.5191808945759369 0.0
  outer loop
    vertex -2.1008661575811978 27.814707803632643 0.5000000000000036
    vertex -2.2439250576945744 27.99278146702287 0.37500000000000355
    vertex -2.2439250576945744 27.99278146702287 0.5000000000000036
  endloop
endfacet
facet normal 0.2802868164373242 -0.9599162987112104 0.0
  outer loop
    vertex -2.6034465237873956 26.52049775950639 0.5000000000000036
    vertex -2.8291922900849777 26.485641949465858 0.37500000000000355
    vertex -2.6034465237873956 26.52049775950639 0.37500000000000355
  endloop
endfacet
facet normal 0.02229165495437339 -0.9997515101861039 0.0
  outer loop
    vertex -2.8291922900849777 26.485641949465858 0.37500000000000355
    vertex -2.6034465237873956 26.52049775950639 0.5000000000000036
    vertex -2.8291922900849777 26.485641949465858 0.5000000000000036
  endloop
endfacet
facet normal -0.999751510186104 -0.02229165495437358 0.0
  outer loop
    vertex -3.7234800595828954 27.34091932279362 0.5000000000000036
    vertex -3.6886242495423636 27.11517355649604 0.37500000000000355
    vertex -3.6886242495423636 27.11517355649604 0.5000000000000036
  endloop
endfacet
facet normal -0.9599162987112104 -0.28028681643732445 0.0
  outer loop
    vertex -3.6886242495423636 27.11517355649604 0.37500000000000355
    vertex -3.7234800595828954 27.34091932279362 0.5000000000000036
    vertex -3.7234800595828954 27.34091932279362 0.37500000000000355
  endloop
endfacet
facet normal -0.2802868164373248 0.9599162987112104 0.0
  outer loop
    vertex -3.0939484525527137 28.20035128225101 0.5000000000000036
    vertex -2.868202686255132 28.23520709229154 0.37500000000000355
    vertex -3.0939484525527137 28.20035128225101 0.37500000000000355
  endloop
endfacet
facet normal -0.022291654954373772 0.9997515101861038 0.0
  outer loop
    vertex -2.868202686255132 28.23520709229154 0.37500000000000355
    vertex -3.0939484525527137 28.20035128225101 0.5000000000000036
    vertex -2.868202686255132 28.23520709229154 0.5000000000000036
  endloop
endfacet
facet normal 0.02229165495437339 -0.9997515101861039 0.0
  outer loop
    vertex -2.8291922900849777 26.485641949465858 0.5000000000000036
    vertex -3.0562673033981937 26.51040112602056 0.37500000000000355
    vertex -2.8291922900849777 26.485641949465858 0.37500000000000355
  endloop
endfacet
facet normal -0.2372226459750163 -0.9714553084093019 0.0
  outer loop
    vertex -3.0562673033981937 26.51040112602056 0.37500000000000355
    vertex -2.8291922900849777 26.485641949465858 0.5000000000000036
    vertex -3.0562673033981937 26.51040112602056 0.5000000000000036
  endloop
endfacet
facet normal 0.8769560327702095 -0.48057061561016756 0.0
  outer loop
    vertex -2.081360959496121 26.939925232219803 0.37500000000000355
    vertex -2.216340542025885 26.75565209040322 0.5000000000000036
    vertex -2.216340542025885 26.75565209040322 0.37500000000000355
  endloop
endfacet
facet normal 0.7226936527361939 -0.6911684919719775 0.0
  outer loop
    vertex -2.216340542025885 26.75565209040322 0.5000000000000036
    vertex -2.081360959496121 26.939925232219803 0.37500000000000355
    vertex -2.081360959496121 26.939925232219803 0.5000000000000036
  endloop
endfacet
facet normal -0.8546643778158359 -0.519180894575937 0.0
  outer loop
    vertex -3.596528818758911 26.906141238124754 0.5000000000000036
    vertex -3.453469918645535 26.728067574734528 0.37500000000000355
    vertex -3.453469918645535 26.728067574734528 0.5000000000000036
  endloop
endfacet
facet normal -0.6911684919719774 -0.722693652736194 0.0
  outer loop
    vertex -3.453469918645535 26.728067574734528 0.37500000000000355
    vertex -3.596528818758911 26.906141238124754 0.5000000000000036
    vertex -3.596528818758911 26.906141238124754 0.37500000000000355
  endloop
endfacet
facet normal -0.022291654954373772 0.9997515101861038 0.0
  outer loop
    vertex -2.868202686255132 28.23520709229154 0.5000000000000036
    vertex -2.6411276729419155 28.21044791573684 0.37500000000000355
    vertex -2.868202686255132 28.23520709229154 0.37500000000000355
  endloop
endfacet
facet normal 0.23722264597501605 0.971455308409302 0.0
  outer loop
    vertex -2.6411276729419155 28.21044791573684 0.37500000000000355
    vertex -2.868202686255132 28.23520709229154 0.5000000000000036
    vertex -2.6411276729419155 28.21044791573684 0.5000000000000036
  endloop
endfacet
facet normal 0.23722264597501605 0.971455308409302 0.0
  outer loop
    vertex -2.6411276729419155 28.21044791573684 0.5000000000000036
    vertex -2.4281981995111583 28.127761049552632 0.37500000000000355
    vertex -2.6411276729419155 28.21044791573684 0.37500000000000355
  endloop
endfacet
facet normal 0.4805706156101667 0.87695603277021 0.0
  outer loop
    vertex -2.4281981995111583 28.127761049552632 0.37500000000000355
    vertex -2.6411276729419155 28.21044791573684 0.5000000000000036
    vertex -2.4281981995111583 28.127761049552632 0.5000000000000036
  endloop
endfacet
facet normal 0.519180894575937 -0.8546643778158359 0.0
  outer loop
    vertex -2.39441420541611 26.612593190289843 0.5000000000000036
    vertex -2.6034465237873956 26.52049775950639 0.37500000000000355
    vertex -2.39441420541611 26.612593190289843 0.37500000000000355
  endloop
endfacet
facet normal 0.2802868164373242 -0.9599162987112104 0.0
  outer loop
    vertex -2.6034465237873956 26.52049775950639 0.37500000000000355
    vertex -2.39441420541611 26.612593190289843 0.5000000000000036
    vertex -2.6034465237873956 26.52049775950639 0.5000000000000036
  endloop
endfacet
facet normal 0.4805706156101667 0.87695603277021 0.0
  outer loop
    vertex -2.4281981995111583 28.127761049552632 0.5000000000000036
    vertex -2.2439250576945744 27.99278146702287 0.37500000000000355
    vertex -2.4281981995111583 28.127761049552632 0.37500000000000355
  endloop
endfacet
facet normal 0.6911684919719772 0.7226936527361945 0.0
  outer loop
    vertex -2.2439250576945744 27.99278146702287 0.37500000000000355
    vertex -2.4281981995111583 28.127761049552632 0.5000000000000036
    vertex -2.2439250576945744 27.99278146702287 0.5000000000000036
  endloop
endfacet
facet normal -0.5191808945759371 0.8546643778158358 0.0
  outer loop
    vertex -3.3029807709239996 28.108255851467554 0.5000000000000036
    vertex -3.0939484525527137 28.20035128225101 0.37500000000000355
    vertex -3.3029807709239996 28.108255851467554 0.37500000000000355
  endloop
endfacet
facet normal -0.2802868164373248 0.9599162987112104 0.0
  outer loop
    vertex -3.0939484525527137 28.20035128225101 0.37500000000000355
    vertex -3.3029807709239996 28.108255851467554 0.5000000000000036
    vertex -3.0939484525527137 28.20035128225101 0.5000000000000036
  endloop
endfacet
facet normal 0.8546643778158359 0.5191808945759369 0.0
  outer loop
    vertex -2.1008661575811978 27.814707803632643 0.37500000000000355
    vertex -2.0087707267977457 27.605675485261358 0.5000000000000036
    vertex -2.0087707267977457 27.605675485261358 0.37500000000000355
  endloop
endfacet
facet normal 0.9599162987112103 0.28028681643732506 0.0
  outer loop
    vertex -2.0087707267977457 27.605675485261358 0.5000000000000036
    vertex -2.1008661575811978 27.814707803632643 0.37500000000000355
    vertex -2.1008661575811978 27.814707803632643 0.5000000000000036
  endloop
endfacet
facet normal 0.9599162987112103 0.28028681643732506 0.0
  outer loop
    vertex -2.0087707267977457 27.605675485261358 0.37500000000000355
    vertex -1.9739149167572134 27.379929718963776 0.5000000000000036
    vertex -1.9739149167572134 27.379929718963776 0.37500000000000355
  endloop
endfacet
facet normal 0.9997515101861038 0.022291654954373834 0.0
  outer loop
    vertex -1.9739149167572134 27.379929718963776 0.5000000000000036
    vertex -2.0087707267977457 27.605675485261358 0.37500000000000355
    vertex -2.0087707267977457 27.605675485261358 0.5000000000000036
  endloop
endfacet
facet normal -0.2372226459750163 -0.9714553084093019 0.0
  outer loop
    vertex -3.0562673033981937 26.51040112602056 0.5000000000000036
    vertex -3.269196776828951 26.593087992204765 0.37500000000000355
    vertex -3.0562673033981937 26.51040112602056 0.37500000000000355
  endloop
endfacet
facet normal -0.48057061561016734 -0.8769560327702096 0.0
  outer loop
    vertex -3.269196776828951 26.593087992204765 0.37500000000000355
    vertex -3.0562673033981937 26.51040112602056 0.5000000000000036
    vertex -3.269196776828951 26.593087992204765 0.5000000000000036
  endloop
endfacet
facet normal 0.0 0.0 -1.0
  outer loop
    vertex -3.698720883028194 27.56799433610684 0.37500000000000355
    vertex -3.6886242495423636 27.11517355649604 0.37500000000000355
    vertex -3.7234800595828954 27.34091932279362 0.37500000000000355
  endloop
endfacet
facet normal 0.0 0.0 -1.0
  outer loop
    vertex -3.6886242495423636 27.11517355649604 0.37500000000000355
    vertex -3.698720883028194 27.56799433610684 0.37500000000000355
    vertex -3.6160340168439884 27.780923809537594 0.37500000000000355
  endloop
endfacet
facet normal 0.0 0.0 -1.0
  outer loop
    vertex -3.6886242495423636 27.11517355649604 0.37500000000000355
    vertex -3.6160340168439884 27.780923809537594 0.37500000000000355
    vertex -3.596528818758911 26.906141238124754 0.37500000000000355
  endloop
endfacet
facet normal 0.0 0.0 -1.0
  outer loop
    vertex -3.596528818758911 26.906141238124754 0.37500000000000355
    vertex -3.6160340168439884 27.780923809537594 0.37500000000000355
    vertex -3.4810544343142245 27.96519695135418 0.37500000000000355
  endloop
endfacet
facet normal 0.0 0.0 -1.0
  outer loop
    vertex -3.596528818758911 26.906141238124754 0.37500000000000355
    vertex -3.4810544343142245 27.96519695135418 0.37500000000000355
    vertex -3.453469918645535 26.728067574734528 0.37500000000000355
  endloop
endfacet
facet normal 0.0 0.0 -1.0
  outer loop
    vertex -3.453469918645535 26.728067574734528 0.37500000000000355
    vertex -3.4810544343142245 27.96519695135418 0.37500000000000355
    vertex -3.3029807709239996 28.108255851467554 0.37500000000000355
  endloop
endfacet
facet normal 0.0 0.0 -1.0
  outer loop
    vertex -3.453469918645535 26.728067574734528 0.37500000000000355
    vertex -3.3029807709239996 28.108255851467554 0.37500000000000355
    vertex -3.269196776828951 26.593087992204765 0.37500000000000355
  endloop
endfacet
facet normal 0.0 0.0 -1.0
  outer loop
    vertex -3.269196776828951 26.593087992204765 0.37500000000000355
    vertex -3.3029807709239996 28.108255851467554 0.37500000000000355
    vertex -3.0939484525527137 28.20035128225101 0.37500000000000355
  endloop
endfacet
facet normal 0.0 0.0 -1.0
  outer loop
    vertex -3.269196776828951 26.593087992204765 0.37500000000000355
    vertex -3.0939484525527137 28.20035128225101 0.37500000000000355
    vertex -3.0986974881700546 27.3604245208787 0.37500000000000355
  endloop
endfacet
facet normal 0.0 0.0 -1.0
  outer loop
    vertex -3.0986974881700546 27.3604245208787 0.37500000000000355
    vertex -3.0939484525527137 28.20035128225101 0.37500000000000355
    vertex -3.0901789447423216 27.42512928215433 0.37500000000000355
  endloop
endfacet
facet normal 0.0 0.0 -1.0
  outer loop
    vertex -3.0901789447423216 27.42512928215433 0.37500000000000355
    vertex -3.0939484525527137 28.20035128225101 0.37500000000000355
    vertex -2.868202686255132 28.23520709229154 0.37500000000000355
  endloop
endfacet
facet normal 0.0 0.0 -1.0
  outer loop
    vertex -3.0901789447423216 27.42512928215433 0.37500000000000355
    vertex -2.868202686255132 28.23520709229154 0.37500000000000355
    vertex -3.065203839116164 27.4854245208787 0.37500000000000355
  endloop
endfacet
facet normal 0.0 0.0 -1.0
  outer loop
    vertex -3.065203839116164 27.4854245208787 0.37500000000000355
    vertex -2.868202686255132 28.23520709229154 0.37500000000000355
    vertex -3.0254741834666916 27.537201216175337 0.37500000000000355
  endloop
endfacet
facet normal 0.0 0.0 -1.0
  outer loop
    vertex -3.0254741834666916 27.537201216175337 0.37500000000000355
    vertex -2.868202686255132 28.23520709229154 0.37500000000000355
    vertex -2.973697488170054 27.576930871824807 0.37500000000000355
  endloop
endfacet
facet normal 0.0 0.0 -1.0
  outer loop
    vertex -2.973697488170054 27.576930871824807 0.37500000000000355
    vertex -2.868202686255132 28.23520709229154 0.37500000000000355
    vertex -2.9134022494456846 27.601905977450965 0.37500000000000355
  endloop
endfacet
facet normal 0.0 0.0 -1.0
  outer loop
    vertex -2.9134022494456846 27.601905977450965 0.37500000000000355
    vertex -2.868202686255132 28.23520709229154 0.37500000000000355
    vertex -2.8486974881700546 27.6104245208787 0.37500000000000355
  endloop
endfacet
facet normal 0.0 0.0 -1.0
  outer loop
    vertex -2.8486974881700546 27.6104245208787 0.37500000000000355
    vertex -2.868202686255132 28.23520709229154 0.37500000000000355
    vertex -2.6411276729419155 28.21044791573684 0.37500000000000355
  endloop
endfacet
facet normal 0.0 0.0 -1.0
  outer loop
    vertex -2.8486974881700546 27.6104245208787 0.37500000000000355
    vertex -2.6411276729419155 28.21044791573684 0.37500000000000355
    vertex -2.7839927268944242 27.601905977450965 0.37500000000000355
  endloop
endfacet
facet normal 0.0 0.0 -1.0
  outer loop
    vertex -2.7839927268944242 27.601905977450965 0.37500000000000355
    vertex -2.6411276729419155 28.21044791573684 0.37500000000000355
    vertex -2.7236974881700546 27.576930871824807 0.37500000000000355
  endloop
endfacet
facet normal 0.0 0.0 -1.0
  outer loop
    vertex -2.7236974881700546 27.576930871824807 0.37500000000000355
    vertex -2.6411276729419155 28.21044791573684 0.37500000000000355
    vertex -2.6719207928734177 27.537201216175337 0.37500000000000355
  endloop
endfacet
facet normal 0.0 0.0 -1.0
  outer loop
    vertex -2.6719207928734177 27.537201216175337 0.37500000000000355
    vertex -2.6411276729419155 28.21044791573684 0.37500000000000355
    vertex -2.632191137223945 27.4854245208787 0.37500000000000355
  endloop
endfacet
facet normal 0.0 0.0 -1.0
  outer loop
    vertex -2.632191137223945 27.4854245208787 0.37500000000000355
    vertex -2.6411276729419155 28.21044791573684 0.37500000000000355
    vertex -2.4281981995111583 28.127761049552632 0.37500000000000355
  endloop
endfacet
facet normal 0.0 0.0 -1.0
  outer loop
    vertex -2.632191137223945 27.4854245208787 0.37500000000000355
    vertex -2.4281981995111583 28.127761049552632 0.37500000000000355
    vertex -2.6072160315977877 27.42512928215433 0.37500000000000355
  endloop
endfacet
facet normal 0.0 0.0 -1.0
  outer loop
    vertex -2.6072160315977877 27.42512928215433 0.37500000000000355
    vertex -2.4281981995111583 28.127761049552632 0.37500000000000355
    vertex -2.5986974881700546 27.3604245208787 0.37500000000000355
  endloop
endfacet
facet normal 0.0 0.0 -1.0
  outer loop
    vertex -3.0986974881700546 27.3604245208787 0.37500000000000355
    vertex -3.0562673033981937 26.51040112602056 0.37500000000000355
    vertex -3.269196776828951 26.593087992204765 0.37500000000000355
  endloop
endfacet
facet normal 0.0 0.0 -1.0
  outer loop
    vertex -3.0562673033981937 26.51040112602056 0.37500000000000355
    vertex -3.0986974881700546 27.3604245208787 0.37500000000000355
    vertex -3.0901789447423216 27.29571975960307 0.37500000000000355
  endloop
endfacet
facet normal 0.0 0.0 -1.0
  outer loop
    vertex -3.0562673033981937 26.51040112602056 0.37500000000000355
    vertex -3.0901789447423216 27.29571975960307 0.37500000000000355
    vertex -3.0652038391161645 27.2354245208787 0.37500000000000355
  endloop
endfacet
facet normal 0.0 0.0 -1.0
  outer loop
    vertex -3.0562673033981937 26.51040112602056 0.37500000000000355
    vertex -3.0652038391161645 27.2354245208787 0.37500000000000355
    vertex -3.0254741834666916 27.183647825582064 0.37500000000000355
  endloop
endfacet
facet normal 0.0 0.0 -1.0
  outer loop
    vertex -3.0562673033981937 26.51040112602056 0.37500000000000355
    vertex -3.0254741834666916 27.183647825582064 0.37500000000000355
    vertex -2.8291922900849777 26.485641949465858 0.37500000000000355
  endloop
endfacet
facet normal 0.0 0.0 -1.0
  outer loop
    vertex -2.8291922900849777 26.485641949465858 0.37500000000000355
    vertex -3.0254741834666916 27.183647825582064 0.37500000000000355
    vertex -2.9736974881700546 27.14391816993259 0.37500000000000355
  endloop
endfacet
facet normal 0.0 0.0 -1.0
  outer loop
    vertex -2.8291922900849777 26.485641949465858 0.37500000000000355
    vertex -2.9736974881700546 27.14391816993259 0.37500000000000355
    vertex -2.913402249445685 27.118943064306432 0.37500000000000355
  endloop
endfacet
facet normal 0.0 0.0 -1.0
  outer loop
    vertex -2.8291922900849777 26.485641949465858 0.37500000000000355
    vertex -2.913402249445685 27.118943064306432 0.37500000000000355
    vertex -2.8486974881700546 27.1104245208787 0.37500000000000355
  endloop
endfacet
facet normal 0.0 0.0 -1.0
  outer loop
    vertex -2.8291922900849777 26.485641949465858 0.37500000000000355
    vertex -2.8486974881700546 27.1104245208787 0.37500000000000355
    vertex -2.7839927268944242 27.118943064306432 0.37500000000000355
  endloop
endfacet
facet normal 0.0 0.0 -1.0
  outer loop
    vertex -2.8291922900849777 26.485641949465858 0.37500000000000355
    vertex -2.7839927268944242 27.118943064306432 0.37500000000000355
    vertex -2.6034465237873956 26.52049775950639 0.37500000000000355
  endloop
endfacet
facet normal 0.0 0.0 -1.0
  outer loop
    vertex -2.6034465237873956 26.52049775950639 0.37500000000000355
    vertex -2.7839927268944242 27.118943064306432 0.37500000000000355
    vertex -2.7236974881700546 27.14391816993259 0.37500000000000355
  endloop
endfacet
facet normal 0.0 0.0 -1.0
  outer loop
    vertex -2.6034465237873956 26.52049775950639 0.37500000000000355
    vertex -2.7236974881700546 27.14391816993259 0.37500000000000355
    vertex -2.6719207928734177 27.183647825582064 0.37500000000000355
  endloop
endfacet
facet normal 0.0 0.0 -1.0
  outer loop
    vertex -2.6034465237873956 26.52049775950639 0.37500000000000355
    vertex -2.6719207928734177 27.183647825582064 0.37500000000000355
    vertex -2.632191137223945 27.2354245208787 0.37500000000000355
  endloop
endfacet
facet normal 0.0 0.0 -1.0
  outer loop
    vertex -2.6034465237873956 26.52049775950639 0.37500000000000355
    vertex -2.632191137223945 27.2354245208787 0.37500000000000355
    vertex -2.6072160315977877 27.29571975960307 0.37500000000000355
  endloop
endfacet
facet normal 0.0 0.0 -1.0
  outer loop
    vertex -2.6034465237873956 26.52049775950639 0.37500000000000355
    vertex -2.6072160315977877 27.29571975960307 0.37500000000000355
    vertex -2.5986974881700546 27.3604245208787 0.37500000000000355
  endloop
endfacet
facet normal 0.0 0.0 -1.0
  outer loop
    vertex -2.6034465237873956 26.52049775950639 0.37500000000000355
    vertex -2.5986974881700546 27.3604245208787 0.37500000000000355
    vertex -2.39441420541611 26.612593190289843 0.37500000000000355
  endloop
endfacet
facet normal 0.0 0.0 -1.0
  outer loop
    vertex -2.39441420541611 26.612593190289843 0.37500000000000355
    vertex -2.5986974881700546 27.3604245208787 0.37500000000000355
    vertex -2.4281981995111583 28.127761049552632 0.37500000000000355
  endloop
endfacet
facet normal 0.0 0.0 -1.0
  outer loop
    vertex -2.39441420541611 26.612593190289843 0.37500000000000355
    vertex -2.4281981995111583 28.127761049552632 0.37500000000000355
    vertex -2.2439250576945744 27.99278146702287 0.37500000000000355
  endloop
endfacet
facet normal 0.0 0.0 -1.0
  outer loop
    vertex -2.39441420541611 26.612593190289843 0.37500000000000355
    vertex -2.2439250576945744 27.99278146702287 0.37500000000000355
    vertex -2.216340542025885 26.75565209040322 0.37500000000000355
  endloop
endfacet
facet normal 0.0 0.0 -1.0
  outer loop
    vertex -2.216340542025885 26.75565209040322 0.37500000000000355
    vertex -2.2439250576945744 27.99278146702287 0.37500000000000355
    vertex -2.1008661575811978 27.814707803632643 0.37500000000000355
  endloop
endfacet
facet normal 0.0 0.0 -1.0
  outer loop
    vertex -2.216340542025885 26.75565209040322 0.37500000000000355
    vertex -2.1008661575811978 27.814707803632643 0.37500000000000355
    vertex -2.081360959496121 26.939925232219803 0.37500000000000355
  endloop
endfacet
facet normal 0.0 0.0 -1.0
  outer loop
    vertex -2.081360959496121 26.939925232219803 0.37500000000000355
    vertex -2.1008661575811978 27.814707803632643 0.37500000000000355
    vertex -2.0087707267977457 27.605675485261358 0.37500000000000355
  endloop
endfacet
facet normal 0.0 0.0 -1.0
  outer loop
    vertex -2.081360959496121 26.939925232219803 0.37500000000000355
    vertex -2.0087707267977457 27.605675485261358 0.37500000000000355
    vertex -1.9986740933119154 27.152854705650558 0.37500000000000355
  endloop
endfacet
facet normal 0.0 0.0 -1.0
  outer loop
    vertex -1.9986740933119154 27.152854705650558 0.37500000000000355
    vertex -2.0087707267977457 27.605675485261358 0.37500000000000355
    vertex -1.9739149167572134 27.379929718963776 0.37500000000000355
  endloop
endfacet
facet normal -0.8769560327702098 0.48057061561016695 0.0
  outer loop
    vertex -3.6160340168439884 27.780923809537594 0.5000000000000036
    vertex -3.698720883028194 27.56799433610684 0.37500000000000355
    vertex -3.698720883028194 27.56799433610684 0.5000000000000036
  endloop
endfacet
facet normal -0.971455308409302 0.23722264597501594 0.0
  outer loop
    vertex -3.698720883028194 27.56799433610684 0.37500000000000355
    vertex -3.6160340168439884 27.780923809537594 0.5000000000000036
    vertex -3.6160340168439884 27.780923809537594 0.37500000000000355
  endloop
endfacet
facet normal -0.9599162987112104 -0.28028681643732445 0.0
  outer loop
    vertex -3.6886242495423636 27.11517355649604 0.5000000000000036
    vertex -3.596528818758911 26.906141238124754 0.37500000000000355
    vertex -3.596528818758911 26.906141238124754 0.5000000000000036
  endloop
endfacet
facet normal -0.8546643778158359 -0.519180894575937 0.0
  outer loop
    vertex -3.596528818758911 26.906141238124754 0.37500000000000355
    vertex -3.6886242495423636 27.11517355649604 0.5000000000000036
    vertex -3.6886242495423636 27.11517355649604 0.37500000000000355
  endloop
endfacet
facet normal 0.9997515101861038 0.022291654954373834 0.0
  outer loop
    vertex -1.9739149167572134 27.379929718963776 0.37500000000000355
    vertex -1.9986740933119154 27.152854705650558 0.5000000000000036
    vertex -1.9986740933119154 27.152854705650558 0.37500000000000355
  endloop
endfacet
facet normal 0.9714553084093019 -0.23722264597501658 0.0
  outer loop
    vertex -1.9986740933119154 27.152854705650558 0.5000000000000036
    vertex -1.9739149167572134 27.379929718963776 0.37500000000000355
    vertex -1.9739149167572134 27.379929718963776 0.5000000000000036
  endloop
endfacet
facet normal 0.0 0.0 1.0
  outer loop
    vertex -3.6886242495423636 27.11517355649604 0.5000000000000036
    vertex -3.698720883028194 27.56799433610684 0.5000000000000036
    vertex -3.7234800595828954 27.34091932279362 0.5000000000000036
  endloop
endfacet
facet normal 0.0 0.0 1.0
  outer loop
    vertex -3.698720883028194 27.56799433610684 0.5000000000000036
    vertex -3.6886242495423636 27.11517355649604 0.5000000000000036
    vertex -3.6160340168439884 27.780923809537594 0.5000000000000036
  endloop
endfacet
facet normal 0.0 0.0 1.0
  outer loop
    vertex -3.6160340168439884 27.780923809537594 0.5000000000000036
    vertex -3.6886242495423636 27.11517355649604 0.5000000000000036
    vertex -3.596528818758911 26.906141238124754 0.5000000000000036
  endloop
endfacet
facet normal 0.0 0.0 1.0
  outer loop
    vertex -3.6160340168439884 27.780923809537594 0.5000000000000036
    vertex -3.596528818758911 26.906141238124754 0.5000000000000036
    vertex -3.4810544343142245 27.96519695135418 0.5000000000000036
  endloop
endfacet
facet normal 0.0 0.0 1.0
  outer loop
    vertex -3.4810544343142245 27.96519695135418 0.5000000000000036
    vertex -3.596528818758911 26.906141238124754 0.5000000000000036
    vertex -3.453469918645535 26.728067574734528 0.5000000000000036
  endloop
endfacet
facet normal 0.0 0.0 1.0
  outer loop
    vertex -3.4810544343142245 27.96519695135418 0.5000000000000036
    vertex -3.453469918645535 26.728067574734528 0.5000000000000036
    vertex -3.3029807709239996 28.108255851467554 0.5000000000000036
  endloop
endfacet
facet normal 0.0 0.0 1.0
  outer loop
    vertex -3.3029807709239996 28.108255851467554 0.5000000000000036
    vertex -3.453469918645535 26.728067574734528 0.5000000000000036
    vertex -3.269196776828951 26.593087992204765 0.5000000000000036
  endloop
endfacet
facet normal 0.0 0.0 1.0
  outer loop
    vertex -3.3029807709239996 28.108255851467554 0.5000000000000036
    vertex -3.269196776828951 26.593087992204765 0.5000000000000036
    vertex -3.0939484525527137 28.20035128225101 0.5000000000000036
  endloop
endfacet
facet normal 0.0 0.0 1.0
  outer loop
    vertex -3.0939484525527137 28.20035128225101 0.5000000000000036
    vertex -3.269196776828951 26.593087992204765 0.5000000000000036
    vertex -3.0562673033981937 26.51040112602056 0.5000000000000036
  endloop
endfacet
facet normal 0.0 0.0 1.0
  outer loop
    vertex -3.0939484525527137 28.20035128225101 0.5000000000000036
    vertex -3.0562673033981937 26.51040112602056 0.5000000000000036
    vertex -2.868202686255132 28.23520709229154 0.5000000000000036
  endloop
endfacet
facet normal 0.0 0.0 1.0
  outer loop
    vertex -2.868202686255132 28.23520709229154 0.5000000000000036
    vertex -3.0562673033981937 26.51040112602056 0.5000000000000036
    vertex -2.8291922900849777 26.485641949465858 0.5000000000000036
  endloop
endfacet
facet normal 0.0 0.0 1.0
  outer loop
    vertex -2.868202686255132 28.23520709229154 0.5000000000000036
    vertex -2.8291922900849777 26.485641949465858 0.5000000000000036
    vertex -2.6411276729419155 28.21044791573684 0.5000000000000036
  endloop
endfacet
facet normal 0.0 0.0 1.0
  outer loop
    vertex -2.6411276729419155 28.21044791573684 0.5000000000000036
    vertex -2.8291922900849777 26.485641949465858 0.5000000000000036
    vertex -2.6034465237873956 26.52049775950639 0.5000000000000036
  endloop
endfacet
facet normal 0.0 0.0 1.0
  outer loop
    vertex -2.6411276729419155 28.21044791573684 0.5000000000000036
    vertex -2.6034465237873956 26.52049775950639 0.5000000000000036
    vertex -2.4281981995111583 28.127761049552632 0.5000000000000036
  endloop
endfacet
facet normal 0.0 0.0 1.0
  outer loop
    vertex -2.4281981995111583 28.127761049552632 0.5000000000000036
    vertex -2.6034465237873956 26.52049775950639 0.5000000000000036
    vertex -2.39441420541611 26.612593190289843 0.5000000000000036
  endloop
endfacet
facet normal 0.0 0.0 1.0
  outer loop
    vertex -2.4281981995111583 28.127761049552632 0.5000000000000036
    vertex -2.39441420541611 26.612593190289843 0.5000000000000036
    vertex -2.2439250576945744 27.99278146702287 0.5000000000000036
  endloop
endfacet
facet normal 0.0 0.0 1.0
  outer loop
    vertex -2.2439250576945744 27.99278146702287 0.5000000000000036
    vertex -2.39441420541611 26.612593190289843 0.5000000000000036
    vertex -2.216340542025885 26.75565209040322 0.5000000000000036
  endloop
endfacet
facet normal 0.0 0.0 1.0
  outer loop
    vertex -2.2439250576945744 27.99278146702287 0.5000000000000036
    vertex -2.216340542025885 26.75565209040322 0.5000000000000036
    vertex -2.1008661575811978 27.814707803632643 0.5000000000000036
  endloop
endfacet
facet normal 0.0 0.0 1.0
  outer loop
    vertex -2.1008661575811978 27.814707803632643 0.5000000000000036
    vertex -2.216340542025885 26.75565209040322 0.5000000000000036
    vertex -2.081360959496121 26.939925232219803 0.5000000000000036
  endloop
endfacet
facet normal 0.0 0.0 1.0
  outer loop
    vertex -2.1008661575811978 27.814707803632643 0.5000000000000036
    vertex -2.081360959496121 26.939925232219803 0.5000000000000036
    vertex -2.0087707267977457 27.605675485261358 0.5000000000000036
  endloop
endfacet
facet normal 0.0 0.0 1.0
  outer loop
    vertex -2.0087707267977457 27.605675485261358 0.5000000000000036
    vertex -2.081360959496121 26.939925232219803 0.5000000000000036
    vertex -1.9986740933119154 27.152854705650558 0.5000000000000036
  endloop
endfacet
facet normal 0.0 0.0 1.0
  outer loop
    vertex -2.0087707267977457 27.605675485261358 0.5000000000000036
    vertex -1.9986740933119154 27.152854705650558 0.5000000000000036
    vertex -1.9739149167572134 27.379929718963776 0.5000000000000036
  endloop
endfacet
facet normal 0.8660254037844384 -0.5000000000000004 0.0
  outer loop
    vertex -2.632191137223945 27.2354245208787 0.12500000000000355
    vertex -2.6719207928734177 27.183647825582064 0.37500000000000355
    vertex -2.6719207928734177 27.183647825582064 0.12500000000000355
  endloop
endfacet
facet normal 0.7071067811865471 -0.7071067811865479 0.0
  outer loop
    vertex -2.6719207928734177 27.183647825582064 0.37500000000000355
    vertex -2.632191137223945 27.2354245208787 0.12500000000000355
    vertex -2.632191137223945 27.2354245208787 0.37500000000000355
  endloop
endfacet
facet normal -2.1386663749552573e-16 -1.0 0.0
  outer loop
    vertex -2.8486974881700546 27.1104245208787 0.37500000000000355
    vertex -2.913402249445685 27.118943064306432 0.12500000000000355
    vertex -2.8486974881700546 27.1104245208787 0.12500000000000355
  endloop
endfacet
facet normal -0.25881904510252135 -0.9659258262890683 0.0
  outer loop
    vertex -2.913402249445685 27.118943064306432 0.12500000000000355
    vertex -2.8486974881700546 27.1104245208787 0.37500000000000355
    vertex -2.913402249445685 27.118943064306432 0.37500000000000355
  endloop
endfacet
facet normal 0.7071067811865471 -0.7071067811865479 0.0
  outer loop
    vertex -2.6719207928734177 27.183647825582064 0.37500000000000355
    vertex -2.7236974881700546 27.14391816993259 0.12500000000000355
    vertex -2.6719207928734177 27.183647825582064 0.12500000000000355
  endloop
endfacet
facet normal 0.49999999999999956 -0.8660254037844392 0.0
  outer loop
    vertex -2.7236974881700546 27.14391816993259 0.12500000000000355
    vertex -2.6719207928734177 27.183647825582064 0.37500000000000355
    vertex -2.7236974881700546 27.14391816993259 0.37500000000000355
  endloop
endfacet
facet normal -0.2588190451025206 0.9659258262890684 0.0
  outer loop
    vertex -3.075107877975454 28.205399598993925 0.12500000000000355
    vertex -2.8486974881700533 28.23520709229154 3.552713678800501e-15
    vertex -3.075107877975454 28.205399598993925 3.552713678800501e-15
  endloop
endfacet
facet normal 3.6535550572152315e-16 1.0 0.0
  outer loop
    vertex -2.8486974881700533 28.23520709229154 3.552713678800501e-15
    vertex -3.075107877975454 28.205399598993925 0.12500000000000355
    vertex -2.8486974881700533 28.23520709229154 0.12500000000000355
  endloop
endfacet
facet normal -0.25881904510252135 -0.9659258262890683 0.0
  outer loop
    vertex -2.913402249445685 27.118943064306432 0.37500000000000355
    vertex -2.9736974881700546 27.14391816993259 0.12500000000000355
    vertex -2.913402249445685 27.118943064306432 0.12500000000000355
  endloop
endfacet
facet normal -0.5000000000000007 -0.8660254037844383 0.0
  outer loop
    vertex -2.9736974881700546 27.14391816993259 0.12500000000000355
    vertex -2.913402249445685 27.118943064306432 0.37500000000000355
    vertex -2.9736974881700546 27.14391816993259 0.37500000000000355
  endloop
endfacet
facet normal -0.8660254037844387 0.49999999999999994 0.0
  outer loop
    vertex -3.6062814178014495 27.79781580658512 0.12500000000000355
    vertex -3.693672566285279 27.586834910684097 3.552713678800501e-15
    vertex -3.693672566285279 27.586834910684097 0.12500000000000355
  endloop
endfacet
facet normal -0.9659258262890684 0.2588190451025208 0.0
  outer loop
    vertex -3.693672566285279 27.586834910684097 3.552713678800501e-15
    vertex -3.6062814178014495 27.79781580658512 0.12500000000000355
    vertex -3.6062814178014495 27.79781580658512 3.552713678800501e-15
  endloop
endfacet
facet normal 0.9659258262890682 -0.2588190451025213 0.0
  outer loop
    vertex -2.6072160315977877 27.29571975960307 0.12500000000000355
    vertex -2.632191137223945 27.2354245208787 0.37500000000000355
    vertex -2.632191137223945 27.2354245208787 0.12500000000000355
  endloop
endfacet
facet normal 0.8660254037844384 -0.5000000000000004 0.0
  outer loop
    vertex -2.632191137223945 27.2354245208787 0.37500000000000355
    vertex -2.6072160315977877 27.29571975960307 0.12500000000000355
    vertex -2.6072160315977877 27.29571975960307 0.37500000000000355
  endloop
endfacet
facet normal -0.5000000000000007 -0.8660254037844383 0.0
  outer loop
    vertex -2.9736974881700546 27.14391816993259 0.37500000000000355
    vertex -3.0254741834666916 27.183647825582064 0.12500000000000355
    vertex -2.9736974881700546 27.14391816993259 0.12500000000000355
  endloop
endfacet
facet normal -0.7071067811865478 -0.7071067811865472 0.0
  outer loop
    vertex -3.0254741834666916 27.183647825582064 0.12500000000000355
    vertex -2.9736974881700546 27.14391816993259 0.37500000000000355
    vertex -3.0254741834666916 27.183647825582064 0.37500000000000355
  endloop
endfacet
facet normal -0.8660254037844388 -0.4999999999999998 0.0
  outer loop
    vertex -3.0652038391161645 27.2354245208787 0.37500000000000355
    vertex -3.0254741834666916 27.183647825582064 0.12500000000000355
    vertex -3.0254741834666916 27.183647825582064 0.37500000000000355
  endloop
endfacet
facet normal -0.7071067811865478 -0.7071067811865472 0.0
  outer loop
    vertex -3.0254741834666916 27.183647825582064 0.12500000000000355
    vertex -3.0652038391161645 27.2354245208787 0.37500000000000355
    vertex -3.0652038391161645 27.2354245208787 0.12500000000000355
  endloop
endfacet
facet normal 3.6535550572152315e-16 1.0 0.0
  outer loop
    vertex -2.8486974881700533 28.23520709229154 0.12500000000000355
    vertex -2.622287098364656 28.205399598993925 3.552713678800501e-15
    vertex -2.8486974881700533 28.23520709229154 3.552713678800501e-15
  endloop
endfacet
facet normal 0.25881904510252074 0.9659258262890683 0.0
  outer loop
    vertex -2.622287098364656 28.205399598993925 3.552713678800501e-15
    vertex -2.8486974881700533 28.23520709229154 0.12500000000000355
    vertex -2.622287098364656 28.205399598993925 0.12500000000000355
  endloop
endfacet
facet normal 0.25881904510252074 0.9659258262890683 0.0
  outer loop
    vertex -2.622287098364656 28.205399598993925 0.12500000000000355
    vertex -2.411306202463634 28.118008450510093 3.552713678800501e-15
    vertex -2.622287098364656 28.205399598993925 3.552713678800501e-15
  endloop
endfacet
facet normal 0.5000000000000001 0.8660254037844387 0.0
  outer loop
    vertex -2.411306202463634 28.118008450510093 3.552713678800501e-15
    vertex -2.622287098364656 28.205399598993925 0.12500000000000355
    vertex -2.411306202463634 28.118008450510093 0.12500000000000355
  endloop
endfacet
facet normal 0.5000000000000001 0.8660254037844387 0.0
  outer loop
    vertex -2.411306202463634 28.118008450510093 0.12500000000000355
    vertex -2.230132799860229 27.978989209188523 3.552713678800501e-15
    vertex -2.411306202463634 28.118008450510093 3.552713678800501e-15
  endloop
endfacet
facet normal 0.7071067811865475 0.7071067811865476 0.0
  outer loop
    vertex -2.230132799860229 27.978989209188523 3.552713678800501e-15
    vertex -2.411306202463634 28.118008450510093 0.12500000000000355
    vertex -2.230132799860229 27.978989209188523 0.12500000000000355
  endloop
endfacet
facet normal -0.4999999999999999 0.8660254037844388 0.0
  outer loop
    vertex -3.2860887738764744 28.118008450510096 0.12500000000000355
    vertex -3.075107877975454 28.205399598993925 3.552713678800501e-15
    vertex -3.2860887738764744 28.118008450510096 3.552713678800501e-15
  endloop
endfacet
facet normal -0.2588190451025206 0.9659258262890684 0.0
  outer loop
    vertex -3.075107877975454 28.205399598993925 3.552713678800501e-15
    vertex -3.2860887738764744 28.118008450510096 0.12500000000000355
    vertex -3.075107877975454 28.205399598993925 0.12500000000000355
  endloop
endfacet
facet normal -0.7071067811865475 0.7071067811865477 0.0
  outer loop
    vertex -3.4672621764798803 27.978989209188523 0.12500000000000355
    vertex -3.2860887738764744 28.118008450510096 3.552713678800501e-15
    vertex -3.4672621764798803 27.978989209188523 3.552713678800501e-15
  endloop
endfacet
facet normal -0.4999999999999999 0.8660254037844388 0.0
  outer loop
    vertex -3.2860887738764744 28.118008450510096 3.552713678800501e-15
    vertex -3.4672621764798803 27.978989209188523 0.12500000000000355
    vertex -3.2860887738764744 28.118008450510096 0.12500000000000355
  endloop
endfacet
facet normal 0.7071067811865475 0.7071067811865476 0.0
  outer loop
    vertex -2.230132799860229 27.978989209188523 3.552713678800501e-15
    vertex -2.0911135585386593 27.79781580658512 0.12500000000000355
    vertex -2.0911135585386593 27.79781580658512 3.552713678800501e-15
  endloop
endfacet
facet normal 0.8660254037844383 0.5000000000000007 0.0
  outer loop
    vertex -2.0911135585386593 27.79781580658512 0.12500000000000355
    vertex -2.230132799860229 27.978989209188523 3.552713678800501e-15
    vertex -2.230132799860229 27.978989209188523 0.12500000000000355
  endloop
endfacet
facet normal 0.7071067811865476 0.7071067811865475 0.0
  outer loop
    vertex -2.6719207928734177 27.537201216175337 0.12500000000000355
    vertex -2.632191137223945 27.4854245208787 0.37500000000000355
    vertex -2.632191137223945 27.4854245208787 0.12500000000000355
  endloop
endfacet
facet normal 0.8660254037844386 0.4999999999999999 0.0
  outer loop
    vertex -2.632191137223945 27.4854245208787 0.37500000000000355
    vertex -2.6719207928734177 27.537201216175337 0.12500000000000355
    vertex -2.6719207928734177 27.537201216175337 0.37500000000000355
  endloop
endfacet
facet normal -0.7071067811865475 0.7071067811865477 0.0
  outer loop
    vertex -3.4672621764798803 27.978989209188523 0.12500000000000355
    vertex -3.6062814178014495 27.79781580658512 3.552713678800501e-15
    vertex -3.6062814178014495 27.79781580658512 0.12500000000000355
  endloop
endfacet
facet normal -0.8660254037844387 0.49999999999999994 0.0
  outer loop
    vertex -3.6062814178014495 27.79781580658512 3.552713678800501e-15
    vertex -3.4672621764798803 27.978989209188523 0.12500000000000355
    vertex -3.4672621764798803 27.978989209188523 3.552713678800501e-15
  endloop
endfacet
facet normal 0.8660254037844386 0.4999999999999999 0.0
  outer loop
    vertex -2.632191137223945 27.4854245208787 0.12500000000000355
    vertex -2.6072160315977877 27.42512928215433 0.37500000000000355
    vertex -2.6072160315977877 27.42512928215433 0.12500000000000355
  endloop
endfacet
facet normal 0.9659258262890683 0.25881904510252074 0.0
  outer loop
    vertex -2.6072160315977877 27.42512928215433 0.37500000000000355
    vertex -2.632191137223945 27.4854245208787 0.12500000000000355
    vertex -2.632191137223945 27.4854245208787 0.37500000000000355
  endloop
endfacet
facet normal 0.9659258262890683 0.25881904510252074 0.0
  outer loop
    vertex -2.6072160315977877 27.42512928215433 0.12500000000000355
    vertex -2.5986974881700546 27.3604245208787 0.37500000000000355
    vertex -2.5986974881700546 27.3604245208787 0.12500000000000355
  endloop
endfacet
facet normal 1.0 -2.1386663749552573e-16 0.0
  outer loop
    vertex -2.5986974881700546 27.3604245208787 0.37500000000000355
    vertex -2.6072160315977877 27.42512928215433 0.12500000000000355
    vertex -2.6072160315977877 27.42512928215433 0.37500000000000355
  endloop
endfacet
facet normal 1.0 -2.1386663749552573e-16 0.0
  outer loop
    vertex -2.5986974881700546 27.3604245208787 0.12500000000000355
    vertex -2.6072160315977877 27.29571975960307 0.37500000000000355
    vertex -2.6072160315977877 27.29571975960307 0.12500000000000355
  endloop
endfacet
facet normal 0.9659258262890682 -0.2588190451025213 0.0
  outer loop
    vertex -2.6072160315977877 27.29571975960307 0.37500000000000355
    vertex -2.5986974881700546 27.3604245208787 0.12500000000000355
    vertex -2.5986974881700546 27.3604245208787 0.37500000000000355
  endloop
endfacet
facet normal 0.49999999999999956 -0.8660254037844392 0.0
  outer loop
    vertex -2.7236974881700546 27.14391816993259 0.37500000000000355
    vertex -2.7839927268944242 27.118943064306432 0.12500000000000355
    vertex -2.7236974881700546 27.14391816993259 0.12500000000000355
  endloop
endfacet
facet normal 0.2588190451025203 -0.9659258262890684 0.0
  outer loop
    vertex -2.7839927268944242 27.118943064306432 0.12500000000000355
    vertex -2.7236974881700546 27.14391816993259 0.37500000000000355
    vertex -2.7839927268944242 27.118943064306432 0.37500000000000355
  endloop
endfacet
facet normal 0.2588190451025203 -0.9659258262890684 0.0
  outer loop
    vertex -2.7839927268944242 27.118943064306432 0.37500000000000355
    vertex -2.8486974881700546 27.1104245208787 0.12500000000000355
    vertex -2.7839927268944242 27.118943064306432 0.12500000000000355
  endloop
endfacet
facet normal -2.1386663749552573e-16 -1.0 0.0
  outer loop
    vertex -2.8486974881700546 27.1104245208787 0.12500000000000355
    vertex -2.7839927268944242 27.118943064306432 0.37500000000000355
    vertex -2.8486974881700546 27.1104245208787 0.37500000000000355
  endloop
endfacet
facet normal -0.7071067811865474 0.7071067811865477 0.0
  outer loop
    vertex -3.0254741834666916 27.537201216175337 0.37500000000000355
    vertex -3.065203839116164 27.4854245208787 0.12500000000000355
    vertex -3.065203839116164 27.4854245208787 0.37500000000000355
  endloop
endfacet
facet normal -0.8660254037844386 0.5000000000000001 0.0
  outer loop
    vertex -3.065203839116164 27.4854245208787 0.12500000000000355
    vertex -3.0254741834666916 27.537201216175337 0.37500000000000355
    vertex -3.0254741834666916 27.537201216175337 0.12500000000000355
  endloop
endfacet
facet normal -0.2588190451025208 0.9659258262890684 0.0
  outer loop
    vertex -2.9134022494456846 27.601905977450965 0.37500000000000355
    vertex -2.8486974881700546 27.6104245208787 0.12500000000000355
    vertex -2.9134022494456846 27.601905977450965 0.12500000000000355
  endloop
endfacet
facet normal 1.514888682259974e-16 1.0 0.0
  outer loop
    vertex -2.8486974881700546 27.6104245208787 0.12500000000000355
    vertex -2.9134022494456846 27.601905977450965 0.37500000000000355
    vertex -2.8486974881700546 27.6104245208787 0.37500000000000355
  endloop
endfacet
facet normal 0.2588190451025209 0.9659258262890684 0.0
  outer loop
    vertex -2.7839927268944242 27.601905977450965 0.37500000000000355
    vertex -2.7236974881700546 27.576930871824807 0.12500000000000355
    vertex -2.7839927268944242 27.601905977450965 0.12500000000000355
  endloop
endfacet
facet normal 0.5000000000000001 0.8660254037844388 0.0
  outer loop
    vertex -2.7236974881700546 27.576930871824807 0.12500000000000355
    vertex -2.7839927268944242 27.601905977450965 0.37500000000000355
    vertex -2.7236974881700546 27.576930871824807 0.37500000000000355
  endloop
endfacet
facet normal 0.965925826289068 -0.25881904510252196 0.0
  outer loop
    vertex -2.0037224100548308 27.134014131073297 3.552713678800501e-15
    vertex -2.0911135585386593 26.923033235172277 0.12500000000000355
    vertex -2.0911135585386593 26.923033235172277 3.552713678800501e-15
  endloop
endfacet
facet normal 0.8660254037844386 -0.5000000000000003 0.0
  outer loop
    vertex -2.0911135585386593 26.923033235172277 0.12500000000000355
    vertex -2.0037224100548308 27.134014131073297 3.552713678800501e-15
    vertex -2.0037224100548308 27.134014131073297 0.12500000000000355
  endloop
endfacet
facet normal 0.5000000000000001 0.8660254037844388 0.0
  outer loop
    vertex -2.7236974881700546 27.576930871824807 0.37500000000000355
    vertex -2.6719207928734177 27.537201216175337 0.12500000000000355
    vertex -2.7236974881700546 27.576930871824807 0.12500000000000355
  endloop
endfacet
facet normal 0.7071067811865476 0.7071067811865475 0.0
  outer loop
    vertex -2.6719207928734177 27.537201216175337 0.12500000000000355
    vertex -2.7236974881700546 27.576930871824807 0.37500000000000355
    vertex -2.6719207928734177 27.537201216175337 0.37500000000000355
  endloop
endfacet
facet normal 0.9659258262890682 0.25881904510252096 0.0
  outer loop
    vertex -2.0037224100548303 27.5868349106841 3.552713678800501e-15
    vertex -1.9739149167572134 27.3604245208787 0.12500000000000355
    vertex -1.9739149167572134 27.3604245208787 3.552713678800501e-15
  endloop
endfacet
facet normal 1.0 -1.1317109567471571e-15 0.0
  outer loop
    vertex -1.9739149167572134 27.3604245208787 0.12500000000000355
    vertex -2.0037224100548303 27.5868349106841 3.552713678800501e-15
    vertex -2.0037224100548303 27.5868349106841 0.12500000000000355
  endloop
endfacet
facet normal 1.514888682259974e-16 1.0 0.0
  outer loop
    vertex -2.8486974881700546 27.6104245208787 0.37500000000000355
    vertex -2.7839927268944242 27.601905977450965 0.12500000000000355
    vertex -2.8486974881700546 27.6104245208787 0.12500000000000355
  endloop
endfacet
facet normal 0.2588190451025209 0.9659258262890684 0.0
  outer loop
    vertex -2.7839927268944242 27.601905977450965 0.12500000000000355
    vertex -2.8486974881700546 27.6104245208787 0.37500000000000355
    vertex -2.7839927268944242 27.601905977450965 0.37500000000000355
  endloop
endfacet
facet normal 0.7071067811865474 -0.7071067811865478 0.0
  outer loop
    vertex -2.230132799860229 26.741859832568874 0.12500000000000355
    vertex -2.4113062024636345 26.602840591247304 3.552713678800501e-15
    vertex -2.230132799860229 26.741859832568874 3.552713678800501e-15
  endloop
endfacet
facet normal 0.4999999999999999 -0.8660254037844388 0.0
  outer loop
    vertex -2.4113062024636345 26.602840591247304 3.552713678800501e-15
    vertex -2.230132799860229 26.741859832568874 0.12500000000000355
    vertex -2.4113062024636345 26.602840591247304 0.12500000000000355
  endloop
endfacet
facet normal -0.2588190451025213 -0.9659258262890682 0.0
  outer loop
    vertex -3.075107877975454 26.515449442763476 0.12500000000000355
    vertex -3.2860887738764752 26.602840591247304 3.552713678800501e-15
    vertex -3.075107877975454 26.515449442763476 3.552713678800501e-15
  endloop
endfacet
facet normal -0.500000000000001 -0.8660254037844382 0.0
  outer loop
    vertex -3.2860887738764752 26.602840591247304 3.552713678800501e-15
    vertex -3.075107877975454 26.515449442763476 0.12500000000000355
    vertex -3.2860887738764752 26.602840591247304 0.12500000000000355
  endloop
endfacet
facet normal 0.25881904510252063 -0.9659258262890684 0.0
  outer loop
    vertex -2.622287098364655 26.515449442763476 0.12500000000000355
    vertex -2.8486974881700555 26.485641949465858 3.552713678800501e-15
    vertex -2.622287098364655 26.515449442763476 3.552713678800501e-15
  endloop
endfacet
facet normal -7.396221213386932e-16 -1.0 0.0
  outer loop
    vertex -2.8486974881700555 26.485641949465858 3.552713678800501e-15
    vertex -2.622287098364655 26.515449442763476 0.12500000000000355
    vertex -2.8486974881700555 26.485641949465858 0.12500000000000355
  endloop
endfacet
facet normal -1.0 6.861554619648115e-16 0.0
  outer loop
    vertex -3.7234800595828954 27.360424520878702 0.12500000000000355
    vertex -3.693672566285279 27.1340141310733 3.552713678800501e-15
    vertex -3.693672566285279 27.1340141310733 0.12500000000000355
  endloop
endfacet
facet normal -0.9659258262890685 -0.25881904510252013 0.0
  outer loop
    vertex -3.693672566285279 27.1340141310733 3.552713678800501e-15
    vertex -3.7234800595828954 27.360424520878702 0.12500000000000355
    vertex -3.7234800595828954 27.360424520878702 3.552713678800501e-15
  endloop
endfacet
facet normal 0.8660254037844386 -0.5000000000000003 0.0
  outer loop
    vertex -2.0911135585386593 26.923033235172277 3.552713678800501e-15
    vertex -2.230132799860229 26.741859832568874 0.12500000000000355
    vertex -2.230132799860229 26.741859832568874 3.552713678800501e-15
  endloop
endfacet
facet normal 0.7071067811865474 -0.7071067811865478 0.0
  outer loop
    vertex -2.230132799860229 26.741859832568874 0.12500000000000355
    vertex -2.0911135585386593 26.923033235172277 3.552713678800501e-15
    vertex -2.0911135585386593 26.923033235172277 0.12500000000000355
  endloop
endfacet
facet normal 0.4999999999999999 -0.8660254037844388 0.0
  outer loop
    vertex -2.4113062024636345 26.602840591247304 0.12500000000000355
    vertex -2.622287098364655 26.515449442763476 3.552713678800501e-15
    vertex -2.4113062024636345 26.602840591247304 3.552713678800501e-15
  endloop
endfacet
facet normal 0.25881904510252063 -0.9659258262890684 0.0
  outer loop
    vertex -2.622287098364655 26.515449442763476 3.552713678800501e-15
    vertex -2.4113062024636345 26.602840591247304 0.12500000000000355
    vertex -2.622287098364655 26.515449442763476 0.12500000000000355
  endloop
endfacet
facet normal 0.8660254037844383 0.5000000000000007 0.0
  outer loop
    vertex -2.0911135585386593 27.79781580658512 3.552713678800501e-15
    vertex -2.0037224100548303 27.5868349106841 0.12500000000000355
    vertex -2.0037224100548303 27.5868349106841 3.552713678800501e-15
  endloop
endfacet
facet normal 0.9659258262890682 0.25881904510252096 0.0
  outer loop
    vertex -2.0037224100548303 27.5868349106841 0.12500000000000355
    vertex -2.0911135585386593 27.79781580658512 3.552713678800501e-15
    vertex -2.0911135585386593 27.79781580658512 0.12500000000000355
  endloop
endfacet
facet normal -0.9659258262890684 -0.2588190451025204 0.0
  outer loop
    vertex -3.0901789447423216 27.29571975960307 0.37500000000000355
    vertex -3.0652038391161645 27.2354245208787 0.12500000000000355
    vertex -3.0652038391161645 27.2354245208787 0.37500000000000355
  endloop
endfacet
facet normal -0.8660254037844388 -0.4999999999999998 0.0
  outer loop
    vertex -3.0652038391161645 27.2354245208787 0.12500000000000355
    vertex -3.0901789447423216 27.29571975960307 0.37500000000000355
    vertex -3.0901789447423216 27.29571975960307 0.12500000000000355
  endloop
endfacet
facet normal -0.8660254037844386 -0.4999999999999999 0.0
  outer loop
    vertex -3.60628141780145 26.92303323517228 0.12500000000000355
    vertex -3.4672621764798803 26.741859832568874 3.552713678800501e-15
    vertex -3.4672621764798803 26.741859832568874 0.12500000000000355
  endloop
endfacet
facet normal -0.7071067811865483 -0.7071067811865468 0.0
  outer loop
    vertex -3.4672621764798803 26.741859832568874 3.552713678800501e-15
    vertex -3.60628141780145 26.92303323517228 0.12500000000000355
    vertex -3.60628141780145 26.92303323517228 3.552713678800501e-15
  endloop
endfacet
facet normal -0.9659258262890684 0.2588190451025208 0.0
  outer loop
    vertex -3.693672566285279 27.586834910684097 0.12500000000000355
    vertex -3.7234800595828954 27.360424520878702 3.552713678800501e-15
    vertex -3.7234800595828954 27.360424520878702 0.12500000000000355
  endloop
endfacet
facet normal -1.0 6.861554619648115e-16 0.0
  outer loop
    vertex -3.7234800595828954 27.360424520878702 3.552713678800501e-15
    vertex -3.693672566285279 27.586834910684097 0.12500000000000355
    vertex -3.693672566285279 27.586834910684097 3.552713678800501e-15
  endloop
endfacet
facet normal -0.8660254037844386 0.5000000000000001 0.0
  outer loop
    vertex -3.065203839116164 27.4854245208787 0.37500000000000355
    vertex -3.0901789447423216 27.42512928215433 0.12500000000000355
    vertex -3.0901789447423216 27.42512928215433 0.37500000000000355
  endloop
endfacet
facet normal -0.9659258262890682 0.2588190451025209 0.0
  outer loop
    vertex -3.0901789447423216 27.42512928215433 0.12500000000000355
    vertex -3.065203839116164 27.4854245208787 0.37500000000000355
    vertex -3.065203839116164 27.4854245208787 0.12500000000000355
  endloop
endfacet
facet normal -0.500000000000001 -0.8660254037844382 0.0
  outer loop
    vertex -3.2860887738764752 26.602840591247304 0.12500000000000355
    vertex -3.4672621764798803 26.741859832568874 3.552713678800501e-15
    vertex -3.2860887738764752 26.602840591247304 3.552713678800501e-15
  endloop
endfacet
facet normal -0.7071067811865483 -0.7071067811865468 0.0
  outer loop
    vertex -3.4672621764798803 26.741859832568874 3.552713678800501e-15
    vertex -3.2860887738764752 26.602840591247304 0.12500000000000355
    vertex -3.4672621764798803 26.741859832568874 0.12500000000000355
  endloop
endfacet
facet normal -0.7071067811865474 0.7071067811865477 0.0
  outer loop
    vertex -3.0254741834666916 27.537201216175337 0.37500000000000355
    vertex -2.973697488170054 27.576930871824807 0.12500000000000355
    vertex -3.0254741834666916 27.537201216175337 0.12500000000000355
  endloop
endfacet
facet normal -0.49999999999999994 0.8660254037844388 0.0
  outer loop
    vertex -2.973697488170054 27.576930871824807 0.12500000000000355
    vertex -3.0254741834666916 27.537201216175337 0.37500000000000355
    vertex -2.973697488170054 27.576930871824807 0.37500000000000355
  endloop
endfacet
facet normal -7.396221213386932e-16 -1.0 0.0
  outer loop
    vertex -2.8486974881700555 26.485641949465858 0.12500000000000355
    vertex -3.075107877975454 26.515449442763476 3.552713678800501e-15
    vertex -2.8486974881700555 26.485641949465858 3.552713678800501e-15
  endloop
endfacet
facet normal -0.2588190451025213 -0.9659258262890682 0.0
  outer loop
    vertex -3.075107877975454 26.515449442763476 3.552713678800501e-15
    vertex -2.8486974881700555 26.485641949465858 0.12500000000000355
    vertex -3.075107877975454 26.515449442763476 0.12500000000000355
  endloop
endfacet
facet normal -0.9659258262890685 -0.25881904510252013 0.0
  outer loop
    vertex -3.693672566285279 27.1340141310733 0.12500000000000355
    vertex -3.60628141780145 26.92303323517228 3.552713678800501e-15
    vertex -3.60628141780145 26.92303323517228 0.12500000000000355
  endloop
endfacet
facet normal -0.8660254037844386 -0.4999999999999999 0.0
  outer loop
    vertex -3.60628141780145 26.92303323517228 3.552713678800501e-15
    vertex -3.693672566285279 27.1340141310733 0.12500000000000355
    vertex -3.693672566285279 27.1340141310733 3.552713678800501e-15
  endloop
endfacet
facet normal -0.49999999999999994 0.8660254037844388 0.0
  outer loop
    vertex -2.973697488170054 27.576930871824807 0.37500000000000355
    vertex -2.9134022494456846 27.601905977450965 0.12500000000000355
    vertex -2.973697488170054 27.576930871824807 0.12500000000000355
  endloop
endfacet
facet normal -0.2588190451025208 0.9659258262890684 0.0
  outer loop
    vertex -2.9134022494456846 27.601905977450965 0.12500000000000355
    vertex -2.973697488170054 27.576930871824807 0.37500000000000355
    vertex -2.9134022494456846 27.601905977450965 0.37500000000000355
  endloop
endfacet
facet normal -1.0 3.207999562432886e-16 0.0
  outer loop
    vertex -3.0986974881700546 27.3604245208787 0.37500000000000355
    vertex -3.0901789447423216 27.29571975960307 0.12500000000000355
    vertex -3.0901789447423216 27.29571975960307 0.37500000000000355
  endloop
endfacet
facet normal -0.9659258262890684 -0.2588190451025204 0.0
  outer loop
    vertex -3.0901789447423216 27.29571975960307 0.12500000000000355
    vertex -3.0986974881700546 27.3604245208787 0.37500000000000355
    vertex -3.0986974881700546 27.3604245208787 0.12500000000000355
  endloop
endfacet
facet normal 1.0 -1.1317109567471571e-15 0.0
  outer loop
    vertex -1.9739149167572134 27.3604245208787 3.552713678800501e-15
    vertex -2.0037224100548308 27.134014131073297 0.12500000000000355
    vertex -2.0037224100548308 27.134014131073297 3.552713678800501e-15
  endloop
endfacet
facet normal 0.965925826289068 -0.25881904510252196 0.0
  outer loop
    vertex -2.0037224100548308 27.134014131073297 0.12500000000000355
    vertex -1.9739149167572134 27.3604245208787 3.552713678800501e-15
    vertex -1.9739149167572134 27.3604245208787 0.12500000000000355
  endloop
endfacet
facet normal -0.9659258262890682 0.2588190451025209 0.0
  outer loop
    vertex -3.0901789447423216 27.42512928215433 0.37500000000000355
    vertex -3.0986974881700546 27.3604245208787 0.12500000000000355
    vertex -3.0986974881700546 27.3604245208787 0.37500000000000355
  endloop
endfacet
facet normal -1.0 3.207999562432886e-16 0.0
  outer loop
    vertex -3.0986974881700546 27.3604245208787 0.12500000000000355
    vertex -3.0901789447423216 27.42512928215433 0.37500000000000355
    vertex -3.0901789447423216 27.42512928215433 0.12500000000000355
  endloop
endfacet
facet normal 0.0 0.0 1.0
  outer loop
    vertex -3.693672566285279 27.1340141310733 0.12500000000000355
    vertex -3.693672566285279 27.586834910684097 0.12500000000000355
    vertex -3.7234800595828954 27.360424520878702 0.12500000000000355
  endloop
endfacet
facet normal 0.0 0.0 1.0
  outer loop
    vertex -3.693672566285279 27.586834910684097 0.12500000000000355
    vertex -3.693672566285279 27.1340141310733 0.12500000000000355
    vertex -3.6062814178014495 27.79781580658512 0.12500000000000355
  endloop
endfacet
facet normal 0.0 0.0 1.0
  outer loop
    vertex -3.6062814178014495 27.79781580658512 0.12500000000000355
    vertex -3.693672566285279 27.1340141310733 0.12500000000000355
    vertex -3.60628141780145 26.92303323517228 0.12500000000000355
  endloop
endfacet
facet normal 0.0 0.0 1.0
  outer loop
    vertex -3.6062814178014495 27.79781580658512 0.12500000000000355
    vertex -3.60628141780145 26.92303323517228 0.12500000000000355
    vertex -3.4672621764798803 26.741859832568874 0.12500000000000355
  endloop
endfacet
facet normal 0.0 0.0 1.0
  outer loop
    vertex -3.6062814178014495 27.79781580658512 0.12500000000000355
    vertex -3.4672621764798803 26.741859832568874 0.12500000000000355
    vertex -3.4672621764798803 27.978989209188523 0.12500000000000355
  endloop
endfacet
facet normal 0.0 0.0 1.0
  outer loop
    vertex -3.4672621764798803 27.978989209188523 0.12500000000000355
    vertex -3.4672621764798803 26.741859832568874 0.12500000000000355
    vertex -3.2860887738764744 28.118008450510096 0.12500000000000355
  endloop
endfacet
facet normal 0.0 0.0 1.0
  outer loop
    vertex -3.2860887738764744 28.118008450510096 0.12500000000000355
    vertex -3.4672621764798803 26.741859832568874 0.12500000000000355
    vertex -3.2860887738764752 26.602840591247304 0.12500000000000355
  endloop
endfacet
facet normal 0.0 0.0 1.0
  outer loop
    vertex -3.2860887738764744 28.118008450510096 0.12500000000000355
    vertex -3.2860887738764752 26.602840591247304 0.12500000000000355
    vertex -3.075107877975454 26.515449442763476 0.12500000000000355
  endloop
endfacet
facet normal 0.0 0.0 1.0
  outer loop
    vertex -3.2860887738764744 28.118008450510096 0.12500000000000355
    vertex -3.075107877975454 26.515449442763476 0.12500000000000355
    vertex -3.0986974881700546 27.3604245208787 0.12500000000000355
  endloop
endfacet
facet normal 0.0 0.0 1.0
  outer loop
    vertex -3.0986974881700546 27.3604245208787 0.12500000000000355
    vertex -3.075107877975454 26.515449442763476 0.12500000000000355
    vertex -3.0901789447423216 27.29571975960307 0.12500000000000355
  endloop
endfacet
facet normal 0.0 0.0 1.0
  outer loop
    vertex -3.0901789447423216 27.29571975960307 0.12500000000000355
    vertex -3.075107877975454 26.515449442763476 0.12500000000000355
    vertex -3.0652038391161645 27.2354245208787 0.12500000000000355
  endloop
endfacet
facet normal 0.0 0.0 1.0
  outer loop
    vertex -3.0652038391161645 27.2354245208787 0.12500000000000355
    vertex -3.075107877975454 26.515449442763476 0.12500000000000355
    vertex -2.8486974881700555 26.485641949465858 0.12500000000000355
  endloop
endfacet
facet normal 0.0 0.0 1.0
  outer loop
    vertex -3.0652038391161645 27.2354245208787 0.12500000000000355
    vertex -2.8486974881700555 26.485641949465858 0.12500000000000355
    vertex -3.0254741834666916 27.183647825582064 0.12500000000000355
  endloop
endfacet
facet normal 0.0 0.0 1.0
  outer loop
    vertex -3.0254741834666916 27.183647825582064 0.12500000000000355
    vertex -2.8486974881700555 26.485641949465858 0.12500000000000355
    vertex -2.9736974881700546 27.14391816993259 0.12500000000000355
  endloop
endfacet
facet normal 0.0 0.0 1.0
  outer loop
    vertex -2.9736974881700546 27.14391816993259 0.12500000000000355
    vertex -2.8486974881700555 26.485641949465858 0.12500000000000355
    vertex -2.913402249445685 27.118943064306432 0.12500000000000355
  endloop
endfacet
facet normal 0.0 0.0 1.0
  outer loop
    vertex -2.913402249445685 27.118943064306432 0.12500000000000355
    vertex -2.8486974881700555 26.485641949465858 0.12500000000000355
    vertex -2.8486974881700546 27.1104245208787 0.12500000000000355
  endloop
endfacet
facet normal 0.0 0.0 1.0
  outer loop
    vertex -2.8486974881700546 27.1104245208787 0.12500000000000355
    vertex -2.8486974881700555 26.485641949465858 0.12500000000000355
    vertex -2.622287098364655 26.515449442763476 0.12500000000000355
  endloop
endfacet
facet normal 0.0 0.0 1.0
  outer loop
    vertex -2.8486974881700546 27.1104245208787 0.12500000000000355
    vertex -2.622287098364655 26.515449442763476 0.12500000000000355
    vertex -2.7839927268944242 27.118943064306432 0.12500000000000355
  endloop
endfacet
facet normal 0.0 0.0 1.0
  outer loop
    vertex -2.7839927268944242 27.118943064306432 0.12500000000000355
    vertex -2.622287098364655 26.515449442763476 0.12500000000000355
    vertex -2.7236974881700546 27.14391816993259 0.12500000000000355
  endloop
endfacet
facet normal 0.0 0.0 1.0
  outer loop
    vertex -2.7236974881700546 27.14391816993259 0.12500000000000355
    vertex -2.622287098364655 26.515449442763476 0.12500000000000355
    vertex -2.6719207928734177 27.183647825582064 0.12500000000000355
  endloop
endfacet
facet normal 0.0 0.0 1.0
  outer loop
    vertex -2.6719207928734177 27.183647825582064 0.12500000000000355
    vertex -2.622287098364655 26.515449442763476 0.12500000000000355
    vertex -2.632191137223945 27.2354245208787 0.12500000000000355
  endloop
endfacet
facet normal 0.0 0.0 1.0
  outer loop
    vertex -2.632191137223945 27.2354245208787 0.12500000000000355
    vertex -2.622287098364655 26.515449442763476 0.12500000000000355
    vertex -2.6072160315977877 27.29571975960307 0.12500000000000355
  endloop
endfacet
facet normal 0.0 0.0 1.0
  outer loop
    vertex -2.6072160315977877 27.29571975960307 0.12500000000000355
    vertex -2.622287098364655 26.515449442763476 0.12500000000000355
    vertex -2.4113062024636345 26.602840591247304 0.12500000000000355
  endloop
endfacet
facet normal 0.0 0.0 1.0
  outer loop
    vertex -2.6072160315977877 27.29571975960307 0.12500000000000355
    vertex -2.4113062024636345 26.602840591247304 0.12500000000000355
    vertex -2.5986974881700546 27.3604245208787 0.12500000000000355
  endloop
endfacet
facet normal 0.0 0.0 1.0
  outer loop
    vertex -3.0986974881700546 27.3604245208787 0.12500000000000355
    vertex -3.075107877975454 28.205399598993925 0.12500000000000355
    vertex -3.2860887738764744 28.118008450510096 0.12500000000000355
  endloop
endfacet
facet normal 0.0 0.0 1.0
  outer loop
    vertex -3.075107877975454 28.205399598993925 0.12500000000000355
    vertex -3.0986974881700546 27.3604245208787 0.12500000000000355
    vertex -3.0901789447423216 27.42512928215433 0.12500000000000355
  endloop
endfacet
facet normal 0.0 0.0 1.0
  outer loop
    vertex -3.075107877975454 28.205399598993925 0.12500000000000355
    vertex -3.0901789447423216 27.42512928215433 0.12500000000000355
    vertex -3.065203839116164 27.4854245208787 0.12500000000000355
  endloop
endfacet
facet normal 0.0 0.0 1.0
  outer loop
    vertex -3.075107877975454 28.205399598993925 0.12500000000000355
    vertex -3.065203839116164 27.4854245208787 0.12500000000000355
    vertex -2.8486974881700533 28.23520709229154 0.12500000000000355
  endloop
endfacet
facet normal 0.0 0.0 1.0
  outer loop
    vertex -2.8486974881700533 28.23520709229154 0.12500000000000355
    vertex -3.065203839116164 27.4854245208787 0.12500000000000355
    vertex -3.0254741834666916 27.537201216175337 0.12500000000000355
  endloop
endfacet
facet normal 0.0 0.0 1.0
  outer loop
    vertex -2.8486974881700533 28.23520709229154 0.12500000000000355
    vertex -3.0254741834666916 27.537201216175337 0.12500000000000355
    vertex -2.973697488170054 27.576930871824807 0.12500000000000355
  endloop
endfacet
facet normal 0.0 0.0 1.0
  outer loop
    vertex -2.8486974881700533 28.23520709229154 0.12500000000000355
    vertex -2.973697488170054 27.576930871824807 0.12500000000000355
    vertex -2.9134022494456846 27.601905977450965 0.12500000000000355
  endloop
endfacet
facet normal 0.0 0.0 1.0
  outer loop
    vertex -2.8486974881700533 28.23520709229154 0.12500000000000355
    vertex -2.9134022494456846 27.601905977450965 0.12500000000000355
    vertex -2.8486974881700546 27.6104245208787 0.12500000000000355
  endloop
endfacet
facet normal 0.0 0.0 1.0
  outer loop
    vertex -2.8486974881700533 28.23520709229154 0.12500000000000355
    vertex -2.8486974881700546 27.6104245208787 0.12500000000000355
    vertex -2.7839927268944242 27.601905977450965 0.12500000000000355
  endloop
endfacet
facet normal 0.0 0.0 1.0
  outer loop
    vertex -2.8486974881700533 28.23520709229154 0.12500000000000355
    vertex -2.7839927268944242 27.601905977450965 0.12500000000000355
    vertex -2.622287098364656 28.205399598993925 0.12500000000000355
  endloop
endfacet
facet normal 0.0 0.0 1.0
  outer loop
    vertex -2.622287098364656 28.205399598993925 0.12500000000000355
    vertex -2.7839927268944242 27.601905977450965 0.12500000000000355
    vertex -2.7236974881700546 27.576930871824807 0.12500000000000355
  endloop
endfacet
facet normal 0.0 0.0 1.0
  outer loop
    vertex -2.622287098364656 28.205399598993925 0.12500000000000355
    vertex -2.7236974881700546 27.576930871824807 0.12500000000000355
    vertex -2.6719207928734177 27.537201216175337 0.12500000000000355
  endloop
endfacet
facet normal 0.0 0.0 1.0
  outer loop
    vertex -2.622287098364656 28.205399598993925 0.12500000000000355
    vertex -2.6719207928734177 27.537201216175337 0.12500000000000355
    vertex -2.632191137223945 27.4854245208787 0.12500000000000355
  endloop
endfacet
facet normal 0.0 0.0 1.0
  outer loop
    vertex -2.622287098364656 28.205399598993925 0.12500000000000355
    vertex -2.632191137223945 27.4854245208787 0.12500000000000355
    vertex -2.6072160315977877 27.42512928215433 0.12500000000000355
  endloop
endfacet
facet normal 0.0 0.0 1.0
  outer loop
    vertex -2.622287098364656 28.205399598993925 0.12500000000000355
    vertex -2.6072160315977877 27.42512928215433 0.12500000000000355
    vertex -2.411306202463634 28.118008450510093 0.12500000000000355
  endloop
endfacet
facet normal 0.0 0.0 1.0
  outer loop
    vertex -2.411306202463634 28.118008450510093 0.12500000000000355
    vertex -2.6072160315977877 27.42512928215433 0.12500000000000355
    vertex -2.5986974881700546 27.3604245208787 0.12500000000000355
  endloop
endfacet
facet normal 0.0 0.0 1.0
  outer loop
    vertex -2.411306202463634 28.118008450510093 0.12500000000000355
    vertex -2.5986974881700546 27.3604245208787 0.12500000000000355
    vertex -2.4113062024636345 26.602840591247304 0.12500000000000355
  endloop
endfacet
facet normal 0.0 0.0 1.0
  outer loop
    vertex -2.411306202463634 28.118008450510093 0.12500000000000355
    vertex -2.4113062024636345 26.602840591247304 0.12500000000000355
    vertex -2.230132799860229 26.741859832568874 0.12500000000000355
  endloop
endfacet
facet normal 0.0 0.0 1.0
  outer loop
    vertex -2.411306202463634 28.118008450510093 0.12500000000000355
    vertex -2.230132799860229 26.741859832568874 0.12500000000000355
    vertex -2.230132799860229 27.978989209188523 0.12500000000000355
  endloop
endfacet
facet normal 0.0 0.0 1.0
  outer loop
    vertex -2.230132799860229 27.978989209188523 0.12500000000000355
    vertex -2.230132799860229 26.741859832568874 0.12500000000000355
    vertex -2.0911135585386593 26.923033235172277 0.12500000000000355
  endloop
endfacet
facet normal 0.0 0.0 1.0
  outer loop
    vertex -2.230132799860229 27.978989209188523 0.12500000000000355
    vertex -2.0911135585386593 26.923033235172277 0.12500000000000355
    vertex -2.0911135585386593 27.79781580658512 0.12500000000000355
  endloop
endfacet
facet normal 0.0 0.0 1.0
  outer loop
    vertex -2.0911135585386593 27.79781580658512 0.12500000000000355
    vertex -2.0911135585386593 26.923033235172277 0.12500000000000355
    vertex -2.0037224100548308 27.134014131073297 0.12500000000000355
  endloop
endfacet
facet normal 0.0 0.0 1.0
  outer loop
    vertex -2.0911135585386593 27.79781580658512 0.12500000000000355
    vertex -2.0037224100548308 27.134014131073297 0.12500000000000355
    vertex -2.0037224100548303 27.5868349106841 0.12500000000000355
  endloop
endfacet
facet normal 0.0 0.0 1.0
  outer loop
    vertex -2.0037224100548303 27.5868349106841 0.12500000000000355
    vertex -2.0037224100548308 27.134014131073297 0.12500000000000355
    vertex -1.9739149167572134 27.3604245208787 0.12500000000000355
  endloop
endfacet
facet normal 0.0 0.0 -1.0
  outer loop
    vertex -3.693672566285279 27.586834910684097 3.552713678800501e-15
    vertex -3.693672566285279 27.1340141310733 3.552713678800501e-15
    vertex -3.7234800595828954 27.360424520878702 3.552713678800501e-15
  endloop
endfacet
facet normal 0.0 0.0 -1.0
  outer loop
    vertex -3.693672566285279 27.1340141310733 3.552713678800501e-15
    vertex -3.693672566285279 27.586834910684097 3.552713678800501e-15
    vertex -3.6062814178014495 27.79781580658512 3.552713678800501e-15
  endloop
endfacet
facet normal 0.0 0.0 -1.0
  outer loop
    vertex -3.693672566285279 27.1340141310733 3.552713678800501e-15
    vertex -3.6062814178014495 27.79781580658512 3.552713678800501e-15
    vertex -3.60628141780145 26.92303323517228 3.552713678800501e-15
  endloop
endfacet
facet normal 0.0 0.0 -1.0
  outer loop
    vertex -3.60628141780145 26.92303323517228 3.552713678800501e-15
    vertex -3.6062814178014495 27.79781580658512 3.552713678800501e-15
    vertex -3.4672621764798803 26.741859832568874 3.552713678800501e-15
  endloop
endfacet
facet normal 0.0 0.0 -1.0
  outer loop
    vertex -3.4672621764798803 26.741859832568874 3.552713678800501e-15
    vertex -3.6062814178014495 27.79781580658512 3.552713678800501e-15
    vertex -3.4672621764798803 27.978989209188523 3.552713678800501e-15
  endloop
endfacet
facet normal 0.0 0.0 -1.0
  outer loop
    vertex -3.4672621764798803 26.741859832568874 3.552713678800501e-15
    vertex -3.4672621764798803 27.978989209188523 3.552713678800501e-15
    vertex -3.2860887738764744 28.118008450510096 3.552713678800501e-15
  endloop
endfacet
facet normal 0.0 0.0 -1.0
  outer loop
    vertex -3.4672621764798803 26.741859832568874 3.552713678800501e-15
    vertex -3.2860887738764744 28.118008450510096 3.552713678800501e-15
    vertex -3.2860887738764752 26.602840591247304 3.552713678800501e-15
  endloop
endfacet
facet normal 0.0 0.0 -1.0
  outer loop
    vertex -3.2860887738764752 26.602840591247304 3.552713678800501e-15
    vertex -3.2860887738764744 28.118008450510096 3.552713678800501e-15
    vertex -3.075107877975454 26.515449442763476 3.552713678800501e-15
  endloop
endfacet
facet normal 0.0 0.0 -1.0
  outer loop
    vertex -3.075107877975454 26.515449442763476 3.552713678800501e-15
    vertex -3.2860887738764744 28.118008450510096 3.552713678800501e-15
    vertex -3.075107877975454 28.205399598993925 3.552713678800501e-15
  endloop
endfacet
facet normal 0.0 0.0 -1.0
  outer loop
    vertex -3.075107877975454 26.515449442763476 3.552713678800501e-15
    vertex -3.075107877975454 28.205399598993925 3.552713678800501e-15
    vertex -2.8486974881700555 26.485641949465858 3.552713678800501e-15
  endloop
endfacet
facet normal 0.0 0.0 -1.0
  outer loop
    vertex -2.8486974881700555 26.485641949465858 3.552713678800501e-15
    vertex -3.075107877975454 28.205399598993925 3.552713678800501e-15
    vertex -2.8486974881700533 28.23520709229154 3.552713678800501e-15
  endloop
endfacet
facet normal 0.0 0.0 -1.0
  outer loop
    vertex -2.8486974881700555 26.485641949465858 3.552713678800501e-15
    vertex -2.8486974881700533 28.23520709229154 3.552713678800501e-15
    vertex -2.622287098364655 26.515449442763476 3.552713678800501e-15
  endloop
endfacet
facet normal 0.0 0.0 -1.0
  outer loop
    vertex -2.622287098364655 26.515449442763476 3.552713678800501e-15
    vertex -2.8486974881700533 28.23520709229154 3.552713678800501e-15
    vertex -2.622287098364656 28.205399598993925 3.552713678800501e-15
  endloop
endfacet
facet normal 0.0 0.0 -1.0
  outer loop
    vertex -2.622287098364655 26.515449442763476 3.552713678800501e-15
    vertex -2.622287098364656 28.205399598993925 3.552713678800501e-15
    vertex -2.411306202463634 28.118008450510093 3.552713678800501e-15
  endloop
endfacet
facet normal 0.0 0.0 -1.0
  outer loop
    vertex -2.622287098364655 26.515449442763476 3.552713678800501e-15
    vertex -2.411306202463634 28.118008450510093 3.552713678800501e-15
    vertex -2.4113062024636345 26.602840591247304 3.552713678800501e-15
  endloop
endfacet
facet normal 0.0 0.0 -1.0
  outer loop
    vertex -2.4113062024636345 26.602840591247304 3.552713678800501e-15
    vertex -2.411306202463634 28.118008450510093 3.552713678800501e-15
    vertex -2.230132799860229 26.741859832568874 3.552713678800501e-15
  endloop
endfacet
facet normal 0.0 0.0 -1.0
  outer loop
    vertex -2.230132799860229 26.741859832568874 3.552713678800501e-15
    vertex -2.411306202463634 28.118008450510093 3.552713678800501e-15
    vertex -2.230132799860229 27.978989209188523 3.552713678800501e-15
  endloop
endfacet
facet normal 0.0 0.0 -1.0
  outer loop
    vertex -2.230132799860229 26.741859832568874 3.552713678800501e-15
    vertex -2.230132799860229 27.978989209188523 3.552713678800501e-15
    vertex -2.0911135585386593 27.79781580658512 3.552713678800501e-15
  endloop
endfacet
facet normal 0.0 0.0 -1.0
  outer loop
    vertex -2.230132799860229 26.741859832568874 3.552713678800501e-15
    vertex -2.0911135585386593 27.79781580658512 3.552713678800501e-15
    vertex -2.0911135585386593 26.923033235172277 3.552713678800501e-15
  endloop
endfacet
facet normal 0.0 0.0 -1.0
  outer loop
    vertex -2.0911135585386593 26.923033235172277 3.552713678800501e-15
    vertex -2.0911135585386593 27.79781580658512 3.552713678800501e-15
    vertex -2.0037224100548303 27.5868349106841 3.552713678800501e-15
  endloop
endfacet
facet normal 0.0 0.0 -1.0
  outer loop
    vertex -2.0911135585386593 26.923033235172277 3.552713678800501e-15
    vertex -2.0037224100548303 27.5868349106841 3.552713678800501e-15
    vertex -2.0037224100548308 27.134014131073297 3.552713678800501e-15
  endloop
endfacet
facet normal 0.0 0.0 -1.0
  outer loop
    vertex -2.0037224100548308 27.134014131073297 3.552713678800501e-15
    vertex -2.0037224100548303 27.5868349106841 3.552713678800501e-15
    vertex -1.9739149167572134 27.3604245208787 3.552713678800501e-15
  endloop
endfacet
endsolid Chandelier1ArrangedForPrint
